<svg version="1.2" xmlns="http://www.w3.org/2000/svg" viewBox="0 0 3000 2000" width="3000" height="2000">
	<title>Na_Nov_26-ai</title>
	<defs>
		<clipPath clipPathUnits="userSpaceOnUse" id="cp1">
			<path d="m670.12 1779.34q-98.22-331.89-82.4-340.68 15.81-8.78 403.53-9.13-44.46 349.06-56.8 349.81c-12.35 0.74-231.64 1.51-264.33 0z"/>
		</clipPath>
		<clipPath clipPathUnits="userSpaceOnUse" id="cp2">
			<path d="m2219.64 705.38c15.39 0 10.99 727.66 0 737.63-11 9.96-1292.91 1.99-1310.5 0q-17.59-2-13.19-731.65 1308.3-5.98 1323.69-5.98z"/>
		</clipPath>
		<clipPath clipPathUnits="userSpaceOnUse" id="cp3">
			<path d="m2508.61 1778.72h-332.88c-6.67 0-12.08-5.41-12.08-12.08v-388.83c0-6.67 5.41-12.08 12.08-12.08h332.88c6.67 0 12.08 5.41 12.08 12.08v388.83c0 6.67-5.41 12.08-12.08 12.08z"/>
		</clipPath>
		<clipPath clipPathUnits="userSpaceOnUse" id="cp4">
			<path d="m2258.03 1365.73q-4.74-339.97 1.58-343.92c6.31-3.94 54.48-7.89 58.43 1.58q3.95 9.48 0 342.34z"/>
		</clipPath>
		<clipPath clipPathUnits="userSpaceOnUse" id="cp5">
			<path d="m2492.85 1365.73h-139.48v-490.67c0-2.06 1.67-3.74 3.73-3.74h132.01c2.07 0 3.74 1.68 3.74 3.74z"/>
		</clipPath>
		<clipPath clipPathUnits="userSpaceOnUse" id="cp6">
			<path d="m1172.41 668.3h-34.76q-0.02 0.03-0.04 0.05c-11.45 10.16-42.64 14.9-63.17 14.5-20.53-0.39-68.13-17.21-73.87-33.62-6.52-18.64 8.67-46.34 35.12-49.1 26.34-2.75 54.58 6.1 83.75 19.76l52.97-6.85z"/>
		</clipPath>
		<clipPath clipPathUnits="userSpaceOnUse" id="cp7">
			<path d="m1119.44 619.89q-16.98 1.51-20.27 1.59-11.89 0.29-23.81 0.94-7.41-24.05-18.3-19.12-16 7.24 2.29 18.47-28.44-4.74-31.22-4.9c-2.77-0.17 21.29 50.59-4.38 66-25.67 15.42-54.27 7.3-57.84-32.67-3.58-39.97 37.37-78.31 75.06-77.01q37.69 1.29 78.47 46.7z"/>
		</clipPath>
		<clipPath clipPathUnits="userSpaceOnUse" id="cp8">
			<path d="m1271.68 988.62q11.38 34.6 11.6 40.78c0.23 6.18-2.78 12.68-5.14 17.03-2.37 4.34-5.38 7.67-7.11 7.34-2.28-0.43 2.63-12.69 3.26-14.8q0.62-2.1-2.05-18.29 0.16 13.78-0.35 14.91c-0.52 1.14-11.24 22.78-14.43 26.8-3.2 4.03-5.53 1-6.14 1.01-0.61 0.01 11.09-29.49 10.51-27.21-0.59 2.29-18.44 30.7-20.46 33.31-2.02 2.61-7.13-0.04-7.93-0.36-0.8-0.32 19.13-40.34 17.96-37.52-1.18 2.82-10.76 20.47-14.81 27.29-4.05 6.82-9.25 3.65-10.46 2.78-1.21-0.87 12.52-28.23 13.31-29.92q0.79-1.68 0.35-25.52l-6.47 22.23c-1.22 3.48-7.07 3.79-7.61 3.88-0.55 0.09 0.29-26.24 2.9-31.51q2.62-5.26 10.53-15.91z"/>
		</clipPath>
		<clipPath clipPathUnits="userSpaceOnUse" id="cp9">
			<path d="m2074.66 666.88h-339.25c33.62 28.63 71.92 67.09 74.58 70.19 4.09 4.77 230.33-21.12 237.15-18.4 6.81 2.73 8.18 47.02 6.81 54.52-1.36 7.5-172.41 53.15-254.18 51.11q-81.78-2.04-264.15-157.42v-72.14q58.72-32.15 129.2-17.36 70.48 14.79 409.84 42.64z"/>
		</clipPath>
		<clipPath clipPathUnits="userSpaceOnUse" id="cp10">
			<path d="m2082.14 721.89q5.8-9.25 16.65-10.77 10.84-1.51 14.37 0 29.12 78.9 23.84 80.57c-5.28 1.67-17.24 1.95-20.85-1.39q-3.61-3.33-31.03-41.48 1.77-20.63-2.98-26.93z"/>
		</clipPath>
		<clipPath clipPathUnits="userSpaceOnUse" id="cp11">
			<path d="m2107.44 641.94q3.94-9.92 15.48-10.56c11.54-0.63 38.53 13.73 40.93 14.75 2.41 1.01 34.92 9.76 35.48 10.04q6.96 3.53 0.77 11.82l-90.53-1.07z"/>
		</clipPath>
	</defs>
	<style>
		tspan { white-space:pre } 
		.s0 { fill: #f6f9ff } 
		.s1 { fill: #d4dfff } 
		.s2 { fill: #1c056d } 
		.s3 { fill: #1b3d9e } 
		.s4 { fill: #6880e4 } 
		.s5 { opacity: .5;fill: #6880e4 } 
		.t6 { font-size: 472px;fill: #ffffff;font-weight: 400;font-family: "DoHyeon-Regular", "Do Hyeon" } 
		.s7 { opacity: .5;fill: #1b3d9e } 
		.s8 { fill: #fc476a } 
		.s9 { fill: #ffffff } 
		.s10 { fill: #d40221 } 
		.s11 { opacity: .2;fill: #6880e4 } 
		.s12 { fill: #fe8e9c } 
		.s13 { fill: #e57492 } 
	</style>
	<g id="Layer 1">
		<path id="&lt;Path&gt;" class="s0" d="m1031.6 1601.6c-108.8-32.3-213.5-74.2-304.1-132.1-391.7-249.9-305.6-828.6 1.7-1109.9 96.4-88.1 221.3-149.7 352.4-160.6 146.7-12.2 300.4 33.9 410.8 132.5 100.4 89.6 159.3 212.6 289.9 265.7 151.4 61.6 319.3 37.5 478 55.7 311.9 35.9 515.8 309.2 446.9 621.1-79.9 361.5-412.1 442-734.2 454.5-186.7 7.3-373.4-11.4-557.3-43.1-122.9-21.3-256.3-45.8-384.1-83.8z"/>
		<g id="&lt;Group&gt;">
			<g id="&lt;Group&gt;">
				<g id="&lt;Group&gt;">
					<path id="&lt;Path&gt;" class="s1" d="m669 1165.4c-16 14.1-39.7 18.5-59.7 11.3-20-7.3-35.3-26-38.6-47-3.8-24.7 6.8-54.4-10.7-72.3-8.8-8.9-22.7-12-30.2-22.2-6.2-8.5-6.3-19.8-6.2-30.4q0.3-28.1 0.6-56.1c-8.3-10.4-25.2-9.8-35.1-18.7-9.8-8.7-12-23-13.7-36.1-5.3-38.6-12.6-76.9-21.9-114.6 29.2 8.5 58.1 17.9 85.8 30.5 15.4 7.1 31.6 15.7 39.3 30.8 7.8 15.2 5.3 33.3 5.1 50.4-0.1 5.6 0.1 11.3 2.5 16.3 6 12.9 22.5 15.8 34.9 22.9 13.6 7.9 23.1 22.5 24.7 38.1 1.5 14.2-3.1 28.7-0.4 42.7 5.9 31 43.2 45.4 58 73.3 15.6 29.2-9.6 59.3-34.4 81.1z"/>
					<path id="&lt;Path&gt;" class="s2" d="m745.6 1443.1c-0.5 0-1-0.4-1-0.9-5.9-33.9-26.4-125.6-61.9-229.9-26.1-76.5-56.4-148.9-89.9-215-41.8-82.6-89-155.8-140.1-217.4-0.4-0.4-0.3-1.1 0.1-1.5 0.5-0.3 1.1-0.3 1.5 0.2 51.2 61.7 98.5 135 140.4 217.8 33.6 66.2 63.9 138.6 90 215.2 35.6 104.4 56.1 196.2 62 230.2 0.1 0.6-0.3 1.1-0.9 1.2q-0.1 0.1-0.2 0.1z"/>
				</g>
				<g id="&lt;Group&gt;">
					<path id="&lt;Path&gt;" class="s1" d="m277 1070.2c12.9 3.7 25.8 9.5 39.2 8 13.6-1.4 25.3-10.2 38.4-14.3 13.4-4.3 28.4-3.4 41.2 2.3 30.2 13.4 47.2 51.2 79.8 56.7 7.7 1.3 15.7 0.5 23.5 0.9 24.7 1.3 47.9 14.7 63.4 33.9 15.5 19.2 24 45.8 25.3 70.4-22.5 15-50.1 22.3-77.1 20.3-9.1-0.7-18.3-2.5-26.1-7.1-18.3-11-25.2-35.5-43.6-46.3-15.2-8.8-34.1-6.1-51.5-3.7-17.4 2.4-36.8 3.7-50.8-6.9-9-6.8-14.1-17.5-19.9-27.2-5.8-9.7-13.7-19.4-24.7-21.8-13.6-3.1-27.9 5.9-41.5 2.6-12.5-3-20.3-15.4-25.4-27.2-5.1-11.8-9.3-24.9-19.4-32.9 24.3-8.8 44.4-14.6 69.2-7.7z"/>
					<path id="&lt;Path&gt;" class="s2" d="m736.5 1434.3c-0.5 0-0.9-0.3-1.1-0.8-15.5-60.6-50.2-118.8-100.4-168.1-43.2-42.4-98.6-79.1-164.7-109.1-71.2-32.3-153.2-56.7-258.3-77-0.6-0.1-1-0.7-0.9-1.2 0.1-0.6 0.7-1 1.3-0.9 105.2 20.3 187.5 44.8 258.8 77.2 66.3 30.1 121.9 66.9 165.2 109.5 50.5 49.6 85.5 108.1 101.1 169.1 0.1 0.6-0.2 1.2-0.8 1.3q-0.1 0-0.2 0z"/>
				</g>
				<path id="&lt;Path&gt;" class="s1" d="m778.3 1076.8c-15.5 3-32.3-1.2-44.5-11.2-12.3-9.9-19.8-25.5-20.1-41.3-0.1-12 3.6-23.6 7.8-34.9 1.4-3.9 2.9-7.9 2.3-11.9-0.4-3.3-2-6.2-3.8-9-6.6-10.2-15.9-19.1-19.5-30.9-6.2-20.8 7.7-43.2 3.3-64.5-1.5-7.4-5.1-14.2-7.8-21.3-9.1-25-4.3-54.7 12.3-75.6 23.4 9.4 38.7 34.4 38.9 59.6 0.1 12.6-3.3 25.9 2 37.3 3.2 6.8 9.1 11.8 14.7 16.9 9.7 8.9 19 19.1 22.5 31.8 5.4 20-4.9 42 1.7 61.6 6.7 19.4 28.3 31 34.2 50.6 1.6 5.3 1.9 10.9 1.5 16.4-0.7 8.4-3.5 17.1-9.9 22.7-9.8 8.7-22.7 1.2-35.6 3.7z"/>
				<path id="&lt;Path&gt;" class="s2" d="m787.1 1439.6c-0.6 0-1-0.4-1.1-1-4.6-54-3.3-109.2-2.1-162.6 1.7-73.9 3.4-150.3-10.4-223.9-7.1-38.1-18.6-76-29.6-112.6-15.4-51-31.3-103.7-35.8-157.6-0.1-0.5 0.4-1.1 1-1.1 0.5 0 1.1 0.4 1.1 1 4.5 53.6 20.4 106.2 35.7 157.1 11.1 36.7 22.5 74.6 29.7 112.8 13.9 73.9 12.1 150.4 10.4 224.4-1.2 53.3-2.5 108.5 2.1 162.3 0.1 0.6-0.4 1.1-0.9 1.2q-0.1 0-0.1 0z"/>
			</g>
			<path id="&lt;Path&gt;" class="s3" d="m670.1 1779.3q-98.2-331.9-82.4-340.6 15.8-8.8 403.6-9.2-44.5 349.1-56.9 349.8c-12.3 0.8-231.6 1.6-264.3 0z"/>
			<g id="&lt;Clip Group&gt;" clip-path="url(#cp1)">
				<path id="&lt;Path&gt;" class="s2" d="m1016.2 1429.5q-32.5 185-32.4 188.9c0.1 3.8-318.5-61.9-324.9-65.8q-6.5-3.8 106.9-148.7z"/>
			</g>
		</g>
		<g id="&lt;Group&gt;">
			<g id="&lt;Group&gt;">
				<g id="&lt;Group&gt;">
					<path id="&lt;Path&gt;" class="s3" d="m1697.9 1730.1h-277.4v-235.8h277.4z"/>
					<rect id="&lt;Path&gt;" class="s2" x="1314.8" y="1730.1" width="495.4" height="50.1" rx="20.9"></rect>
				</g>
				<path id="&lt;Path&gt;" class="s4" d="m862.1 672.1c0.6-1.2 1.8-2 3.1-2 56-0.3 1341.2-8.9 1398.2 0 22.4 3.6 16.8 858.1 0 890.8-12.4 24-1384.1 2.9-1400.1 0-19.6-3.6-29.4-832.7-1.2-888.8z"/>
				<path id="&lt;Path&gt;" class="s1" d="m2219.6 705.4c15.4 0 11 727.6 0 737.6-11 10-1292.9 2-1310.5 0q-17.6-2-13.2-731.6 1308.3-6 1323.7-6z"/>
				<g id="&lt;Clip Group&gt;" clip-path="url(#cp2)">
					<path id="&lt;Path&gt;" class="s5" d="m1737.9 688.8l-498.2 773.5h-368.3l24.5-750.9z"/>
					<path id="&lt;Path&gt;" class="s5" d="m1353.4 1468.6l478.8-783.9h210.2l-461.4 779.8z"/>
					<path id="&lt;Path&gt;" class="s5" d="m2257 692.5l6.2 205.5-308.4 567.7-287.2 3.6 463.6-781.7z"/>
				</g>
			</g>
			<circle id="&lt;Path&gt;" class="s3" cx="1559.2" cy="1516.4" r="33.7"/>
			<g id="&lt;Group&gt;">
				<text id="404" style="transform: matrix(1,0,0,1,1165,1239)" >
					<tspan x="0" y="0" class="t6">4</tspan><tspan  y="0" class="t6">0</tspan><tspan  y="0" class="t6">4
</tspan>
				</text>
			</g>
			<g id="&lt;Group&gt;">
				<path id="&lt;Path&gt;" class="s7" d="m1160.5 1566.6l-132.6-372.8 33.7 5.4c1.9 0.3 3.5 1.6 4.1 3.4l132.7 364.3c0 0.1 0 0.2-0.1 0.2z"/>
				<g id="&lt;Group&gt;">
					<path id="&lt;Path&gt;" class="s8" d="m734.2 1582.4c5.6-1 280.7-391.5 293.7-388.6 13 2.9 164.2 461.7 158.5 460.8-5.6-0.9-466.1-69.7-452.2-72.2z"/>
					<g id="&lt;Group&gt;">
						<path id="&lt;Compound Path&gt;" class="s9" d="m985.1 1519.2q-3.2 2.9-6.5 3.8-3.3 0.8-6.3-0.1-3-0.9-5.5-3.4-2.4-2.5-3.7-6.5 2-24.6 3.1-50 1.1-25.4 2.7-50.5 1.7-25.1 4.8-49.4 3.1-24.3 9.2-46.8 0.5-1.8 3.4-3.3 2.9-1.4 7-2 4.1-0.6 8.9-0.5 4.9 0.1 9.4 1.2 4.5 1 7.9 3 3.5 2 5.1 5.3 2.6 3.5 3.1 12.3 0.5 8.7-0.4 21-0.9 12.4-3.3 27.4-2.3 15.1-5.6 30.9-3.3 15.9-7.2 31.8-3.9 16-8.2 30.2-4.4 14.2-8.8 25.8-4.4 11.7-8.5 18.9 0 0.2-0.6 0.9zm-28.4 62.3q-4.6-3.5-7.3-8-2.8-4.6-3.2-9.3-0.4-4.7 2-9.2 2.4-4.5 8-7.8 7.7-4.7 15.5-3.6 7.7 1.1 11.9 9.4 3.9 7.2 3.8 15.5-0.2 8.3-7.3 14.4-5.2 4.6-11.7 3.8-6.5-0.8-11.7-5.2z"/>
					</g>
				</g>
			</g>
		</g>
		<g id="&lt;Group&gt;">
			<rect id="&lt;Path&gt;" class="s3" x="2163.7" y="1365.7" width="357" height="413" rx="12.1"></rect>
			<g id="&lt;Clip Group&gt;" clip-path="url(#cp3)">
				<path id="&lt;Path&gt;" class="s2" d="m2539.6 1796.1h-401.8v-120.5q253.1-54.5 392.9-251.4 19.3 7.1 8.9 371.9z"/>
			</g>
			<path id="&lt;Path&gt;" class="s8" d="m2258 1365.7q-4.7-339.9 1.6-343.9c6.3-3.9 54.5-7.9 58.4 1.6q4 9.5 0 342.3z"/>
			<g id="&lt;Clip Group&gt;" clip-path="url(#cp4)">
				<path id="&lt;Path&gt;" class="s10" d="m2299.3 1070.3v302.1h-22.5v-301.5z"/>
				<path id="&lt;Path&gt;" class="s1" d="m2250.1 1017.5c1.5-7.7 68.4-7.4 72.3-5.9q3.9 1.5 4.4 71.3-9.8-4.8-79.8 0.5 1.7-58.1 3.1-65.9z"/>
			</g>
			<path id="&lt;Path&gt;" class="s1" d="m2492.8 1365.7h-139.4v-490.6c0-2.1 1.6-3.8 3.7-3.8h132c2.1 0 3.7 1.7 3.7 3.8z"/>
			<g id="&lt;Clip Group&gt;" clip-path="url(#cp5)">
				<path id="&lt;Path&gt;" class="s5" d="m2390 1383.7h-47.8v-530.4h47.8z"/>
				<path id="&lt;Path&gt;" class="s4" d="m2370.9 915.4h-17.5v-6.1h17.5z"/>
				<path id="&lt;Path&gt;" class="s4" d="m2370.9 943.6h-17.5v-6.2h17.5z"/>
				<path id="&lt;Path&gt;" class="s4" d="m2370.9 971.7h-17.5v-6.1h17.5z"/>
				<path id="&lt;Path&gt;" class="s4" d="m2370.9 999.9h-17.5v-6.1h17.5z"/>
				<path id="&lt;Path&gt;" class="s4" d="m2370.9 1028.1h-17.5v-6.1h17.5z"/>
				<path id="&lt;Path&gt;" class="s4" d="m2370.9 1056.3h-17.5v-6.1h17.5z"/>
				<path id="&lt;Path&gt;" class="s4" d="m2370.9 1084.5h-17.5v-6.1h17.5z"/>
				<path id="&lt;Path&gt;" class="s4" d="m2370.9 1112.7h-17.5v-6.2h17.5z"/>
				<path id="&lt;Path&gt;" class="s4" d="m2370.9 1140.8h-17.5v-6.1h17.5z"/>
				<path id="&lt;Path&gt;" class="s4" d="m2370.9 1169h-17.5v-6.1h17.5z"/>
				<path id="&lt;Path&gt;" class="s4" d="m2370.9 1197.2h-17.5v-6.1h17.5z"/>
				<path id="&lt;Path&gt;" class="s4" d="m2370.9 1225.4h-17.5v-6.1h17.5z"/>
				<path id="&lt;Path&gt;" class="s4" d="m2370.9 1253.6h-17.5v-6.1h17.5z"/>
				<path id="&lt;Path&gt;" class="s4" d="m2370.9 1281.8h-17.5v-6.2h17.5z"/>
				<path id="&lt;Path&gt;" class="s4" d="m2370.9 1309.9h-17.5v-6.1h17.5z"/>
				<path id="&lt;Path&gt;" class="s4" d="m2370.9 1338.1h-17.5v-6.1h17.5z"/>
				<path id="&lt;Path&gt;" class="s11" d="m2526 850.5l-11.2-0.2 0.1 560.3h-90.7c-0.4 0 0.5-1.6 0.1-1.6-1.7-36.3 26.5-67.9 30.2-104.1 3.8-37.8-19.4-73.2-22.1-111-1.6-23.1 4.5-46.1 12.5-67.9 8.1-22.1 18.4-44.8 15.4-68.1-3.1-24-19.8-43.9-29.5-66.1-20.4-46.7-6.8-106 31.9-139.1z"/>
			</g>
		</g>
		<path id="&lt;Path&gt;" class="s2" d="m2763.8 1784.5h-2289.5c-2.3 0-4.2-1.9-4.2-4.3 0-2.3 1.9-4.2 4.2-4.2h2289.5c2.4 0 4.3 1.9 4.3 4.2 0 2.4-1.9 4.3-4.3 4.3z"/>
		<g id="&lt;Group&gt;">
			<g id="&lt;Group&gt;">
				<path id="&lt;Path&gt;" class="s12" d="m1172.4 668.3h-34.7q-0.1 0-0.1 0.1c-11.4 10.1-42.6 14.8-63.2 14.5-20.5-0.4-68.1-17.3-73.8-33.7-6.6-18.6 8.6-46.3 35.1-49.1 26.3-2.7 54.6 6.1 83.7 19.8l53-6.9z"/>
				<g id="&lt;Clip Group&gt;" clip-path="url(#cp6)">
					<path id="&lt;Path&gt;" class="s13" d="m1027.5 677.6q-5.1 9.9 0 0 5-9.8-0.7-65.7l17.5-0.9q21 23.9 21.4 39.2 0.5 15.2-9.7 35.2z"/>
				</g>
				<path id="&lt;Path&gt;" class="s13" d="m1137.6 668.4q10.5-16.2-13.9-32.4 21.8 3.5 29.2 18 7.5 14.5 6 14.7z"/>
			</g>
			<path id="&lt;Path&gt;" class="s3" d="m1119.4 619.9q-16.9 1.5-20.2 1.6-11.9 0.3-23.8 0.9-7.4-24-18.3-19.1-16 7.2 2.2 18.5-28.4-4.8-31.2-4.9c-2.7-0.2 21.3 50.6-4.4 66-25.6 15.4-54.2 7.3-57.8-32.7-3.6-40 37.4-78.3 75.1-77q37.7 1.3 78.4 46.7z"/>
			<g id="&lt;Clip Group&gt;" clip-path="url(#cp7)">
				<path id="&lt;Path&gt;" class="s2" d="m1001.9 690.2q19.6-16.4 18.6-34.5c-1-18.1-6.8-46.4-3.9-48.3q2.8-1.9 32.9 10.1-5.5-8.1 4.1-12.2 9.7-4.2 0 0 15.3 16.7 14.3 18.5-1.1 1.7-36.3-1.8 13.8 33.9 4 53.9-9.9 20-33.7 14.3z"/>
			</g>
			<path id="&lt;Path&gt;" class="s0" d="m1118.3 668.7q-8.1-2.3-8.1-16.3 0-14.1 0-1.5 8.3 15 8.1 17.8z"/>
			<path id="&lt;Path&gt;" class="s13" d="m1052.5 651.6q32.3 17.5 35.3 15.7 3.1-1.9-2.4-21.6 3.5-0.2 4.3 2.9c0.8 3.2 5.4 21.7 0 22.1-5.4 0.3-31.9-12.8-37.2-19.1z"/>
			<path id="&lt;Path&gt;" class="s12" d="m1271.7 988.6q11.4 34.6 11.6 40.8c0.2 6.2-2.8 12.7-5.2 17-2.3 4.4-5.3 7.7-7.1 7.4-2.3-0.5 2.7-12.7 3.3-14.8q0.6-2.1-2.1-18.3 0.2 13.8-0.3 14.9c-0.5 1.1-11.3 22.8-14.4 26.8-3.2 4-5.6 1-6.2 1-0.6 0 11.1-29.5 10.5-27.2-0.6 2.3-18.4 30.7-20.4 33.3-2.1 2.6-7.2 0-8-0.4-0.8-0.3 19.2-40.3 18-37.5-1.2 2.8-10.8 20.5-14.8 27.3-4.1 6.8-9.3 3.7-10.5 2.8-1.2-0.9 12.6-28.2 13.3-29.9q0.8-1.7 0.4-25.6l-6.5 22.3c-1.2 3.5-7 3.8-7.6 3.9-0.5 0.1 0.3-26.3 2.9-31.5q2.6-5.3 10.5-16z"/>
			<g id="&lt;Clip Group&gt;" clip-path="url(#cp8)">
				<path id="&lt;Path&gt;" class="s13" d="m1236.1 982c4.3-2.1 32.7-2.1 36.3-0.3q3.6 1.8 8 21.9c-33-5.2-57.3 8.3-57.7 6.5-2.3-8.3 9.1-26.1 13.4-28.1z"/>
			</g>
			<g id="&lt;Group&gt;">
				<path id="&lt;Path&gt;" class="s8" d="m1535.6 666.9l-226.6 0.9c10.8 48.9 15.2 146.3 16.7 160.5 2 18.5-27.4 171.6-33.3 172.5-5.9 1-69.6-6.8-72.5-8.7-2.9-1.8 25.4-140.8 21-163.9-3.6-18.9-39.1-123.5-51.6-159.9h-16.9v-61.9q43.5-63.9 187.7-51.5l171.9 30.9c2.1 0.4 3.6 2.2 3.6 4.3z"/>
				<path id="&lt;Path&gt;" class="s10" d="m1309 667.8q-4.3-22.7-23.4-38.5 101.9 20.4 131.5 22.3 29.6 2 118.5-5.8v21.1z"/>
			</g>
			<path id="&lt;Path&gt;" class="s13" d="m2046.7 729q35.9-8.5 36.8-6.9c0.9 1.6 5.9 18.1 4 24q-1.9 6-37.2 18.8z"/>
			<g id="&lt;Group&gt;">
				<path id="&lt;Path&gt;" class="s3" d="m2074.7 666.9h-339.3c33.6 28.6 71.9 67.1 74.6 70.2 4.1 4.7 230.3-21.2 237.1-18.4 6.9 2.7 8.2 47 6.9 54.5-1.4 7.5-172.5 53.1-254.2 51.1q-81.8-2-264.2-157.4v-72.2q58.7-32.1 129.2-17.3 70.5 14.8 409.9 42.6z"/>
				<g id="&lt;Clip Group&gt;" clip-path="url(#cp9)">
					<path id="&lt;Compound Path&gt;" class="s2" d="m1816.4 783.4q-1.8 0-2.9-0.2-0.3 0-0.6-0.1c-0.8-0.1-1.4-0.9-1.3-1.8 0.2-0.9 1-1.5 1.9-1.3q0.2 0 0.4 0.1c1 0.1 2.6 0.1 4.6 0 0.8 0 1.6 0.7 1.6 1.6 0 0.9-0.7 1.6-1.5 1.6q-1.2 0.1-2.2 0.1zm7.4-0.4c-0.8 0-1.5-0.6-1.5-1.4-0.1-0.9 0.6-1.7 1.4-1.8q2.5-0.1 5.3-0.4c0.9-0.1 1.7 0.6 1.7 1.5 0.1 0.8-0.5 1.6-1.4 1.7q-2.9 0.3-5.3 0.4-0.1 0-0.2 0zm10.7-0.9c-0.8 0-1.5-0.6-1.6-1.4-0.1-0.9 0.5-1.7 1.4-1.8q2.5-0.2 5.3-0.5c0.9-0.1 1.7 0.5 1.8 1.4 0.1 0.8-0.6 1.6-1.5 1.7q-2.7 0.3-5.3 0.6 0 0-0.1 0zm-26.3-0.6q-0.4 0-0.7-0.1-2.1-0.9-4.9-2.3c-0.8-0.4-1.1-1.4-0.7-2.2 0.4-0.8 1.3-1.1 2.1-0.7q2.7 1.4 4.8 2.2c0.8 0.4 1.2 1.3 0.8 2.1-0.2 0.6-0.8 1-1.4 1zm36.9-0.6c-0.8 0-1.5-0.6-1.6-1.4-0.1-0.8 0.5-1.6 1.4-1.7q2.6-0.3 5.3-0.7c0.8-0.1 1.6 0.6 1.7 1.4 0.1 0.9-0.5 1.7-1.4 1.8q-2.7 0.3-5.3 0.6 0 0-0.1 0zm10.5-1.2c-0.8 0-1.4-0.6-1.5-1.4-0.1-0.9 0.5-1.7 1.3-1.8q2.6-0.3 5.3-0.7c0.9-0.1 1.7 0.5 1.8 1.4 0.1 0.9-0.5 1.7-1.4 1.8q-2.7 0.3-5.3 0.7-0.1 0-0.2 0zm10.6-1.4c-0.8 0-1.5-0.5-1.6-1.4-0.1-0.8 0.5-1.6 1.4-1.7q2.6-0.4 5.3-0.7c0.9-0.1 1.7 0.5 1.8 1.3 0.1 0.9-0.5 1.7-1.4 1.8q-2.7 0.4-5.3 0.7-0.1 0-0.2 0zm10.6-1.4c-0.8 0-1.5-0.5-1.6-1.3-0.1-0.9 0.5-1.7 1.4-1.8l5.2-0.7c0.9-0.2 1.7 0.4 1.8 1.3 0.1 0.9-0.5 1.7-1.3 1.8l-5.3 0.7q-0.1 0-0.2 0zm-78.2-0.1q-0.4 0-0.8-0.2-2.2-1.2-4.7-2.6c-0.7-0.5-1-1.4-0.5-2.2 0.4-0.8 1.4-1 2.1-0.6q2.5 1.4 4.7 2.6c0.7 0.4 1 1.4 0.6 2.1-0.3 0.6-0.8 0.9-1.4 0.9zm88.7-1.3c-0.8 0-1.5-0.6-1.6-1.4-0.1-0.8 0.5-1.7 1.4-1.8l5.3-0.7c0.8-0.1 1.6 0.5 1.8 1.4 0.1 0.8-0.5 1.6-1.4 1.8l-5.3 0.7q-0.1 0-0.2 0zm10.6-1.5c-0.8 0-1.5-0.5-1.6-1.3-0.1-0.9 0.5-1.7 1.3-1.8l5.3-0.8c0.9-0.1 1.7 0.5 1.8 1.4 0.1 0.8-0.5 1.6-1.4 1.8l-5.2 0.7q-0.1 0-0.2 0zm10.5-1.5c-0.8 0-1.5-0.5-1.6-1.3-0.1-0.9 0.5-1.7 1.4-1.8l5.2-0.8c0.9-0.1 1.7 0.5 1.8 1.4 0.2 0.8-0.4 1.6-1.3 1.8l-5.3 0.7q-0.1 0-0.2 0zm-119.1-1q-0.4 0-0.8-0.2-2.2-1.3-4.6-2.8c-0.7-0.4-1-1.4-0.5-2.1 0.4-0.8 1.4-1 2.2-0.6q2.3 1.4 4.5 2.7c0.8 0.5 1 1.5 0.6 2.2-0.3 0.5-0.8 0.8-1.4 0.8zm129.6-0.5c-0.8 0-1.4-0.6-1.6-1.4-0.1-0.8 0.5-1.6 1.4-1.8l5.3-0.7c0.8-0.2 1.6 0.4 1.8 1.3 0.1 0.9-0.5 1.7-1.4 1.8l-5.2 0.8q-0.2 0-0.3 0zm10.6-1.5c-0.8 0-1.5-0.6-1.6-1.4-0.2-0.9 0.5-1.7 1.3-1.8l5.3-0.8c0.9-0.1 1.7 0.5 1.8 1.4 0.1 0.8-0.5 1.6-1.3 1.8l-5.3 0.8q-0.1 0-0.2 0zm10.5-1.6c-0.8 0-1.5-0.6-1.6-1.4-0.1-0.8 0.5-1.6 1.4-1.8l5.2-0.8c0.9-0.1 1.7 0.5 1.8 1.4 0.2 0.9-0.4 1.7-1.3 1.8l-5.3 0.8q-0.1 0-0.2 0zm10.5-1.6c-0.8 0-1.4-0.5-1.6-1.3-0.1-0.9 0.5-1.7 1.4-1.8l5.2-0.8c0.9-0.2 1.7 0.4 1.9 1.3 0.1 0.9-0.5 1.7-1.4 1.8l-5.2 0.8q-0.2 0-0.3 0zm-170.3-0.3q-0.4 0-0.8-0.2-2.3-1.4-4.6-2.9c-0.7-0.4-0.9-1.4-0.5-2.1 0.5-0.8 1.5-1 2.2-0.6q2.3 1.5 4.5 2.8c0.8 0.5 1 1.5 0.6 2.2-0.3 0.5-0.9 0.8-1.4 0.8zm180.8-1.3c-0.7 0-1.4-0.5-1.5-1.3-0.2-0.9 0.4-1.7 1.3-1.8l5.3-0.8c0.8-0.2 1.7 0.4 1.8 1.3 0.1 0.9-0.5 1.7-1.3 1.8l-5.3 0.8q-0.1 0-0.3 0zm10.6-1.6c-0.8 0-1.5-0.5-1.6-1.3-0.1-0.9 0.5-1.7 1.3-1.8l5.3-0.8c0.9-0.2 1.7 0.4 1.8 1.3 0.1 0.9-0.5 1.7-1.3 1.8l-5.3 0.8q-0.1 0-0.2 0zm10.5-1.6c-0.8 0-1.5-0.5-1.6-1.3-0.1-0.9 0.5-1.7 1.4-1.8l5.2-0.9c0.9-0.1 1.7 0.5 1.8 1.4 0.2 0.8-0.4 1.7-1.3 1.8l-5.3 0.8q-0.1 0-0.2 0zm-210.9-1.1q-0.5 0-0.9-0.3-2.2-1.4-4.5-2.9c-0.7-0.4-0.9-1.4-0.5-2.2 0.5-0.7 1.5-0.9 2.2-0.4q2.3 1.4 4.5 2.8c0.8 0.5 1 1.5 0.5 2.2-0.3 0.5-0.8 0.8-1.3 0.8zm221.4-0.5c-0.8 0-1.4-0.6-1.6-1.4-0.1-0.8 0.5-1.6 1.4-1.8l5.2-0.8c0.9-0.1 1.7 0.5 1.8 1.3 0.2 0.9-0.4 1.7-1.3 1.9l-5.2 0.8q-0.2 0-0.3 0zm10.5-1.6c-0.7 0-1.4-0.6-1.5-1.4-0.2-0.9 0.4-1.7 1.3-1.8l5.2-0.8c0.9-0.2 1.7 0.4 1.9 1.3 0.1 0.9-0.5 1.7-1.4 1.8l-5.2 0.8q-0.1 0.1-0.3 0.1zm10.6-1.7c-0.8 0-1.5-0.5-1.6-1.3-0.2-0.9 0.4-1.7 1.3-1.9l5.3-0.8c0.8-0.1 1.7 0.5 1.8 1.3 0.1 0.9-0.5 1.7-1.3 1.9l-5.3 0.8q-0.1 0-0.2 0zm10.5-1.6c-0.8 0-1.5-0.6-1.6-1.4-0.1-0.9 0.5-1.7 1.3-1.8l5.3-0.8c0.8-0.2 1.7 0.4 1.8 1.3 0.1 0.9-0.4 1.7-1.3 1.8l-5.3 0.8q-0.1 0.1-0.2 0.1zm-262-0.4q-0.5 0-0.9-0.2-2.2-1.5-4.4-2.9c-0.8-0.5-1-1.5-0.5-2.2 0.5-0.8 1.5-1 2.2-0.5q2.3 1.5 4.5 2.9c0.7 0.5 0.9 1.4 0.4 2.2-0.3 0.5-0.8 0.7-1.3 0.7zm272.5-1.3c-0.8 0-1.5-0.6-1.6-1.4-0.1-0.8 0.5-1.6 1.3-1.8l5.3-0.8c0.9-0.2 1.7 0.4 1.8 1.3 0.2 0.9-0.4 1.7-1.3 1.8l-5.3 0.9q-0.1 0-0.2 0zm10.5-1.7c-0.7 0-1.4-0.5-1.5-1.3-0.2-0.9 0.4-1.7 1.3-1.9l5.2-0.8c0.9-0.1 1.7 0.5 1.9 1.3 0.1 0.9-0.5 1.7-1.3 1.8l-5.3 0.9q-0.1 0-0.3 0zm10.6-1.7c-0.8 0-1.5-0.5-1.6-1.3-0.1-0.9 0.5-1.7 1.3-1.9l5.3-0.8c0.9-0.1 1.7 0.4 1.9 1.3 0.1 0.9-0.5 1.7-1.3 1.8l-5.4 0.9q-0.1 0-0.2 0zm-302.5-1.1q-0.5 0-0.9-0.3-2.2-1.4-4.4-2.9c-0.8-0.5-1-1.5-0.5-2.2 0.5-0.7 1.5-0.9 2.2-0.4q2.3 1.4 4.5 2.9c0.7 0.5 0.9 1.4 0.4 2.2-0.3 0.5-0.8 0.7-1.3 0.7zm-8.9-5.9q-0.5 0-0.9-0.2-2.2-1.5-4.4-3c-0.8-0.5-0.9-1.5-0.5-2.2 0.5-0.7 1.5-0.9 2.3-0.4q2.2 1.5 4.4 2.9c0.7 0.5 0.9 1.5 0.4 2.2-0.3 0.5-0.8 0.7-1.3 0.7zm-8.9-5.9q-0.4 0-0.8-0.2l-4.5-3c-0.7-0.5-0.9-1.5-0.4-2.2 0.5-0.8 1.5-1 2.2-0.5l4.4 3c0.8 0.5 1 1.5 0.5 2.2-0.3 0.5-0.8 0.7-1.4 0.7zm-8.8-5.9q-0.5 0-0.9-0.3l-4.4-3c-0.7-0.5-0.9-1.5-0.4-2.2 0.5-0.7 1.5-0.9 2.2-0.4l4.4 3c0.7 0.5 0.9 1.4 0.4 2.2-0.3 0.4-0.8 0.7-1.3 0.7zm-8.8-6q-0.5 0-0.9-0.3l-4.4-3c-0.7-0.5-0.9-1.5-0.4-2.2 0.5-0.7 1.5-0.9 2.2-0.4l4.4 3c0.7 0.5 0.9 1.5 0.4 2.2-0.3 0.5-0.8 0.7-1.3 0.7zm-8.8-6q-0.4 0-0.9-0.3l-4.4-3c-0.7-0.5-0.9-1.5-0.4-2.2 0.5-0.7 1.5-0.9 2.2-0.4l4.4 3c0.8 0.5 1 1.5 0.5 2.2-0.4 0.5-0.9 0.7-1.4 0.7zm-8.7-6q-0.5 0-0.9-0.3l-4.4-3.1c-0.8-0.5-0.9-1.4-0.4-2.2 0.5-0.7 1.5-0.9 2.2-0.4l4.4 3c0.7 0.5 0.9 1.5 0.4 2.3-0.3 0.4-0.8 0.7-1.3 0.7zm-8.8-6.1q-0.5 0-0.9-0.3l-4.4-3c-0.7-0.5-0.9-1.5-0.4-2.2 0.5-0.8 1.5-0.9 2.2-0.4l4.4 3c0.7 0.5 0.9 1.5 0.4 2.2-0.3 0.5-0.8 0.7-1.3 0.7zm-8.7-6.1q-0.5 0-0.9-0.3l-4.4-3c-0.7-0.5-0.9-1.5-0.4-2.2 0.5-0.7 1.5-0.9 2.2-0.4l4.4 3c0.7 0.5 0.9 1.5 0.4 2.2-0.3 0.5-0.8 0.7-1.3 0.7zm-8.8-6.1q-0.5 0-0.9-0.2l-4.3-3.1c-0.7-0.5-0.9-1.5-0.4-2.2 0.5-0.7 1.5-0.9 2.2-0.4l4.3 3c0.8 0.5 0.9 1.5 0.4 2.3-0.3 0.4-0.8 0.6-1.3 0.6zm-8.7-6.1q-0.5 0-0.9-0.2l-4.4-3.1c-0.7-0.5-0.9-1.5-0.3-2.2 0.5-0.7 1.5-0.9 2.2-0.4l4.3 3c0.7 0.5 0.9 1.5 0.4 2.3-0.3 0.4-0.8 0.6-1.3 0.6zm-8.7-6.1q-0.5 0-0.9-0.3l-4.4-3c-0.7-0.5-0.9-1.5-0.4-2.3 0.6-0.7 1.5-0.8 2.3-0.3l4.3 3c0.7 0.5 0.9 1.5 0.4 2.2-0.3 0.5-0.8 0.7-1.3 0.7zm-8.7-6.1q-0.5 0-0.9-0.3l-4.4-3.1c-0.7-0.5-0.9-1.5-0.4-2.2 0.6-0.7 1.5-0.9 2.3-0.4l4.3 3.1c0.7 0.5 0.9 1.5 0.4 2.2-0.3 0.5-0.8 0.7-1.3 0.7zm-8.7-6.1q-0.5 0-0.9-0.3l-4.4-3.1c-0.7-0.5-0.9-1.5-0.4-2.2 0.6-0.8 1.6-0.9 2.3-0.4l4.3 3.1c0.7 0.5 0.9 1.5 0.4 2.2-0.3 0.4-0.8 0.7-1.3 0.7zm-8.7-6.2q-0.5 0-0.9-0.3l-4.4-3.1c-0.7-0.5-0.9-1.5-0.3-2.2 0.5-0.7 1.5-0.9 2.2-0.4l4.3 3.1c0.7 0.5 0.9 1.5 0.4 2.2-0.3 0.5-0.8 0.7-1.3 0.7zm-8.7-6.2q-0.5 0.1-0.9-0.2l-4.4-3.1c-0.7-0.5-0.9-1.5-0.3-2.2 0.5-0.8 1.5-0.9 2.2-0.4l4.3 3.1c0.7 0.5 0.9 1.5 0.4 2.2-0.3 0.4-0.8 0.6-1.3 0.6zm-8.7-6.1q-0.5 0-0.9-0.3l-4.4-3.1c-0.7-0.5-0.9-1.5-0.4-2.2 0.5-0.7 1.5-0.9 2.3-0.4l4.3 3.1c0.7 0.5 0.9 1.5 0.4 2.2-0.3 0.5-0.8 0.7-1.3 0.7zm-8.7-6.2q-0.5 0-1-0.2c-2-1.4-3.4-2.5-4.3-3.1-0.8-0.4-1-1.4-0.5-2.2 0.5-0.7 1.5-0.9 2.2-0.4 0.9 0.6 2.4 1.6 4.5 3 0.7 0.5 0.9 1.5 0.4 2.3-0.3 0.4-0.8 0.6-1.3 0.6z"/>
					<path id="&lt;Path&gt;" class="s2" d="m1547.6 585.3q3 95.2 1.5 96.7-1.5 1.5-18.3-10.8-2-76-0.4-80.7 1.6-4.7 17.2-5.2z"/>
					<path id="&lt;Path&gt;" class="s2" d="m1735.4 666.9q-72.9-60.1-84.2-63 73.7 16.7 130.7 32.9 57 16.2 298.5 12.9v24.1z"/>
				</g>
			</g>
			<path id="&lt;Path&gt;" class="s3" d="m2082.1 721.9q5.8-9.3 16.7-10.8 10.8-1.5 14.4 0 29.1 78.9 23.8 80.6c-5.3 1.7-17.2 1.9-20.8-1.4q-3.7-3.3-31.1-41.5 1.8-20.6-3-26.9z"/>
			<g id="&lt;Clip Group&gt;" clip-path="url(#cp10)">
				<path id="&lt;Path&gt;" class="s2" d="m2090.3 759.3q7.8-8.8 11.5-8.6c2.3 0.1 3.3 1.7 3.7 2.9 0.3 0.7 0.1 1.6-0.4 2.2-2.2 2.4-8.5 9.5-9.9 9.1q-1.6-0.4-4.9-5.6z"/>
				<path id="&lt;Path&gt;" class="s2" d="m2098.1 770.8q7.8-8.9 11.5-8.7c2.3 0.2 3.3 1.7 3.7 2.9 0.3 0.8 0.1 1.6-0.4 2.2-2.2 2.5-8.5 9.5-9.9 9.2q-1.7-0.5-4.9-5.6z"/>
				<path id="&lt;Path&gt;" class="s2" d="m2116.3 709.2c2.8 0.4 25.2 80 25.2 82.3q0 2.3-9.1 2.9 0.2-3.5-27.1-85.2 8.1-0.4 11 0z"/>
			</g>
			<g id="&lt;Group&gt;">
				<path id="&lt;Path&gt;" class="s13" d="m2074.7 636.3q33.5 4.6 34.1 6.3 0.6 1.7 0.8 24.3l-34.9 0.1z"/>
				<path id="&lt;Path&gt;" class="s3" d="m2107.4 641.9q4-9.9 15.5-10.5c11.6-0.7 38.5 13.7 41 14.7 2.4 1 34.9 9.8 35.4 10.1q7 3.5 0.8 11.8l-90.5-1.1z"/>
				<g id="&lt;Clip Group&gt;" clip-path="url(#cp11)">
					<path id="&lt;Path&gt;" class="s2" d="m2123.7 629.2c2.7-0.4 35.9 13 38.6 14.5 2.8 1.5 37.2 9.7 40.3 11.6q3.2 1.8 1.3 6.7-35.6-9.6-41.4-10.4c-5.8-0.7-44.7-19.2-45.8-20.2q4.2-1.7 7-2.2z"/>
					<path id="&lt;Path&gt;" class="s2" d="m2126.5 668.8c0.7-2.6 3.3-15 5.2-15.4 1.9-0.5 6.6 0.8 6.5 1.5-0.1 0.7-1.1 14.3-4.3 14.3q-3.1 0-7.4-0.4z"/>
					<path id="&lt;Path&gt;" class="s2" d="m2144.9 672.3c0.8-2.5 3.3-14.9 5.2-15.4 2-0.4 6.7 0.9 6.5 1.6-0.1 0.7-1.1 14.3-4.2 14.3q-3.2 0-7.5-0.5z"/>
				</g>
			</g>
		</g>
	</g>
</svg>