<svg version="1.2" xmlns="http://www.w3.org/2000/svg" viewBox="0 0 1000 1000" width="1000" height="1000">
	<title>New Project</title>
	<style>
		.s0 { fill: #4bbcac } 
		.s1 { fill: #d7fff9 } 
		.s2 { fill: #585c89 } 
		.s3 { fill: #3e4056 } 
		.s4 { fill: #ffe266 } 
		.s5 { fill: #ffffff } 
	</style>
	<g id="&lt;Group&gt;">
		<g id="&lt;Group&gt;" style="opacity: .6">
			<path id="&lt;Path&gt;" class="s0" d="m800.4 296.6c0 0-316.9 187-216.5 512.2l-157.5-1c0 0-106.6-140.5-93.5-402.9 13.1-262.5 241.4-395.9 241.4-395.9z"/>
		</g>
		<g id="&lt;Group&gt;" style="opacity: .6">
			<path id="&lt;Path&gt;" class="s1" d="m610.4 808.6q0 0.1 0 0.2l-184-1c0 0-106.6-140.5-93.5-402.9 13.1-262.5 241.4-395.9 241.4-395.9l7.4 18.7c-55.4 49.9-208.7 166.5-219.3 377.2-13.1 262.4 93.5 402.9 93.5 402.9z"/>
		</g>
		<g id="&lt;Group&gt;">
			<path id="&lt;Path&gt;" class="s2" d="m361.3 801.8h285.6c9.7 0 17.6 8.4 17.6 18.8v130c0 10.4-7.9 18.8-17.6 18.8h-285.6c-9.7 0-17.6-8.4-17.6-18.8v-130c0-10.4 7.9-18.8 17.6-18.8z"/>
		</g>
		<g id="&lt;Group&gt;">
			<path id="&lt;Path&gt;" class="s3" d="m339.3 944.5h329.6c11.1 0 20.2 2.3 20.2 5.1v35.8c0 2.8-9.1 5.2-20.2 5.2h-329.6c-11.1 0-20.2-2.4-20.2-5.2v-35.8c0-2.8 9.1-5.1 20.2-5.1z"/>
		</g>
		<g id="&lt;Group&gt;">
			<g id="&lt;Group&gt;">
				<path id="&lt;Path&gt;" class="s4" d="m408.5 843.6h187.6c4.4 0 8 2.7 8 6v48.1c0 3.3-3.6 5.9-8 5.9h-187.6c-4.4 0-8-2.6-8-5.9v-48.1c0-3.3 3.6-6 8-6z"/>
			</g>
			<g id="&lt;Group&gt;" style="opacity: .3">
				<path id="&lt;Path&gt;" class="s5" d="m434.4 843.6h64.5c1.5 0 2.7 2.7 2.7 6v48.1c0 3.3-1.2 5.9-2.7 5.9h-64.5c-1.6 0-2.8-2.6-2.8-5.9v-48.1c0-3.3 1.2-6 2.8-6z"/>
			</g>
		</g>
		<g id="&lt;Group&gt;" style="opacity: .3">
			<path id="&lt;Path&gt;" class="s5" d="m781.2 272.1c-124.5 29.6-244.5 77.7-354.8 142.5 17.3 16.4 151.1-48.8 138-2.9-13.2 46.4-120.1 87.8-227.5 130-4.6-41.1-6.5-86.7-4-136.8 0.6-11.4 1.6-22.4 2.9-33.3 73.8-37.7 149.7-71.3 227.2-100.8 19.5-7.5 43.1-20.7 40.4-41.5-20.6-16.4-61.1-5.2-69.4-30.2-5.8-17.6 12.5-33.1 28.6-42.1 24.3-13.5 56.1-31.8 90.3-48z"/>
		</g>
	</g>
</svg>