<svg version="1.2" xmlns="http://www.w3.org/2000/svg" viewBox="0 0 1000 1000" width="1000" height="1000">
	<title>New Project</title>
	<style>
		.s0 { fill: #ffe266 } 
		.s1 { fill: #ffd733 } 
		.s2 { fill: #fffffd } 
		.s3 { fill: #6168ba } 
		.s4 { fill: #fbaa28 } 
		.s5 { fill: #ffffff } 
		.s6 { fill: #363960 } 
		.s7 { opacity: .5;fill: #fffffd } 
	</style>
	<g id="&lt;Group&gt;">
		<path id="&lt;Path&gt;" class="s0" d="m489.6 500.5h27.4v191.8h-27.4z"/>
		<g id="&lt;Group&gt;">
			<path id="&lt;Path&gt;" class="s1" d="m363.8 776.7c0-52.8 42.8-95.6 95.7-95.6h87.6c52.9 0 95.7 42.8 95.7 95.6z"/>
		</g>
		<g id="&lt;Group&gt;" style="opacity: .5">
			<path id="&lt;Path&gt;" class="s2" d="m547.1 681.1c14.6 0 28.3 3.2 40.7 9 5.8 12.4 9 26.1 9 40.7h-221.2c16.2-29.6 47.7-49.7 83.9-49.7z"/>
		</g>
		<g id="&lt;Group&gt;">
			<path id="&lt;Path&gt;" class="s1" d="m504.5 108l85.1 172.5 190.4 27.7-137.7 134.2 32.5 189.6-170.3-89.5-170.3 89.5 32.6-189.6-137.8-134.2 190.4-27.7z"/>
		</g>
		<path id="&lt;Path&gt;" class="s0" d="m674.8 632l-170.3-89.5v-434.5l85.1 172.5 190.4 27.7-137.7 134.2z"/>
		<path id="&lt;Path&gt;" class="s1" d="m674.8 632l-174.2-235.6 141.7 46z"/>
		<path id="&lt;Path&gt;" class="s1" d="m780 308.2l-279.4 88.2 89-115.9z"/>
		<g id="&lt;Group&gt;" style="opacity: .5">
			<path id="&lt;Path&gt;" class="s2" d="m229 308.2l190.4-27.7 81.2 115.9z"/>
		</g>
		<g id="&lt;Group&gt;" style="opacity: .5">
			<path id="&lt;Path&gt;" class="s2" d="m334.2 632l32.6-189.6 133.8-46z"/>
		</g>
		<g id="&lt;Group&gt;">
			<path id="&lt;Path&gt;" class="s3" d="m350.9 764.1h304.8c10.4 0 18.7 10.1 18.7 22.5v155c0 12.5-8.3 22.5-18.7 22.5h-304.8c-10.4 0-18.7-10-18.7-22.5v-155c0-12.4 8.3-22.5 18.7-22.5z"/>
		</g>
		<g id="&lt;Group&gt;">
			<path id="&lt;Path&gt;" class="s4" d="m403.8 805.2h200.2c4.7 0 8.6 6.1 8.6 13.6v110.7c0 7.5-3.9 13.6-8.6 13.6h-200.2c-4.7 0-8.5-6.1-8.5-13.6v-110.7c0-7.5 3.8-13.6 8.5-13.6z"/>
		</g>
		<path id="&lt;Path&gt;" class="s1" d="m431.4 805.2h68.9c1.6 0 2.9 6.1 2.9 13.6v110.7c0 7.5-1.3 13.6-2.9 13.6h-68.9c-1.6 0-2.9-6.1-2.9-13.6v-110.7c0-7.5 1.3-13.6 2.9-13.6z"/>
		<g id="&lt;Group&gt;" style="opacity: .3">
			<path id="&lt;Path&gt;" class="s5" d="m476.9 764.1h64.5l-137 177.3h-56.3z"/>
		</g>
		<g id="&lt;Group&gt;">
			<path id="&lt;Path&gt;" class="s5" d="m390.2 359.2l13.5-34.1 12.7 34.6 23.7 13.5-24.2 12.7-13.5 43.4-12.7-43.9-23.6-13.5z"/>
		</g>
		<path id="&lt;Path&gt;" class="s5" d="m447 314.9l5.9-14.8 5.4 15 10.2 5.8-10.4 5.5-5.8 18.7-5.5-18.9-10.2-5.9z"/>
		<g id="&lt;Group&gt;">
			<path id="&lt;Path&gt;" class="s6" d="m337.5 941.1h331.6c11.2 0 20.3 2.4 20.3 5.4v37.2c0 3-9.1 5.4-20.3 5.4h-331.6c-11.2 0-20.3-2.4-20.3-5.4v-37.2c0-3 9.1-5.4 20.3-5.4z"/>
		</g>
		<path id="&lt;Path&gt;" class="s1" d="m407.4 692.3c0-36.3 29.5-65.7 65.8-65.7h60.2c36.3 0 65.8 29.4 65.8 65.7z"/>
		<path id="&lt;Path&gt;" class="s7" d="m533.4 626.6c10.3 0 20 2.3 28.6 6.5 4.2 8.6 6.5 18.3 6.5 28.6h-153.5c11-20.9 32.9-35.1 58.2-35.1z"/>
	</g>
</svg>