<svg version="1.2" xmlns="http://www.w3.org/2000/svg" viewBox="0 0 1000 1000" width="1000" height="1000">
	<title>New Project</title>
	<style>
		.s0 { fill: #ffd733 } 
		.s1 { fill: #ffe266 } 
		.s2 { fill: #fcab28 } 
		.s3 { fill: #494e8b } 
		.s4 { fill: #ffffff } 
		.s5 { fill: #fffffd } 
	</style>
	<g id="&lt;Group&gt;">
		<g id="&lt;Group&gt;">
			<path id="&lt;Path&gt;" class="s0" d="m707.6 14c0 0-117.6 283.9-134.3 401-16.7 117.1-17.5 282.7-17.5 282.7 0 0-19.6 27.2-64.5 28.7-45 1.4-60.1-22.6-60.1-22.6 0 0-15.6-169.2-35.5-279-19.9-109.8-103.7-301.3-103.7-301.3 120.6-65.2 415.6-109.5 415.6-109.5z"/>
		</g>
		<g id="&lt;Group&gt;">
			<path id="&lt;Path&gt;" class="s0" d="m513.4 715.4l2.5 77.7-44.9 1.4-2.5-75.6c-2.9 3.2 44.9-3.5 44.9-3.5z"/>
		</g>
		<g id="&lt;Group&gt;">
			<path id="&lt;Path&gt;" class="s1" d="m524.8 750.9l-63.4 2c-8.4 0.3-15.5-6.4-15.8-14.8-0.2-8.5 6.4-15.6 14.9-15.8l63.3-2.1c8.4-0.2 15.5 6.4 15.8 14.9 0.3 8.4-6.4 15.5-14.8 15.8z"/>
		</g>
		<g id="&lt;Group&gt;">
			<path id="&lt;Path&gt;" class="s0" d="m408.6 890.6c0 0-2.5-77.7 62.4-96.1l44.9-1.4c0 0 55.2 0.2 72.4 89.6 0 0-23.8 23.3-85.1 25.3-61.2 1.9-94.6-17.4-94.6-17.4z"/>
		</g>
		<g id="&lt;Group&gt;">
			<path id="&lt;Path&gt;" class="s2" d="m566.7 337.5c-25.5 162.4-25.8 342.3-25.8 342.3-3 32.8-50.1 32.3-50.1 32.3 0 0-14.3-126.3-3.4-296.4 8.3-130 29.9-296.3 39.5-367.4 65.8-14.7 125.7-25.3 157.3-30.5-31.3 59.4-98.2 196.8-117.5 319.7z"/>
		</g>
		<g id="&lt;Group&gt;">
			<path id="&lt;Path&gt;" class="s1" d="m422.4 896.6c2.5-22.9 11.9-72.6 46.8-93.9 0 0-10.8 66.8-9.6 103-16.2-2.4-28.7-6-37.2-9.1z"/>
		</g>
		<g id="&lt;Group&gt;">
			<g id="&lt;Group&gt;">
				<path id="&lt;Path&gt;" class="s3" d="m368.9 874.2l270.1-0.9c9.1 0 16.6 5.7 16.6 12.7l0.3 88c0 7.1-7.4 12.8-16.6 12.8l-270.1 0.9c-9.1 0-16.5-5.7-16.6-12.7l-0.2-88c-0.1-7.1 7.3-12.8 16.5-12.8z"/>
			</g>
			<g id="&lt;Group&gt;">
				<path id="&lt;Path&gt;" class="s1" d="m414.5 893.7l179-0.6c4.2 0 7.6 2.6 7.7 5.9l0.1 48.1c0 3.2-3.4 5.9-7.6 5.9l-179 0.6c-4.2 0-7.7-2.6-7.7-5.9l-0.1-48.1c-0.1-3.3 3.4-5.9 7.6-5.9z"/>
			</g>
			<g id="&lt;Group&gt;">
				<path id="&lt;Path&gt;" class="s0" d="m439.2 893.6l61.5-0.2c1.5 0 2.7 2.6 2.7 5.9l0.1 48.1c0.1 3.3-1.1 5.9-2.6 5.9l-61.5 0.2c-1.5 0-2.7-2.6-2.7-5.9l-0.1-48.1c-0.1-3.3 1.1-5.9 2.6-5.9z"/>
			</g>
			<g id="&lt;Group&gt;" style="opacity: .3">
				<path id="&lt;Path&gt;" class="s4" d="m489.4 873.8l52.7-0.2-114.1 113.9-45.9 0.1z"/>
			</g>
			<g id="&lt;Group&gt;" style="opacity: .3">
				<path id="&lt;Path&gt;" class="s4" d="m472.6 987.4l114.4-113.9 21.6-0.1-113.3 113.9z"/>
			</g>
		</g>
		<g id="&lt;Group&gt;" style="opacity: .5">
			<path id="&lt;Path&gt;" class="s5" d="m343.6 100.4c23.3-8.9 49.1-17.2 76.1-25 8.9 43 21.5 114.5 28.5 204.6 11.7 150.8-5.2 268.2-5.2 268.2 0 0-5.5-65.1-26.9-198.4-15.6-96.8-53.1-200-72.5-249.4z"/>
		</g>
		<g id="&lt;Group&gt;">
			<g id="&lt;Group&gt;">
				<path id="&lt;Path&gt;" class="s2" d="m314.5 184.3c28.1-15.2 57.5-27.8 87.5-38.9 29.9-11 60.5-20.7 91.4-28.6 31-7.7 62.2-14.6 93.9-19.1l11.8-1.8q5.9-1 11.9-1.6l23.8-2.6c7.9-0.9 15.9-1.3 23.8-1.8q12-0.8 23.9-1.4c-31.6 4.2-63.1 8.5-94.3 14.5-31.3 5.6-62.3 12.6-93.1 20.5l-23 6-22.9 6.7q-22.8 6.7-45.4 14.3c-30.2 10.1-60.1 20.9-89.3 33.8z"/>
			</g>
		</g>
		<g id="&lt;Group&gt;">
			<path id="&lt;Path&gt;" class="s4" d="m421.8 128.1l10.4-28.8 11.5 28.5 20.1 10.6-19.8 11.2-10.1 36.6-11.8-36.3-20.1-10.6z"/>
		</g>
		<g id="&lt;Group&gt;">
			<path id="&lt;Path&gt;" class="s4" d="m463.9 217.8l6.4-17.7 7 17.5 12.4 6.5-12.2 6.9-6.2 22.4-7.2-22.2-12.3-6.5z"/>
		</g>
	</g>
</svg>