<svg version="1.2" xmlns="http://www.w3.org/2000/svg" viewBox="0 0 1500 1000" width="1500" height="1000">
	<title>4291798-ai</title>
	<style>
		.s0 { fill: #3d3f58 } 
		.s1 { fill: #fafafc } 
		.s2 { fill: #00187e } 
		.s3 { fill: #d9eafc } 
		.s4 { fill: #f0a682 } 
		.s5 { fill: #ef0950 } 
		.s6 { fill: #f33f77 } 
		.s7 { fill: #2a18fb } 
		.s8 { fill: #4261ff } 
		.s9 { fill: #a8b9ff } 
		.s10 { fill: #0031ff } 
		.s11 { fill: #5273ff } 
		.s12 { opacity: .9;fill: #d9eafc } 
		.s13 { fill: #99aeff } 
		.s14 { fill: #efb078 } 
		.s15 { fill: #0f2686 } 
		.s16 { fill: #f2bf91 } 
		.s17 { fill: #172d8a } 
		.s18 { fill: #e99447 } 
		.s19 { fill: #d6ac44 } 
	</style>
	<g id="OBJECTS">
		<g id="&lt;Group&gt;">
			<g id="&lt;Group&gt;">
				<path id="&lt;Path&gt;" class="s0" d="m375.5 391.9q151.4 32.3 260.9-83.9c109.6-116.3 259.9-250.3 411.8-194.3 151.8 56 36.1 179.3 45.9 227.7 9.9 48.3 129.9-45 223.9 63.7 94 108.6 93.6 254.5-165.2 379.6-258.8 125-486.8 91.4-402.8 18.2 84-73.2 56.3-96.6-71.8-38.9-128.2 57.7-342.2 139.7-488.2 73.7-146-66-118.3-238.7-20-274 98.3-35.2 305.9-4.1 227.5-70.4-78.3-66.3-115.1-123.6-22-101.4z"/>
			</g>
			<g id="&lt;Group&gt;">
				<g id="&lt;Group&gt;" style="opacity: .7">
					<path id="&lt;Path&gt;" class="s1" d="m854 298.8h-70v-99.1h70z"/>
					<path id="&lt;Path&gt;" class="s1" d="m941.5 298.8h-70v-99.1h70z"/>
					<path id="&lt;Path&gt;" class="s1" d="m1029 298.8h-70v-99.1h70z"/>
				</g>
				<g id="&lt;Group&gt;" style="opacity: .7">
					<path id="&lt;Path&gt;" class="s1" d="m854 411.9h-70v-99.1h70z"/>
					<path id="&lt;Path&gt;" class="s1" d="m941.5 411.9h-70v-99.1h70z"/>
					<path id="&lt;Path&gt;" class="s1" d="m1029 411.9h-70v-99.1h70z"/>
				</g>
				<g id="&lt;Group&gt;" style="opacity: .7">
					<path id="&lt;Path&gt;" class="s1" d="m854 525.1h-70v-99.1h70z"/>
					<path id="&lt;Path&gt;" class="s1" d="m941.5 525.1h-70v-99.1h70z"/>
					<path id="&lt;Path&gt;" class="s1" d="m1029 525.1h-70v-99.1h70z"/>
				</g>
			</g>
			<g id="&lt;Group&gt;">
				<g id="&lt;Group&gt;">
					<g id="&lt;Group&gt;">
						<g id="&lt;Group&gt;">
							<path id="&lt;Path&gt;" class="s2" d="m1129.1 657.3q4.6-12.6 13.7-6.3 9.1 6.3 9.7 2.3 4.3 22 4.3 31c0 9-61.7 15.5-65.7 8.7-0.3-14 12.7-20.1 25.4-21.7q12.6-1.6 12.6-14z"/>
							<path id="&lt;Path&gt;" class="s3" d="m1156.4 678c0.2 2.4 0.4 4.6 0.4 6.3 0 9-61.7 15.5-65.7 8.7 0-2.5 0.4-4.6 1-6.6 8.4 5 59.5-0.4 64.3-8.4z"/>
						</g>
						<g id="&lt;Group&gt;">
							<path id="&lt;Path&gt;" class="s2" d="m1315.8 671.3c12.7 1.6 25.7 7.7 25.3 21.7-1.6 4.1-65.6 1.8-65.6-7.2q0-9 2.8-36.6-1 4 8.1-2.4 9.2-6.3 10.2 3.2 6.6 19.7 19.2 21.3z"/>
							<path id="&lt;Path&gt;" class="s3" d="m1339.9 685.7c0.9 2.2 1.3 4.6 1.2 7.3-1.6 4.1-65.6 1.8-65.6-7.2 0-1.7 0.1-4.2 0.3-7 4 7.6 55.5 9.8 64.1 6.9z"/>
						</g>
						<g id="&lt;Group&gt;">
							<g id="&lt;Group&gt;">
								<g id="&lt;Group&gt;">
									<path id="&lt;Path&gt;" class="s4" d="m1119.7 331.2q-2.7 32.6-4.4 49.2c-1.6 16.6-2.6 35.8-14 27.3q-19.9-13.4-5.1-77.7z"/>
									<path id="&lt;Path&gt;" class="s4" d="m1119.7 403.9q-4.6 6.7-12.6 5.8-2.5-15.6-3-25.1-0.5-9.5 11.2-7.2 9 19.7 4.4 26.5z"/>
								</g>
								<g id="&lt;Group&gt;">
									<ellipse id="&lt;Path&gt;" class="s5" cx="1123.8" cy="386.4" rx="12.2" ry="25.9"/>
									<ellipse id="&lt;Path&gt;" class="s6" cx="1121" cy="386.4" rx="12.2" ry="25.9"/>
								</g>
							</g>
							<path id="&lt;Path&gt;" class="s7" d="m1251 393.6q23.5 65.6 32.8 93.4 9.2 27.7 16.3 167.8l-24.6 3.4q-26.6-142-24.5-145.2 2.1-3.2-47.8-76.6l-33.5 92.6-14.7 129.2-25.9-0.9 5-144.3 16.4-109.4z"/>
							<path id="&lt;Path&gt;" class="s8" d="m1142.2 253.1q36.3-10.8 58.7-7.9 22.5 2.9 20.3 11.8 10.2 56.1 18.2 78c8 21.9 17.6 51.3 26.2 68.9-36.3 13.4-111 9.7-123.4 3.2 6.9-33.1 3.6-76.1-11.9-91.5q-15.4-15.4-25-28.7 28.6-31.6 36.9-33.8z"/>
							<path id="&lt;Path&gt;" class="s8" d="m1143.3 309.9q-13.2 17-18 34.5-7-6.1-37.9-5.7l17.9-51.8z"/>
							<path id="&lt;Path&gt;" class="s4" d="m1247.4 270q44.5 43.8 32 70.1c-8.9 18.8-25.7 46.7-49 72.8-8.7 17.9-32.6 21.6-41.4 10.7 11.8-3.5 24.6-10.4 25.5-13.2 0.9-2.8-10.1 1.2-13.1 2.8-3 1.7-4.4 0-1.3-3.5 3.1-3.6 13.8-9.9 26.8-10.8 12.6-13 21.8-42.8 29.2-67.4 4.5-14.9-31.1-38.4-31.2-44.7q-0.2-16.6 22.5-16.8z"/>
							<path id="&lt;Path&gt;" class="s8" d="m1208.5 276.6c-5-9.3-15.2-27-1.4-29.4 13.8-2.4 40.7 18.8 55.7 35.4q-21.2 6.1-30.4 25.5-18.9-22.1-23.9-31.5z"/>
							<g id="&lt;Group&gt;">
								<path id="&lt;Path&gt;" class="s4" d="m1152.1 280.7c-9.2-0.7-11.4-8.2-13.6-16.1q-2.2-7.9-10.6-14.2l17.1-14.3q0.9 2.5 4.4 7.3 3.6 4.8 15.8 8.3c9.6 13.1-3.9 29.8-13.1 29z"/>
								<path id="&lt;Path&gt;" class="s4" d="m1141.6 257.5q-11.4 16.4-20.4 11.2c-9-5.3-14.7-26.2-13-41.5 1.8-15.4 20.9-18.7 28.8-14.8 7.9 4 13.2 18.9 12.4 31q-0.8 12.1-7.8 14.1z"/>
								<path id="&lt;Path&gt;" class="s2" d="m1120.5 229.1q-7 6.6-23 5.1c-11-3.3-5.5-13.6 0-13.2-8.4-4.6 4.4-13.6 14.2-10.1 0.3-8.6 21.8-16.5 30.6-3.7 10.9-3.3 16.6 19.6 13.4 40.8-10.6 4.2-12-4.8-12.7-10.2-0.7-5.4-5.7-3.9-6.6-1.2-0.8 2.7-1.5 7.7-0.7 10.1q-2.8 2.4-2.8 2.4-4.8-6.9-4.2-11.2 0.6-4.3-8.2-8.8z"/>
							</g>
						</g>
					</g>
					<g id="&lt;Group&gt;">
						<g id="&lt;Group&gt;">
							<path id="&lt;Path&gt;" class="s9" d="m893.2 695.7h-13v-242.8h13z"/>
						</g>
						<g id="&lt;Group&gt;">
							<path id="&lt;Path&gt;" class="s9" d="m426.8 749.4h-13.1v-239.8h13.1z"/>
						</g>
						<g id="&lt;Group&gt;">
							<path id="&lt;Path&gt;" class="s9" d="m751.7 800.6h-13v-242.8h13z"/>
						</g>
						<g id="&lt;Group&gt;">
							<path id="&lt;Path&gt;" class="s9" d="m1267.1 753.5h-13.1v-243.9h13.1z"/>
						</g>
						<g id="&lt;Group&gt;">
							<path id="&lt;Path&gt;" class="s9" d="m744.4 690l-326.6-42.3 1.7-13 326.6 42.4z"/>
						</g>
						<g id="&lt;Group&gt;">
							<path id="&lt;Path&gt;" class="s9" d="m1259.8 680.9l-370.5-42.4 1.5-13 370.5 42.4z"/>
						</g>
						<g id="&lt;Group&gt;">
							<path id="&lt;Path&gt;" class="s10" d="m297.4 512.6l602.5-25.7 430.7 14.6v9.8l-646.8 63-386.4-48.7z"/>
							<path id="&lt;Path&gt;" class="s11" d="m899.9 482.5l430.7 19-646.8 48.9-386.4-37.8z"/>
							<path id="&lt;Path&gt;" class="s12" d="m630.2 496v-66.2l481.1 22.8v65.5z"/>
							<path id="&lt;Path&gt;" class="s13" d="m1111.3 468.9l-481.1-25.9v-13.2l481.1 22.8z"/>
						</g>
					</g>
					<g id="&lt;Group&gt;">
						<path id="&lt;Path&gt;" class="s4" d="m624.6 449.4q7.2 13.4 1.5 13.4-5.7 0.1-12.5-4.8z"/>
						<path id="&lt;Path&gt;" class="s14" d="m669.8 427.8c-7.8 13.3-22.3 19.5-32.2 13.6-10-5.8-11.7-21.4-3.8-34.8 7.9-13.4 22.3-19.5 32.3-13.7 9.9 5.9 11.6 21.5 3.7 34.9z"/>
						<path id="&lt;Path&gt;" class="s15" d="m669.8 427.8c-2 3.4-4.5 6.4-7.2 8.8l-1.6-4.9-30.8-16.8c0.8-2.8 2-5.6 3.6-8.3 7.9-13.4 22.3-19.5 32.3-13.7 9.9 5.9 11.6 21.5 3.7 34.9z"/>
						<path id="&lt;Path&gt;" class="s16" d="m668.1 426.8c-7.8 13.3-22.3 19.5-32.3 13.6-9.9-5.8-11.6-21.4-3.7-34.8 7.8-13.4 22.3-19.5 32.3-13.7 9.9 5.9 11.6 21.5 3.7 34.9z"/>
						<path id="&lt;Path&gt;" class="s17" d="m661.9 434.6l-34.2-17.6c0.8-3.8 2.2-7.7 4.4-11.4 7.8-13.4 22.3-19.5 32.3-13.7 9.9 5.9 11.6 21.5 3.7 34.9-1.7 3-3.9 5.6-6.2 7.8z"/>
						<path id="&lt;Path&gt;" class="s18" d="m623.2 466.3l-2-1.2c-1.7-1-2.3-3.2-1.3-4.9l16.9-28.8c1-1.7 3.2-2.3 4.9-1.3l2 1.2c1.7 1 2.3 3.2 1.3 4.9l-16.9 28.8c-1 1.7-3.2 2.3-4.9 1.2z"/>
						<g id="&lt;Group&gt;">
							<g id="&lt;Group&gt;">
								<g id="&lt;Group&gt;">
									<path id="&lt;Path&gt;" class="s2" d="m315.7 534.9q29.9 108.8 10.8 123.7-19.2 14.9-154.9 90.8l-17.8-13.7q54.2-49.2 124.1-95.1-11.2-54.5-21.5-105.8z"/>
									<path id="&lt;Path&gt;" class="s8" d="m177.3 746.3c18.2 17.9 38 53.9 23.4 61.6l-68.7-59.9q12.1-15.5 29.9-19.2c-6.4 12 7.6 21.7 15.4 17.5z"/>
									<path id="&lt;Path&gt;" class="s3" d="m205.6 800.1c-0.4 3.5-1.9 6.2-4.9 7.8l-68.7-59.9c2-2.5 4.2-4.8 6.4-6.7z"/>
								</g>
								<g id="&lt;Group&gt;">
									<path id="&lt;Path&gt;" class="s2" d="m367.7 528.3q90.2 67.8 84.2 91.3-6.1 23.5-71 175.3l-18.6-8.7q12.9-72.1 40.1-151.2-42.2-36.3-123.4-106.7z"/>
									<path id="&lt;Path&gt;" class="s8" d="m387 780.9c25.5 1.6 64 15.7 58.1 31.1h-91.1q-1.1-19.6 9.9-34.1c3 13.2 20 11.3 23.1 3z"/>
									<path id="&lt;Path&gt;" class="s3" d="m444.3 803.9c1.5 2.6 1.9 5.3 0.8 8.1h-91.1c-0.2-2.9-0.1-5.6 0.2-8.1z"/>
								</g>
							</g>
							<path id="&lt;Path&gt;" class="s6" d="m451.9 400.5q-7.5 6.4-23.9 22c-16.4 15.7-43.4 40.6-46.3 59.8-2.8 19.3-4.6 40.1 1.3 58q-68.8-16.1-124.8 3.3-25.3-23.5 24.6-106.1 49.8-82.6 116.7-84.7 28.9 2.1 52.4 47.7z"/>
							<g id="&lt;Group&gt;">
								<path id="&lt;Path&gt;" class="s4" d="m470 418.3q41.7 19.9 48.4 22.4c6.8 2.5 87.6 3.9 97.2 0 9.6-3.9 19.9-2.4 24.1 5.9 4.3 8.2-2.6 12-4.2 10.1-1.6-1.9-1.1-6.4-4-7.7-3-1.4-3.4 6.4-11.7 9.9-3.7 1.6-10-3.4-13.7-3.6-3.7-0.2-65.4 9.9-83.8 10.2q-18.5 0.3-62.2-21.6z"/>
								<path id="&lt;Path&gt;" class="s6" d="m450.6 398.2l34.7 22.2q-13.5 27.4-33.4 38.8c-28.9-13.9-36.7-21-50.2-17.8q7.5-17.8 48.9-43.2z"/>
							</g>
							<g id="&lt;Group&gt;">
								<path id="&lt;Path&gt;" class="s4" d="m399.5 363.8q15-4.3 19.3-10.2 4.2-5.8 5.3-8.9l20.8 17.5q-10.1 7.6-12.8 17.3c-2.7 9.6-5.3 18.6-16.5 19.5-11.2 0.9-27.6-19.4-16.1-35.2z"/>
								<path id="&lt;Path&gt;" class="s4" d="m418.8 353.6c-1-14.6 5.5-32.8 15.1-37.6 9.6-4.8 32.8-0.8 35 17.9 2.1 18.7-4.8 44-15.8 50.4q-10.9 6.5-24.8-13.6-8.6-2.4-9.5-17.1z"/>
								<path id="&lt;Path&gt;" class="s2" d="m444 347q0.7 5.2-5.2 13.6 0 0-3.3-2.9c0.9-3 0.1-9-0.9-12.3-1.1-3.4-7.1-5.1-8 1.5-0.8 6.5-2.6 17.5-15.5 12.4-3.9-25.9-7.9-59.8 5.4-55.8 10.7-15.5 55.4-7.3 55.7 3.2 12-4.3 27.6 11.5 17.5 17.1 6.6-0.5 5.6 14.6-7.7 18.6q-19.5 1.9-28.1-6.1-10.7 5.5-9.9 10.7z"/>
							</g>
							<g id="&lt;Group&gt;">
								<path id="&lt;Path&gt;" class="s4" d="m315.9 409c-19.2 6.4-85.1 54.5-101.1 86.1 4.3 15.4 1.2 30.1-1.6 35.1-2.9 5-5.3 4.1-4.6 0 0.7-4.1 0.9-18.3-2-16.2-2.8 2.1-5.7 19.6-5 34.5-16-5.7-21.3-34.7-4.2-51.8q49.6-89.7 104.1-114.8 33.6 20.7 14.4 27.1z"/>
								<path id="&lt;Path&gt;" class="s6" d="m288.5 380.9q56.6-26.7 111-28.1-23.8 34.1-35.9 45.9l-50.6 29.2q-6.7-31.4-24.5-47z"/>
							</g>
						</g>
						<path id="&lt;Path&gt;" class="s4" d="m637.2 456.4q0.3 3.7-1.7 3.8-1 3.4-3.1 3.3-0.1 2.3-2.2 2.3c-2.1-0.1-3.5-5.2-6.7-5.2-2.9-1.6-0.6-5.1 2.4-4.2 0.1-1.9 1.2-3.2 3.8-1.4-0.8-4.2 0.9-4.1 2.2-3.8-0.1-1.5 3.1-2.6 4-1q0.8 1.6 1.3 6.2z"/>
					</g>
				</g>
				<circle id="&lt;Path&gt;" class="s19" cx="779.7" cy="386.8" r="8.4"/>
				<g id="&lt;Group&gt;">
					<g id="&lt;Group&gt;" style="opacity: .9">
						<path id="&lt;Path&gt;" class="s19" d="m679.7 405.6q9.8-3.8 19.7-7.2c6.6-2.2 13.2-4.2 19.9-6.2 6.7-1.9 13.5-3.7 20.3-5.2 6.8-1.5 13.7-2.7 20.6-3.5-6.9 1.2-13.7 2.7-20.4 4.3q-10.2 2.5-20.2 5.4c-6.7 1.9-13.3 4-20 6-6.6 2.1-13.2 4.2-19.9 6.4z"/>
					</g>
					<path id="&lt;Path&gt;" class="s19" d="m678.3 409.7c7.2-2.5 14.6-4.7 21.9-6.8 7.4-2.1 14.9-3.9 22.3-5.7 7.5-1.6 15-3.1 22.6-4.3 7.6-1.1 15.2-1.9 22.9-2.2-7.7 0.7-15.2 1.8-22.8 3.1q-11.3 1.9-22.4 4.5c-7.5 1.6-14.9 3.5-22.3 5.4-7.4 1.9-14.8 3.9-22.2 6z"/>
					<path id="&lt;Path&gt;" class="s19" d="m678.3 413.6c8.6-2.6 17.4-4.6 26.3-6.5 8.8-1.8 17.7-3.4 26.7-4.2-8.9 1.7-17.7 3.4-26.5 5.3z"/>
				</g>
			</g>
		</g>
	</g>
</svg>