<svg version="1.2" xmlns="http://www.w3.org/2000/svg" viewBox="0 0 1000 1000" width="1000" height="1000">
	<title>4317026-ai</title>
	<style>
		tspan { white-space:pre } 
		.s0 { fill: #5b5eb0 } 
		.s1 { fill: #ffffff } 
		.s2 { fill: #555896 } 
		.s3 { fill: #8d91db } 
		.s4 { fill: #787de3 } 
		.s5 { fill: #5e62c1 } 
		.s6 { fill: #b17547 } 
		.s7 { fill: #dc9f79 } 
		.s8 { fill: #cb8c62 } 
		.s9 { fill: #ebc9b8 } 
		.t10 { font-size: 144px;fill: #ffffff;font-weight: 900;font-family: "Poppins-Black", "Poppins" } 
		.s11 { fill: #a4a7e4 } 
		.s12 { fill: #ffcd4c } 
		.s13 { fill: #eb9325 } 
	</style>
	<g id="OBJECTS">
		<g id="&lt;Group&gt;">
			<g id="&lt;Group&gt;">
				<path id="&lt;Path&gt;" class="s0" d="m894.2 492c0 163.1-176.2 295.3-393.6 295.3-217.4 0-393.7-132.2-393.7-295.3 0-163.1 176.3-295.3 393.7-295.3 217.4 0 393.6 132.2 393.6 295.3z"/>
				<g id="&lt;Group&gt;">
					<path id="&lt;Path&gt;" class="s1" d="m500.6 777.3c-211.6 0-383.7-128-383.7-285.3 0-157.3 172.1-285.3 383.7-285.3 211.5 0 383.6 128 383.6 285.3 0 157.3-172.1 285.3-383.6 285.3z"/>
				</g>
				<path id="&lt;Path&gt;" class="s2" d="m500.6 767.3c-206.1 0-373.7-123.5-373.7-275.3 0-151.8 167.6-275.3 373.7-275.3 206 0 373.6 123.5 373.6 275.3 0 151.8-167.6 275.3-373.6 275.3z"/>
			</g>
			<g id="&lt;Group&gt;">
				<g id="&lt;Group&gt;">
					<path id="&lt;Path&gt;" class="s3" d="m410.3 593.8l56.1-120.4c2.9-6.8 2.7-13.9-0.5-21.9-2.8-6.8-7-12.1-8.8-14.2-6.9-5-13.2-10.4-18.7-16.2-9-9.5-16.1-20.3-21.1-31.9-0.2-0.6-0.7-1.8-0.7-1.8-5.8-14.3-8.6-30.3-8.2-47.6q0-3.2 0.2-6.5c0.6-10.4 2.3-21.5 5.1-33.1 4-17.2 10.2-35.6 19.1-56.4 0.7-1.7 1.4-3.4 2.2-5.1l0.8-1.9c0.5-1 1-2 1.4-2.9 0.2-0.4 1.2-2.4 1.2-2.4q0.6-1.3 1.2-2.4c0.2-0.4 2.1-4 2.5-4.8l1.4-2.5q0.5-1 1.1-2l1.3-2.2c0.4-0.8 0.9-1.5 1.4-2.3l1.3-2.2c0.4-0.7 0.9-1.4 1.4-2.2l0.8-1.2c0 0 1.5-2.2 2-3l1.3-1.9c0.5-0.7 1-1.4 1.5-2.2l1.3-1.8c0.5-0.7 1.1-1.4 1.6-2.2l1.5-1.9c0.5-0.6 1-1.3 1.6-2l1.1-1.4c0.6-0.8 1.2-1.5 1.9-2.4l1.2-1.3c0.6-0.8 1.3-1.5 2-2.3l1.1-1.3q1-1.1 2.1-2.3l1.1-1.2c0.7-0.7 1.4-1.4 2.1-2.2l1.2-1.2c0.7-0.7 1.4-1.4 2.2-2.2l1.1-1c0.8-0.7 1.5-1.4 2.3-2.2l1.1-0.9c0.7-0.7 1.5-1.4 2.3-2.1l1.1-1q1.2-1 2.5-2l1-0.9q1.3-1 2.5-2l1-0.8q1.3-0.9 2.7-1.9l0.9-0.7q1.4-1 2.7-2l0.9-0.6c1-0.6 1.9-1.3 2.9-1.9l0.8-0.6c1-0.6 1.9-1.2 3-1.9l0.7-0.4q1.5-0.9 3.1-1.9l0.7-0.4c1-0.6 2.1-1.2 3.1-1.7l0.7-0.4q1.6-0.9 3.3-1.7l0.5-0.3q1.7-0.9 3.5-1.7l0.4-0.2c1.1-0.6 2.3-1.1 3.6-1.7l0.3-0.1q1.8-0.8 3.6-1.6l0.3-0.1c1.3-0.6 2.5-1.1 3.6-1.5l0.5-0.2q1.7-0.6 3.3-1.2l3-1.2 0.6-0.1c38.3-12.8 81.2-11.2 118.1 4.4 40.2 17.1 72.8 50.3 89.3 91 17.8 44 16.2 93.2-4.6 142.3-21.8 51.4-45.5 84.1-74.3 102.3l-0.1 0.9-11 5.3q-8 3.9-16.7 6.4l-0.6 0.2c-3.9 1.1-7.8 2-11.7 2.6q-1 0.2-2 0.4c-1.1 0.1-2.2 0.3-3.2 0.4q-1.3 0.1-2.6 0.2l-0.3 0.1q-2.1 0.1-4.2 0.3c-1.2 0-2.3 0.1-3.6 0.1q-1.2 0-2.4 0-1.9 0-3.8-0.1c0 0-1.6 0-2 0-1.9-0.1-3.8-0.2-5.9-0.4l-1.5-0.2q-2.3-0.2-4.6-0.6l-1.8-0.2q-1.9-0.3-3.7-0.6c-6 0.2-25.6 2.4-32.4 18.5l-47.5 124c-3.4 9-10.2 16-19.1 19.8-8.8 3.7-18.6 3.7-27.5 0l-33-14c-8.7-3.7-15.4-10.5-18.9-19.2-3.6-9-3.4-19.3 0.7-28.1z"/>
					<g id="&lt;Group&gt;">
						<path id="&lt;Path&gt;" class="s1" d="m420.2 598.4l56.1-120.4 0.1-0.4c4-9.4 3.8-19.6-0.4-30.2-3.9-9.4-9.8-16.3-11.6-18.2-6.8-4.8-12.9-10-18.1-15.5-8.1-8.7-14.5-18.3-19-28.8-0.2-0.5-0.6-1.5-0.6-1.5-5.3-13-7.8-27.6-7.5-43.4q0.1-3 0.3-6c0.5-9.8 2.2-20.3 4.7-31.4 3.9-16.5 10-34.3 18.5-54.6q1.1-2.4 2.1-4.7l0.9-1.9q0.7-1.4 1.3-2.8c0.2-0.4 1.2-2.4 1.2-2.4q0.5-1.1 1.1-2.2c0.2-0.4 2-3.8 2.3-4.4l1.3-2.3q0.5-1.1 1.1-2.1l1.3-2.2q0.6-1 1.2-2l1.3-2.2q0.6-1 1.3-1.9l0.7-1.2c0 0 1.5-2.2 1.9-2.8l1.3-1.9q0.7-1 1.4-2l1.3-1.8q0.7-1 1.5-2l1.2-1.7q0.8-1 1.6-2l1.1-1.4q0.9-1.1 1.8-2.2l1.1-1.3q0.9-1 1.9-2.1l1.1-1.3q0.9-1 1.9-2l1.1-1.2q1-1.1 2-2.1l1.1-1.1q1-1 2-2l1.1-1q1-1 2.1-2l1-1q1.1-1 2.2-1.9l1.1-0.9q1.1-1 2.2-1.9l1-0.8q1.2-1 2.4-1.9l1-0.8q1.2-0.9 2.4-1.8l0.9-0.7q1.3-0.9 2.5-1.8l0.9-0.6c0.9-0.6 1.7-1.2 2.7-1.8l0.8-0.5q1.3-0.9 2.7-1.7l0.7-0.5q1.4-0.8 2.9-1.7l0.6-0.4c1-0.5 2-1.1 2.9-1.6l0.7-0.4q1.5-0.8 3-1.6l0.6-0.3c1-0.5 2.1-1 3.2-1.6l0.4-0.1c1-0.6 2.1-1.1 3.4-1.6l0.2-0.1c1.1-0.5 2.3-1 3.5-1.5l0.2-0.1c1.1-0.5 2.3-1 3.3-1.4l0.5-0.1q1.6-0.7 3.3-1.3l1.5-0.6h0.3c36.1-12.5 76.8-11.2 111.7 3.6 37.7 16 68.1 47 83.5 85.1 16.7 41.2 15.1 87.5-4.5 133.9-22 51.8-45.8 83.9-74.6 100.2l-0.1 0.2-5.5 2.7c-4.7 2.3-9.7 4.2-14.8 5.7l-0.7 0.2c-3.4 1-7 1.8-10.5 2.3q-0.9 0.2-1.8 0.3-1.5 0.2-2.9 0.4-1.1 0.1-2.2 0.2h-0.3q-1.9 0.2-3.9 0.3-1.5 0.1-3.2 0.1-1.1 0.1-2.2 0.1-1.7 0-3.5-0.1h-0.5q-0.6 0-1.3-0.1-2.6-0.1-5.3-0.3l-1.4-0.2q-2.1-0.2-4.3-0.5l-1.6-0.3q-2.3-0.3-4.6-0.7c-5.3 0.1-33.3 1.7-43.2 25.1l-0.1 0.2-47.5 124.2c-2.4 6.2-7.1 11.1-13.2 13.7-6.2 2.6-12.9 2.6-19 0l-33.1-14c-6-2.5-10.6-7.3-13-13.3-2.6-6.2-2.4-13.3 0.5-19.4z"/>
					</g>
					<g id="&lt;Group&gt;">
						<g id="&lt;Group&gt;">
							<path id="&lt;Path&gt;" class="s4" d="m452.7 252.3c41.3-97.4 133-117.5 198.1-89.9 65 27.6 114.5 107.4 73.2 204.8-31.8 75.1-71 116.3-134.2 103.8l-118.3-50.1c-52.9-36.7-50.6-93.6-18.8-168.6z"/>
							<path id="&lt;Path&gt;" class="s4" d="m545.4 159.6c-33 14.9-62.8 43.3-81.8 88.3-31.8 75-34.2 131.9 18.8 168.6l118.3 50.1c17.9 3.6 33.9 2.8 48.4-1.9-17.2 8.4-36.7 10.8-59.3 6.3l-118.3-50.1c-52.9-36.7-50.6-93.6-18.8-168.6 21.1-49.9 55.5-79.4 92.7-92.7z"/>
							<path id="&lt;Path&gt;" class="s4" d="m475.2 414.2c-44.7-31.4-49.3-79-15.4-158.9 18.2-43 47.8-73.3 85.7-87.7 32.9-12.4 70.2-11.8 102.3 1.8 32.1 13.7 58.5 40 72.4 72.3 16.1 37.2 14.9 79.6-3.2 122.5-33.9 80-71.3 109.7-124.9 99.5z"/>
							<path id="&lt;Path&gt;" class="s5" d="m579.1 419.6l0.4 0.7-6 10.7q-4.3 7.7-10 14.8l-0.4 0.5q-1.6 1.9-3.2 3.7l-84.7-35.8c-44.7-31.4-49.3-79-15.4-158.9 13.2-31.4 32.7-55.9 56.9-72.5 32.8 26 55.2 63.8 65 110.3 11.4 54.6 10.6 95.1-2.6 126.5z"/>
							<g id="&lt;Group&gt;">
								<path id="&lt;Path&gt;" class="s1" d="m704.1 369.4c18.2-42.9 19.4-85.3 3.3-122.6-13.9-32.2-40.3-58.6-72.4-72.2-31-13.1-66.9-14.1-98.9-3q4.6-2.1 9.4-4c32.9-12.4 70.2-11.8 102.3 1.8 32.1 13.7 58.5 40 72.4 72.3 16.1 37.2 14.9 79.6-3.2 122.5-24.1 56.9-50 88.4-82.3 98.1 26.5-13.6 48.6-43.7 69.4-92.9z"/>
							</g>
						</g>
						<path id="&lt;Path&gt;" class="s6" d="m530.6 446l59.2 25c0 0-40.3-0.9-54.2 31.7-13.8 32.6-63 11.8-49.2-20.8 13.8-32.7-14.9-61-14.9-61z"/>
						<g id="&lt;Group&gt;">
							<path id="&lt;Path&gt;" class="s7" d="m430 603l72.6-156 46.8 19.8-61.6 160.7c-2.7 7.1-10.8 10.6-17.8 7.6l-33-14c-7.1-3-10.2-11.2-7-18.1z"/>
							<path id="&lt;Path&gt;" class="s8" d="m515 483c-12.9-5.5-18.5-21.6-12.4-36l46.8 19.8c-6.1 14.4-21.5 21.6-34.4 16.2z"/>
						</g>
						<path id="&lt;Path&gt;" class="s9" d="m497.2 476.8c3.3 5.8 8.4 10.5 14.8 13.2l-53.2 125.4c-1.3 3.1-4.9 4.6-8 3.3l-10.7-4.6c-1.3-0.5-2.4-1.4-3-2.7-0.9-1.6-1-3.5-0.2-5.2z"/>
					</g>
				</g>
				<text id="YOU    WIN!" style="transform: matrix(1,0,0,1,512,708.56);paint-order:stroke fill markers;stroke: #555896;stroke-width: 26;stroke-linejoin: round;" >
					<tspan x="-401.3" y="0" class="t10">Y</tspan><tspan  y="0" class="t10">O</tspan><tspan  y="0" class="t10">U</tspan><tspan  y="0" class="t10"> </tspan><tspan  y="0" class="t10"> </tspan><tspan  y="0" class="t10"> </tspan><tspan  y="0" class="t10"> </tspan><tspan  y="0" class="t10">W</tspan><tspan  y="0" class="t10">I</tspan><tspan  y="0" class="t10">N</tspan><tspan  y="0" class="t10">!
</tspan>
				</text>
				<g id="&lt;Group&gt;">
					<path id="&lt;Path&gt;" class="s2" d="m440.6 641.2l-32.3-128.9c-2-7-6.6-12.5-14.1-16.6-6.4-3.6-13.1-5.1-15.8-5.6-8.6 0.5-16.9 0.3-24.7-0.8-13.1-1.7-25.3-5.6-36.5-11.5-0.6-0.3-1.7-0.9-1.7-0.9-13.5-7.5-25.7-18.2-36.4-31.9q-1.9-2.5-3.8-5.1c-6.1-8.5-11.8-18.2-17-29-7.6-15.8-14.4-34.1-20.6-55.8-0.5-1.8-1-3.5-1.5-5.4l-0.5-1.9c-0.3-1.1-0.5-2.2-0.8-3.2-0.1-0.5-0.6-2.7-0.6-2.7q-0.3-1.3-0.6-2.5c-0.1-0.5-0.9-4.4-1-5.3l-0.5-2.9q-0.2-1.1-0.4-2.3l-0.4-2.5c-0.1-0.8-0.3-1.6-0.4-2.6l-0.3-2.5c-0.1-0.8-0.2-1.7-0.3-2.6l-0.2-1.4c0 0-0.3-2.7-0.3-3.6l-0.2-2.3c-0.1-0.9-0.1-1.7-0.2-2.7l-0.1-2.2c-0.1-0.9-0.1-1.8-0.1-2.8l-0.1-2.3c0-0.8 0-1.6-0.1-2.6v-1.8c0-1 0-1.9 0.1-3.1v-1.7c0-1 0-2 0.1-3.1l0.1-1.7q0.1-1.4 0.2-3l0.1-1.7c0.1-1 0.1-2 0.2-3.1l0.2-1.6c0.1-1 0.2-2 0.3-3.1l0.2-1.5c0.2-1 0.3-2 0.5-3.1l0.2-1.4c0.1-1 0.3-2.1 0.5-3.2l0.3-1.3q0.2-1.6 0.6-3.2l0.2-1.3q0.4-1.6 0.7-3.1l0.3-1.3q0.4-1.6 0.8-3.2l0.3-1.1q0.4-1.7 0.9-3.3l0.3-1c0.3-1.1 0.7-2.1 1-3.3l0.3-1c0.4-1 0.7-2.1 1.1-3.3l0.3-0.8q0.6-1.7 1.3-3.4l0.2-0.7c0.5-1.1 0.9-2.3 1.3-3.3l0.4-0.8q0.6-1.7 1.4-3.4l0.2-0.5q0.8-1.8 1.6-3.5l0.2-0.4c0.6-1.2 1.2-2.4 1.8-3.6l0.1-0.3q0.9-1.8 1.9-3.5l0.1-0.3c0.7-1.2 1.3-2.4 1.9-3.4l0.3-0.4q0.9-1.6 1.8-3.1l1.6-2.9 0.4-0.3c21.6-34.1 56-59.9 94.5-70.9 42-12.1 88.2-6.9 126.7 14.4 41.4 23 71.2 62.2 85.9 113.5 15.4 53.6 17.6 94 6.7 126.3l0.5 0.7-5.2 11.1q-3.8 8-8.9 15.4l-0.4 0.6c-2.3 3.3-4.8 6.4-7.5 9.4q-0.6 0.7-1.3 1.5c-0.8 0.8-1.5 1.6-2.2 2.3q-0.9 0.9-1.8 1.8l-0.3 0.2q-1.5 1.5-3.1 2.9c-0.8 0.8-1.7 1.6-2.7 2.4q-0.9 0.8-1.8 1.6-1.5 1.1-3 2.3c0 0-1.3 1-1.6 1.2-1.6 1.1-3.1 2.2-4.9 3.4l-1.2 0.8q-1.9 1.2-4 2.5l-1.5 0.9q-1.7 0.9-3.3 1.9c-4.5 3.9-18.4 17.9-13.5 34.7l41.1 126.3c3 9.1 2.2 18.8-2.3 27.4-4.6 8.5-12.1 14.6-21.4 17.3l-34.5 9.9c-9 2.6-18.5 1.5-26.7-3-8.5-4.7-14.8-12.8-17.1-22.3z"/>
					<g id="&lt;Group&gt;">
						<path id="&lt;Path&gt;" class="s1" d="m451.1 638.6l-32.2-128.9-0.1-0.4c-2.9-9.8-9.4-17.6-19.4-23.1-8.9-5-17.9-6.6-20.5-7-8.2 0.6-16.2 0.4-23.8-0.6-11.7-1.6-22.8-5.1-32.9-10.4-0.4-0.3-1.4-0.8-1.4-0.8-12.2-6.8-23.4-16.5-33.1-29q-1.8-2.4-3.6-4.9c-5.7-7.9-11.1-17.1-16-27.3-7.4-15.3-13.9-33-20-54.1q-0.7-2.5-1.4-5l-0.5-2q-0.4-1.5-0.7-3c-0.1-0.5-0.6-2.6-0.6-2.6q-0.3-1.2-0.6-2.4c-0.1-0.5-0.8-4.2-0.9-4.9l-0.5-2.6q-0.2-1.2-0.4-2.3l-0.4-2.5q-0.2-1.2-0.3-2.4l-0.4-2.5q-0.1-1.1-0.2-2.3l-0.2-1.4c0 0-0.2-2.6-0.3-3.3l-0.2-2.3q-0.1-1.3-0.2-2.5l-0.1-2.1q0-1.3-0.1-2.6l-0.1-2q0-1.3 0-2.6v-1.8q0-1.4 0-2.8v-1.7q0.1-1.4 0.1-2.9l0.1-1.6q0.1-1.4 0.2-2.8l0.1-1.7q0.1-1.4 0.2-2.8l0.2-1.5q0.1-1.5 0.3-2.9l0.2-1.5q0.2-1.4 0.4-2.9l0.2-1.3q0.2-1.5 0.5-2.9l0.2-1.4q0.3-1.5 0.6-2.9l0.2-1.3q0.4-1.4 0.7-2.9l0.3-1.2q0.3-1.5 0.7-2.9l0.3-1.1q0.4-1.6 0.8-3l0.3-1c0.3-1.1 0.6-2.1 1-3.1l0.3-0.9q0.4-1.5 1-3.1l0.3-0.8q0.5-1.6 1.1-3.1l0.3-0.7c0.4-1.1 0.8-2.1 1.2-3.1l0.3-0.7q0.6-1.6 1.3-3.2l0.3-0.5c0.4-1.1 0.9-2.2 1.5-3.3l0.1-0.4c0.6-1.1 1.1-2.2 1.7-3.4l0.1-0.2c0.6-1.1 1.1-2.2 1.8-3.3l0.1-0.2c0.6-1.2 1.2-2.3 1.7-3.2l0.3-0.4q0.9-1.6 1.8-3.1l0.8-1.4 0.1-0.2c20.3-32.4 52.7-57 89.2-67.5 39.3-11.3 82.4-6.4 118.4 13.5 38.9 21.6 66.9 58.5 80.8 107 15.5 54 17.2 93.9 5 124.7l0.2 0.2-2.6 5.6c-2.3 4.8-5 9.4-8 13.8l-0.4 0.6c-2 2.9-4.3 5.7-6.7 8.4q-0.6 0.7-1.2 1.3-1 1.1-2 2.2-0.8 0.8-1.6 1.5l-0.2 0.3q-1.4 1.3-2.8 2.6-1.2 1-2.5 2.1-0.8 0.7-1.7 1.4-1.3 1.1-2.7 2.2l-0.4 0.3q-0.5 0.4-1.1 0.8-2 1.5-4.3 3l-1.2 0.8q-1.8 1.1-3.7 2.2l-1.4 0.9q-2 1.2-4 2.3c-4.1 3.4-24.8 22.3-17.8 46.6l0.1 0.3 41.2 126.4c2.1 6.4 1.5 13.1-1.6 19-3.1 5.9-8.4 10.1-14.8 12l-34.5 9.9c-6.2 1.8-12.8 1-18.5-2.1-5.9-3.3-10.2-8.9-11.8-15.4z"/>
					</g>
					<g id="&lt;Group&gt;">
						<g id="&lt;Group&gt;">
							<path id="&lt;Path&gt;" class="s11" d="m258.5 349.1c-29.2-101.6 29.5-175 97.4-194.5 67.9-19.5 156.5 11.4 185.8 113.1 22.5 78.3 18 135.1-39 165.1l-123.5 35.5c-64.2 4.8-98.1-40.8-120.7-119.2z"/>
							<path id="&lt;Path&gt;" class="s11" d="m272.2 218.7c-16.2 32.4-21.5 73.2-8 120.1 22.5 78.4 56.5 124.1 120.7 119.3l123.5-35.6c16.2-8.5 28.1-19.2 36.4-31.9-8.1 17.3-21.7 31.5-42.1 42.2l-123.5 35.5c-64.2 4.8-98.1-40.8-120.7-119.2-14.9-52-6.9-96.6 13.7-130.4z"/>
							<path id="&lt;Path&gt;" class="s11" d="m377.9 460.8c-54.5 3.7-88-30.4-112-113.8-12.9-44.8-8.9-87 11.5-122.1 17.7-30.3 47-53.3 80.6-62.9 33.5-9.7 70.6-5.8 101.7 10.5 35.9 18.8 61.7 52.5 74.6 97.3 24 83.4 13.7 130.1-34.4 155.9z"/>
							<path id="&lt;Path&gt;" class="s11" d="m269.4 358.5q0 0 0.1-0.1c30.8-21 73-13.1 94 17.7 18.1 26.5 14.8 61.5-6.2 84.1-40.3-5.3-67.5-37.1-87.9-101.7z"/>
							<g id="&lt;Group&gt;">
								<path id="&lt;Path&gt;" class="s1" d="m527.6 281.9c-12.9-44.8-38.7-78.5-74.6-97.3-31.1-16.4-68.2-20.2-101.7-10.5-32.4 9.3-60.9 31-78.7 59.9q2.2-4.6 4.8-9.1c17.7-30.3 47-53.3 80.6-62.9 33.5-9.7 70.6-5.8 101.7 10.5 35.9 18.8 61.7 52.5 74.6 97.3 17.1 59.4 16.8 100.1-2.2 128 12-27.2 10.3-64.6-4.5-115.9z"/>
							</g>
						</g>
						<path id="&lt;Path&gt;" class="s6" d="m441 450.6l61.7-17.8c0 0-31.9 24.7-22.1 58.7 9.8 34.1-41.6 48.9-51.4 14.8-9.8-34-50-38-50-38z"/>
						<g id="&lt;Group&gt;">
							<path id="&lt;Path&gt;" class="s7" d="m461.6 636l-41.7-167 48.8-14 53.3 163.6c2.4 7.2-1.8 15-9.1 17.1l-34.5 9.9c-7.3 2.2-14.9-2.2-16.8-9.6z"/>
							<path id="&lt;Path&gt;" class="s8" d="m452.1 489.2c-13.5 3.9-27.9-5.2-32.2-20.2l48.8-14c4.3 15-3.1 30.3-16.6 34.2z"/>
						</g>
						<path id="&lt;Path&gt;" class="s9" d="m434.4 495.6c6.2 2.4 13.1 2.9 19.8 0.9l37.7 131c0.9 3.2-1 6.6-4.2 7.5l-11.2 3.2c-1.3 0.4-2.8 0.4-4.1-0.1-1.7-0.8-2.9-2.2-3.4-4z"/>
					</g>
				</g>
				<g id="&lt;Group&gt;">
					<path id="&lt;Path&gt;" class="s3" d="m193.2 447.9c-29.9-43.8-18.6-103.7 25.2-133.6 43.7-29.8 103.6-18.6 133.5 25.2 29.9 43.7 18.6 103.6-25.2 133.5-43.7 29.9-103.6 18.6-133.5-25.1z"/>
					<g id="&lt;Group&gt;">
						<path id="&lt;Path&gt;" class="s1" d="m202.2 441.7c-26.5-38.8-16.5-91.9 22.3-118.4 38.8-26.5 91.9-16.5 118.4 22.3 26.5 38.8 16.5 91.9-22.3 118.4-38.8 26.6-91.9 16.5-118.4-22.3z"/>
					</g>
					<path id="&lt;Path&gt;" class="s12" d="m230.6 332.3c33.9-23.2 80.2-14.5 103.4 19.4 23.1 33.9 14.4 80.2-19.5 103.4-33.9 23.2-80.2 14.4-103.4-19.5-23.1-33.9-14.4-80.2 19.5-103.3z"/>
					<g id="&lt;Group&gt;">
						<path id="&lt;Path&gt;" class="s1" d="m245.7 347.4c2.1-11 19.1-17.1 38.1-13.5 19 3.5 32.7 15.4 30.6 26.5-2.1 11-19.2 17.1-38.1 13.5-19-3.5-32.7-15.4-30.6-26.5z"/>
					</g>
					<path id="&lt;Path&gt;" class="s13" d="m214.5 373.5c-0.4 12.6 3 25.6 10.7 36.9 19.1 28 57.4 35.2 85.4 16.1 11.3-7.8 19.2-18.6 23.4-30.6-0.7 18.8-10 37.1-26.8 48.5-28 19.2-66.2 12-85.4-16.1-11.4-16.7-13.4-37.1-7.3-54.8z"/>
				</g>
			</g>
		</g>
	</g>
</svg>