<svg version="1.2" xmlns="http://www.w3.org/2000/svg" viewBox="0 0 3710 3710" width="3710" height="3710">
	<title>20943573-ai</title>
	<defs>
		<linearGradient id="g1" x1="2519.2" y1="4248.4" x2="573.8" y2="2546.1" gradientUnits="userSpaceOnUse">
			<stop offset="0" stop-color="#515475"/>
			<stop offset="1" stop-color="#515475"/>
		</linearGradient>
		<clipPath clipPathUnits="userSpaceOnUse" id="cp1">
			<path d="m3169.75 1242.03c0 233.1-188.96 422.06-422.06 422.06-233.1 0-422.06-188.96-422.06-422.06 0-233.1 188.96-422.06 422.06-422.06 233.1 0 422.06 188.96 422.06 422.06z"/>
		</clipPath>
		<linearGradient id="g2" x1="3576.3" y1="1074.9" x2="2712" y2="2171.1" gradientUnits="userSpaceOnUse">
			<stop offset="0" stop-color="#4042e2"/>
			<stop offset="0" stop-color="#7368e0"/>
			<stop offset="1" stop-color="#4f52ff"/>
		</linearGradient>
		<linearGradient id="g3" x1="2723.1" y1="1456.7" x2="2642.1" y2="1083.1" gradientUnits="userSpaceOnUse">
			<stop offset="0" stop-color="#febbba"/>
			<stop offset="1" stop-color="#ff928e"/>
		</linearGradient>
		<linearGradient id="g4" x1="12259.9" y1="-7473.9" x2="12412.7" y2="-7623.6" gradientUnits="userSpaceOnUse">
			<stop offset="0" stop-color="#febbba"/>
			<stop offset="1" stop-color="#ff928e"/>
		</linearGradient>
		<linearGradient id="g5" x1="2622.6" y1="1003.2" x2="2802.3" y2="896.3" gradientUnits="userSpaceOnUse">
			<stop offset="0" stop-color="#09005d"/>
			<stop offset="1" stop-color="#1a0f91"/>
		</linearGradient>
		<linearGradient id="g6" x1="10799" y1="-6481.7" x2="10928.2" y2="-6608.2" gradientUnits="userSpaceOnUse">
			<stop offset="0" stop-color="#febbba"/>
			<stop offset="1" stop-color="#ff928e"/>
		</linearGradient>
		<linearGradient id="g7" x1="3048.9" y1="1161.4" x2="2561.8" y2="1779.2" gradientUnits="userSpaceOnUse">
			<stop offset="0" stop-color="#6c63d6"/>
			<stop offset="1" stop-color="#4f52ff"/>
		</linearGradient>
		<linearGradient id="g8" x1="2749" y1="1858.7" x2="2578.4" y2="2014.3" gradientUnits="userSpaceOnUse">
			<stop offset="0" stop-color="#febbba"/>
			<stop offset="1" stop-color="#ff928e"/>
		</linearGradient>
		<linearGradient id="g9" x1="3391.2" y1="1495.6" x2="2934.3" y2="2075.2" gradientUnits="userSpaceOnUse">
			<stop offset="0" stop-color="#625eef"/>
			<stop offset="1" stop-color="#4f52ff"/>
		</linearGradient>
		<linearGradient id="g10" x1="2907.9" y1="1799.5" x2="3006.5" y2="1891.9" gradientUnits="userSpaceOnUse">
			<stop offset="0" stop-color="#febbba"/>
			<stop offset="1" stop-color="#ff928e"/>
		</linearGradient>
		<clipPath clipPathUnits="userSpaceOnUse" id="cp2">
			<path d="m2192.06 1001.66c0 233.1-188.96 422.06-422.06 422.06-233.1 0-422.06-188.96-422.06-422.06 0-233.1 188.96-422.06 422.06-422.06 233.1 0 422.06 188.96 422.06 422.06z"/>
		</clipPath>
		<linearGradient id="g11" x1="1689.2" y1="610.7" x2="1282.5" y2="1216.2" gradientUnits="userSpaceOnUse">
			<stop offset="0" stop-color="#09005d"/>
			<stop offset="1" stop-color="#1a0f91"/>
		</linearGradient>
		<linearGradient id="g12" x1="1704.8" y1="1041.9" x2="2019.7" y2="1041.9" gradientUnits="userSpaceOnUse">
			<stop offset="0" stop-color="#5a50b7"/>
			<stop offset="1" stop-color="#9188e7"/>
		</linearGradient>
		<linearGradient id="g13" x1="1950.2" y1="1240.6" x2="1915.9" y2="1042.7" gradientUnits="userSpaceOnUse">
			<stop offset="0" stop-color="#febbba"/>
			<stop offset="1" stop-color="#ff928e"/>
		</linearGradient>
		<linearGradient id="g14" x1="1989.7" y1="978.2" x2="1837.6" y2="564.3" gradientUnits="userSpaceOnUse">
			<stop offset="0" stop-color="#febbba"/>
			<stop offset="1" stop-color="#ff928e"/>
		</linearGradient>
		<linearGradient id="g15" x1="1837.3" y1="662.8" x2="1438.1" y2="1257.1" gradientUnits="userSpaceOnUse">
			<stop offset="0" stop-color="#09005d"/>
			<stop offset="1" stop-color="#1a0f91"/>
		</linearGradient>
		<linearGradient id="g16" x1="1886.8" y1="1001.6" x2="1741.9" y2="607" gradientUnits="userSpaceOnUse">
			<stop offset="0" stop-color="#febbba"/>
			<stop offset="1" stop-color="#ff928e"/>
		</linearGradient>
		<linearGradient id="g17" x1="1627.3" y1="1152.3" x2="1810.6" y2="1152.3" gradientUnits="userSpaceOnUse">
			<stop offset="0" stop-color="#fe7062"/>
			<stop offset="1" stop-color="#ff928e"/>
		</linearGradient>
		<clipPath clipPathUnits="userSpaceOnUse" id="cp3">
			<path d="m3231 2317.62c0 233.1-188.96 422.06-422.06 422.06-233.1 0-422.06-188.96-422.06-422.06 0-233.1 188.96-422.06 422.06-422.06 233.1 0 422.06 188.96 422.06 422.06z"/>
		</clipPath>
		<linearGradient id="g18" x1="3140.7" y1="1923.5" x2="2954.3" y2="2188.3" gradientUnits="userSpaceOnUse">
			<stop offset="0" stop-color="#09005d"/>
			<stop offset="1" stop-color="#1a0f91"/>
		</linearGradient>
		<linearGradient id="g19" x1="3125.9" y1="2330.3" x2="2931.4" y2="3235.7" gradientUnits="userSpaceOnUse">
			<stop offset="0" stop-color="#9a92ed"/>
			<stop offset="1" stop-color="#6c63ce"/>
		</linearGradient>
		<linearGradient id="g20" x1="2551" y1="2444.7" x2="2893.3" y2="3271.6" gradientUnits="userSpaceOnUse">
			<stop offset="0" stop-color="#febbba"/>
			<stop offset="1" stop-color="#ff928e"/>
		</linearGradient>
		<linearGradient id="g21" x1="3074.9" y1="2444.7" x2="2732.6" y2="3271.6" gradientUnits="userSpaceOnUse">
			<stop offset="0" stop-color="#febbba"/>
			<stop offset="1" stop-color="#ff928e"/>
		</linearGradient>
		<linearGradient id="g22" x1="2704.3" y1="2538.8" x2="2699.8" y2="2146.6" gradientUnits="userSpaceOnUse">
			<stop offset="0" stop-color="#febbba"/>
			<stop offset="1" stop-color="#ff928e"/>
		</linearGradient>
		<linearGradient id="g23" x1="2713.4" y1="2271" x2="2775.5" y2="1968.4" gradientUnits="userSpaceOnUse">
			<stop offset="0" stop-color="#febbba"/>
			<stop offset="1" stop-color="#ff928e"/>
		</linearGradient>
		<linearGradient id="g24" x1="3122.6" y1="1883.4" x2="2915.6" y2="2177.6" gradientUnits="userSpaceOnUse">
			<stop offset="0" stop-color="#09005d"/>
			<stop offset="1" stop-color="#1a0f91"/>
		</linearGradient>
		<linearGradient id="g25" x1="2727.4" y1="2316.6" x2="2692.1" y2="1934.9" gradientUnits="userSpaceOnUse">
			<stop offset="0" stop-color="#febbba"/>
			<stop offset="1" stop-color="#ff928e"/>
		</linearGradient>
		<linearGradient id="g26" x1="2822.3" y1="1725" x2="2605" y2="1534.8" gradientUnits="userSpaceOnUse">
			<stop offset="0" stop-color="#be1b1f"/>
			<stop offset="1" stop-color="#be1b1f"/>
		</linearGradient>
		<linearGradient id="g27" x1="2537.7" y1="1766.8" x2="1919.2" y2="2571.5" gradientUnits="userSpaceOnUse">
			<stop offset="0" stop-color="#febbba"/>
			<stop offset="1" stop-color="#ff928e"/>
		</linearGradient>
		<linearGradient id="g28" x1="1668.5" y1="3040.8" x2="-339.6" y2="5420.7" gradientUnits="userSpaceOnUse">
			<stop offset="0" stop-color="#6f63f0"/>
			<stop offset="1" stop-color="#1c1750"/>
		</linearGradient>
		<linearGradient id="g29" x1="2613.8" y1="921.1" x2="1537" y2="2310.3" gradientUnits="userSpaceOnUse">
			<stop offset="0" stop-color="#8a82e2"/>
			<stop offset="1" stop-color="#6f67c5"/>
		</linearGradient>
		<linearGradient id="g30" x1="921.3" y1="2143.5" x2="984.8" y2="1810.2" gradientUnits="userSpaceOnUse">
			<stop offset="0" stop-color="#febbba"/>
			<stop offset="1" stop-color="#ff928e"/>
		</linearGradient>
		<linearGradient id="g31" x1="1348.5" y1="1729.9" x2="993.2" y2="2001.8" gradientUnits="userSpaceOnUse">
			<stop offset="0" stop-color="#febbba"/>
			<stop offset="1" stop-color="#ff928e"/>
		</linearGradient>
		<linearGradient id="g32" x1="1167.9" y1="1131.5" x2="1524.4" y2="1590.6" gradientUnits="userSpaceOnUse">
			<stop offset="0" stop-color="#09005d"/>
			<stop offset="1" stop-color="#1a0f91"/>
		</linearGradient>
		<linearGradient id="g33" x1="1170.8" y1="1573.7" x2="885" y2="1792.3" gradientUnits="userSpaceOnUse">
			<stop offset="0" stop-color="#febbba"/>
			<stop offset="1" stop-color="#ff928e"/>
		</linearGradient>
		<linearGradient id="g34" x1="2670.8" y1="965.3" x2="2586.4" y2="1643.7" gradientUnits="userSpaceOnUse">
			<stop offset="0" stop-color="#febbba"/>
			<stop offset="1" stop-color="#ff928e"/>
		</linearGradient>
		<linearGradient id="g35" x1="682.2" y1="2749.3" x2="1542.3" y2="3135.3" gradientUnits="userSpaceOnUse">
			<stop offset="0" stop-color="#febbba"/>
			<stop offset="1" stop-color="#ff928e"/>
		</linearGradient>
		<linearGradient id="g36" x1="884.8" y1="3089.2" x2="1483.3" y2="3285.5" gradientUnits="userSpaceOnUse">
			<stop offset="0" stop-color="#4f41e4"/>
			<stop offset="1" stop-color="#332a8c"/>
		</linearGradient>
		<linearGradient id="g37" x1="1310.6" y1="2974.6" x2="1741.3" y2="3429.7" gradientUnits="userSpaceOnUse">
			<stop offset="0" stop-color="#6462d3"/>
			<stop offset="1" stop-color="#4f41e4"/>
		</linearGradient>
	</defs>
	<style>
		.s0 { opacity: .7;fill: url(#g1) } 
		.s1 { fill: #9992e4 } 
		.s2 { fill: #d1cdfd } 
		.s3 { fill: url(#g2) } 
		.s4 { fill: url(#g3) } 
		.s5 { fill: url(#g4) } 
		.s6 { fill: url(#g5) } 
		.s7 { fill: url(#g6) } 
		.s8 { fill: url(#g7) } 
		.s9 { fill: url(#g8) } 
		.s10 { fill: url(#g9) } 
		.s11 { fill: url(#g10) } 
		.s12 { fill: url(#g11) } 
		.s13 { fill: url(#g12) } 
		.s14 { fill: url(#g13) } 
		.s15 { fill: url(#g14) } 
		.s16 { fill: url(#g15) } 
		.s17 { fill: url(#g16) } 
		.s18 { fill: url(#g17) } 
		.s19 { fill: #91b3fa } 
		.s20 { fill: url(#g18) } 
		.s21 { fill: url(#g19) } 
		.s22 { fill: url(#g20) } 
		.s23 { fill: url(#g21) } 
		.s24 { fill: url(#g22) } 
		.s25 { fill: url(#g23) } 
		.s26 { fill: url(#g24) } 
		.s27 { fill: url(#g25) } 
		.s28 { opacity: .7;fill: url(#g26) } 
		.s29 { fill: url(#g27) } 
		.s30 { fill: url(#g28) } 
		.s31 { fill: url(#g29) } 
		.s32 { fill: url(#g30) } 
		.s33 { fill: url(#g31) } 
		.s34 { fill: url(#g32) } 
		.s35 { fill: url(#g33) } 
		.s36 { fill: url(#g34) } 
		.s37 { fill: url(#g35) } 
		.s38 { fill: url(#g36) } 
		.s39 { fill: url(#g37) } 
		.s40 { fill: #8d85e5 } 
	</style>
	<g id="Illustration">
		<g id="&lt;Group&gt;">
			<path id="&lt;Path&gt;" class="s0" d="m3133.6 2346.6c-271 633.7-992.9 988.7-1618.9 892.9-101.9-15.6-381.1-62-628.4-280.9-476-421.6-577.8-1256.3-193.8-1844.5 279.5-428.1 780.4-670.8 1256.4-658.7 102.5 2.6 495.5 18.8 840.8 301.5 50.7 41.6 162.6 140.3 263.4 296.8 236.8 367.7 257.1 880 80.5 1292.9z"/>
			<g id="&lt;Group&gt;">
				<circle id="&lt;Path&gt;" class="s1" cx="2748" cy="1241.7" r="443.3"/>
				<g id="&lt;Clip Group&gt;" clip-path="url(#cp1)">
					<path id="&lt;Path&gt;" class="s2" d="m3276.6 1773.3l-1022 33.3c-6.2 0.2-11.4-4.6-11.6-10.8l-36.8-1128.1c-0.2-6.1 4.7-11.3 10.8-11.5l1022-33.4c6.2-0.2 11.4 4.7 11.6 10.8l36.8 1128.1c0.2 6.2-4.7 11.4-10.8 11.6z"/>
					<g id="&lt;Group&gt;">
						<path id="&lt;Path&gt;" class="s3" d="m2530.5 1293.9q255.7-48.9 460.4-1.5l-6.7 210.1q-44.6 292.6-81 422.5-154.7 32.1-230.4-6.1-72.8-363.2-108.4-416.2-38.4-140.9-33.9-208.8z"/>
						<path id="&lt;Path&gt;" class="s4" d="m2789.9 1150l14.8 121.9q-49 35.9-121.6 5.4l19.9-174z"/>
						<g id="&lt;Group&gt;">
							<path id="&lt;Path&gt;" class="s5" d="m2809.6 986.9c0.8 1.5 19.1 88.3 30.4 142 4.6 22.2-11.1 43.5-33.7 45.6l-20.7 1.9c-38 3.5-72.4-22.5-79.4-60.1l-18.2-97.4q100.9-66.8 121.6-32z"/>
							<path id="&lt;Path&gt;" class="s6" d="m2665.7 1019.9c-8.3-9.6-15.7-25.4 0.6-42.7 16.6-17.6 36.2-14 48.7-8.7 5.5 2.4 12.2 1 16-3.7 1.6-2.1 4.1-3.6 8-3.3 7.2 0.6 13.4-4.3 14-11.5 1.1-12.3 7.1-27 28.7-31.9 39.6-9 60.7 30.2 60.9 58.2 0.2 28-43.2 35.4-68.1 31.5-18.3-2.8-33.5 13.7-40.3 22.6-2.5 3.3-3.3 7.5-2.2 11.4l7.1 26.9c-4 8.5-8 17.3-13.9 24.6-4.3 5.3-9 8.3-14.1 9.7-7.9-13.6-28.7-15.2-38.4-15.2-3.7 0-7.2-1.5-9.7-4.2-7.5-8.1-19.5-26.4 1.7-45.4 5.3-4.7 5.6-12.9 1-18.3z"/>
							<path id="&lt;Path&gt;" class="s7" d="m2673.9 1118.7c-17.8-28.7 3-43.7 23-39.7q19.9 3.9 22.3 52.8-23 22.6-45.3-13.1z"/>
						</g>
						<path id="&lt;Path&gt;" class="s8" d="m2567.9 1506q-128.6 207.3 52.1 350.3l1.1 33.9q-475.5-150.4-90.6-596.3 14.2 19.9 37.4 212.1z"/>
						<path id="&lt;Path&gt;" class="s9" d="m2623.5 1859.6q59.5-42.6 87-29.9 27.5 12.6 28.2 32.9-12.7 27.5-33.2 21.4c-20.5-6.1-67.4 9-87.9 2.9q-7.7-26.8 5.9-27.3z"/>
						<path id="&lt;Path&gt;" class="s10" d="m2983.9 1492.4q141.9 198.5-29.1 353l1.1 33.8q464.6-181 35-586.8-26 34.7-7 200z"/>
						<path id="&lt;Path&gt;" class="s11" d="m2959.1 1875.7c-20 7.5-67.8-4.5-87.9 2.9q-20.1 7.4-34.5-19.2-0.6-20.3 26-34.7 26.6-14.4 88.8 24.2 13.5-0.4 7.6 26.8z"/>
					</g>
				</g>
			</g>
			<g id="&lt;Group&gt;">
				<circle id="&lt;Path&gt;" class="s1" cx="1770.3" cy="1001.3" r="443.3"/>
				<g id="&lt;Clip Group&gt;" clip-path="url(#cp2)">
					<path id="&lt;Path&gt;" class="s2" d="m2298.9 1532.9l-1022 33.4c-6.2 0.2-11.4-4.7-11.6-10.9l-36.8-1128c-0.2-6.2 4.7-11.4 10.8-11.6l1022-33.4c6.2-0.2 11.4 4.7 11.6 10.9l36.8 1128c0.2 6.2-4.7 11.4-10.8 11.6z"/>
					<g id="&lt;Group&gt;">
						<path id="&lt;Path&gt;" class="s12" d="m1893.3 890.8l-13.6 449.1q-135 261.8-282 190.8c-65.7-31.7-78.3-74.3-72.2-111.8 6.4-39-20.4-75.4-59.2-83.5-52.7-10.9-103.9-46.2-93.5-144.4 13.6-128.7 125.9-171 199.2-185 29.5-5.6 50.6-30.2 53.3-60 5-57.8 58.4-79.5 85.7-93.8q49-25.7 40.8-40.7z"/>
						<path id="&lt;Path&gt;" class="s13" d="m1786.4 1454.6q39.1-197.1-81.6-303.4c57.2-58.9 154.3-94.4 190.3-106 8.9-2.9 18.5-1.3 25.9 4.3 32.1 24.1 117.2 94.2 107 154.3q-7.4 43.3-80.9 260.6-73.8 38.2-160.7-9.8z"/>
						<path id="&lt;Path&gt;" class="s14" d="m1849.1 899.5l31.5 12.7c8.7 3.4 14.1 12.3 13.1 21.6l-11.9 117.3c-0.3 2.2-0.7 4.4-1.7 6.4-9.9 19.5-41.2 30.1-65.6 35.7-14.9 3.3-28.3 6.2-25.3-8.7l31.5-169.7c2.6-12.9 16.2-20.2 28.4-15.3z"/>
						<g id="&lt;Group&gt;">
							<path id="&lt;Path&gt;" class="s15" d="m1887 758.7q40.9 25.6 60.5 93.8c19.6 68.2-7.4 93.8-36 93.3-28.6-0.5-70.4-7.8-108-55.9-37.7-48.1 30-162.3 83.5-131.2z"/>
							<path id="&lt;Path&gt;" class="s16" d="m1833.1 862.7q-14.8-22.2-25.1-7.4-10.4 14.7 3.9 47.6-20.3 33.8-50.2-3.7c-29.9-37.6-19.1-81.6 12.7-144.9 31.8-63.3 93-74.3 138.6-41.7q45.5 32.5 7.1 79l-17.2-16.6q-82.4-12.2-64.2 85.9z"/>
							<path id="&lt;Path&gt;" class="s17" d="m1818.9 892.4c-14.5-10.7-50.9-42.3-25.5-57.7q25.4-15.4 34.4 35z"/>
						</g>
						<path id="&lt;Path&gt;" class="s18" d="m1771.1 1239.4q-76.1 98.3-66.5 145.7 9.7 47.5 96.6 28.4l9.4 39.5c-53.7 57.7-206.3 23.3-193.8-72.7q12.5-96 87.5-226.2 40.4 14.5 66.8 85.3z"/>
						<path id="&lt;Path&gt;" class="s19" d="m1482.1 1277.7c-2.3 0.1-4.8-0.9-6.9-2.2-34.6-20.8-54.3-65.6-47.9-109 3.9-25.9 15.9-48.7 33.8-63.9 12.8-10.9 28.1-17.7 42.6-23.8 24.6-10.3 49.9-19.5 75.4-27.4q3.1-1 6.2-1.9c14.9-4.5 30.2-9.2 44-16.7 17.6-9.7 30.3-23.2 35.5-38.1 3.3-9.3 4-19.5 4.6-29.4 0.8-12.1 1.7-24.7 7.4-35.6 0.2-0.5 0.7-0.6 1.2-0.4 0.4 0.2 0.6 0.8 0.3 1.2-5.5 10.6-6.3 23-7.1 35-0.7 9.9-1.3 20.3-4.7 29.8-5.4 15.3-18.3 29.2-36.3 39-14 7.6-29.4 12.3-44.4 16.9q-3.1 0.9-6.2 1.9c-25.4 7.8-50.7 17-75.2 27.3-14.4 6.1-29.6 12.9-42.1 23.5-17.6 15-29.4 37.3-33.2 62.9-6.4 42.6 13 86.7 47 107.2 2.4 1.5 7.1 3.2 8.9 0.5 0.3-0.4 0.8-0.5 1.2-0.3 0.4 0.3 0.5 0.9 0.3 1.3-1.1 1.6-2.7 2.2-4.4 2.2z"/>
						<path id="&lt;Path&gt;" class="s19" d="m1472.1 1237.6c-0.3 0-0.6-0.2-0.7-0.4-13.8-19-21.3-39.3-21.8-58.5-0.6-22.6 9.2-43.9 25.4-55.7 0.4-0.3 1-0.2 1.2 0.2 0.3 0.4 0.2 0.9-0.2 1.2-15.7 11.5-25.2 32.3-24.6 54.3 0.5 18.8 7.9 38.7 21.4 57.5 0.3 0.4 0.2 0.9-0.2 1.2q-0.2 0.2-0.5 0.2z"/>
					</g>
				</g>
			</g>
			<g id="&lt;Group&gt;">
				<circle id="&lt;Path&gt;" class="s1" cx="2809.2" cy="2317.3" r="443.3"/>
				<g id="&lt;Clip Group&gt;" clip-path="url(#cp3)">
					<path id="&lt;Path&gt;" class="s2" d="m3337.8 2848.9l-1022 33.3c-6.1 0.2-11.3-4.6-11.5-10.8l-36.9-1128.1c-0.2-6.1 4.7-11.3 10.9-11.5l1022-33.4c6.1-0.2 11.3 4.7 11.5 10.8l36.9 1128.1c0.2 6.2-4.7 11.4-10.9 11.6z"/>
					<g id="&lt;Group&gt;">
						<path id="&lt;Path&gt;" class="s20" d="m2869.9 2089.8c49.2-5.1 89.9-2.8 82.9 24.9q-30.8 120.4-88.6 106.6-72.7 65.3-124.2 29.5-46.8-32.6-58.3-115 52.2-38.4 53-40 71.8 0.6 135.2-6z"/>
						<path id="&lt;Path&gt;" class="s21" d="m2637.2 2377.1c20.4-14 43-24.6 66.9-31.1 9-2.4 57.5 11.7 87.5 11 41.2-1 83.2-19.7 117.1-11.3 33.7 8.5 61.3 19.4 77.3 30.8 47.7 33.9 75.7 97.2 92.8 159.8q-32.4 33.2-73 48l-7.6 304.6-180.1 92.1-205.6-103.2 7.4-297.7q-65.3-30.4-70.1-41.4c-4.8-11.1 29.8-122 87.4-161.6z"/>
						<path id="&lt;Path&gt;" class="s22" d="m2629.7 2583.8q-26 202.3 60.7 221.5 15.9 68.8-25.5 74.3-199.5-99.7-112.1-342.3 52.9 26.7 76.9 46.5z"/>
						<path id="&lt;Path&gt;" class="s23" d="m3074.6 2537.3q60.2 253.2-112.1 342.3-41.4-5.5-25.5-74.3 69.9-34.4 60.7-221.5 24-19.8 76.9-46.5z"/>
						<path id="&lt;Path&gt;" class="s24" d="m2754.9 2336.4l1.6-62.2 88.5-6.5 4.9 65.5 58.8 12.5q-8 75.9-98 77.5-88.4 1.7-106.6-77.2z"/>
						<path id="&lt;Path&gt;" class="s25" d="m2869.3 2090.7q16.1-8.2 40.7 60.5c15.8 44.4-37.4 208.4-122.2 174.8q-120.2-47.6-18.8-244z"/>
						<path id="&lt;Path&gt;" class="s26" d="m2934.3 2064.2c50.1 13.7 7.3 122.3-68.1 96.6-75.3-25.6-105-25.3-116.7-4.6-11.8 20.7-14.3 94.2-39.8 57.9-27.9-39.8-43.5-119.8-9.2-145.6 30.6-23 37.7-58.7 74.5-57.5 48.7 1.7 86.4-19.9 108.4-4.4 25.3 17.9 14.1 47.4 50.9 57.6z"/>
						<path id="&lt;Path&gt;" class="s27" d="m2740.4 2222.2c-13 19.8-24.1-16.3-20.6-44.3q3.4-28 25-4.8 8.6 29.3-4.4 49.1z"/>
					</g>
				</g>
			</g>
			<path id="Shape 2" class="s28" d="m2849.8 1500.6q-8.8 20.6-23.6 35.4-14.8 14.8-35.2 23.7-20.5 8.8-43 8.8-32.5 0-60.3-18.1l153.1-152.9q17.7 27.2 17.7 59.9 0 22.5-8.7 43.2zm-212.3-43.2q0-30.1 14.8-55.7 14.9-25.5 40.2-40.4 25.4-14.8 55.5-14.8 33.5 0 60.9 18.5l-153.3 153.1q-18.1-27.8-18.1-60.7zm220.9-110.7q-20.8-20.9-49.8-33.3-28.9-12.4-60.6-12.4-31.7 0-60.6 12.4-29 12.4-49.8 33.3-20.8 20.9-33.2 49.9-12.4 28.9-12.4 60.8 0 31.9 12.4 60.9 12.4 29.1 33.2 50 20.8 20.9 49.8 33.3 28.9 12.4 60.6 12.4 31.7 0 60.6-12.4 29-12.4 49.8-33.3 20.8-20.9 33.2-50 12.4-29 12.4-60.9 0-31.9-12.4-60.8-12.4-29-33.2-49.9z"/>
			<g id="&lt;Group&gt;">
				<path id="&lt;Path&gt;" class="s29" d="m2732.2 1485.4l-99.5 30.8c0 31.2 5 60.2-3.4 93.2-6.4 25-22.8 46.4-44.8 60.2-22.1 13.8-51.6 31.4-77.1 43.8q-48.3 23.4-87 2.4c-50.8 249.9-156.7 402.4-279.3 493.6-20.6-136.4-68-217.6-97.4-256.6 204.2-92.3 309.5-285.5 344.7-362.6 10.6-23.3 29.2-42.1 52.6-52.9q117.6-54.3 311.1-97 10 33.8-19.9 45.1z"/>
				<path id="&lt;Path&gt;" class="s30" d="m553.5 2156.1c26.8-61.4 78.7-108.9 142.9-130.1 305-100.8 673.5-88.8 785.4-82.2 20.5 1.2 40.7 5.1 60 11.8 210.1 72.8 375.1 54.5 501.9-2.8 29.4 39 76.8 120.2 97.4 256.6-230.9 171.9-521.2 126.6-616.2 105.4 24.1 178.2 24.6 456.8-67 861.5-4.7 20.4-21.2 36.1-41.8 39.7-140.3 24-293.6 9.7-452.7-21.1-21.2-4.1-34.6-25.1-29.5-46.1 7-29.1 14.8-68.3 13.4-93.5-7.6-134.7-43.8-439.2-121.1-647.8-105.9 179.2-88.2 316.7-28.5 417.4-28.1 41.8-61 98.7-89.5 169.4-370.8-217.7-237.2-648.8-154.7-838.2z"/>
				<path id="&lt;Path&gt;" class="s31" d="m1525.4 2326.3c-4.2 0-7.9-3.1-8.4-7.4-23.9-180.1-72.4-258.7-72.9-259.4-2.5-4-1.3-9.2 2.6-11.7 4-2.5 9.2-1.3 11.7 2.6 2.1 3.3 51 82 75.4 266.3 0.6 4.6-2.7 8.9-7.3 9.5q-0.6 0.1-1.1 0.1z"/>
				<path id="&lt;Path&gt;" class="s32" d="m1208.9 1746.5l9.1 215.7c0.8 18.5-9.3 36-26.1 44.2-103.5 50.8-179.2 21.4-210.7 3.3-9.2-5.2-13.5-15.7-10.7-25.8q18.6-66 39.7-289.3z"/>
				<g id="&lt;Group&gt;">
					<path id="&lt;Path&gt;" class="s33" d="m1213.4 1409q67.6 155.1 72.1 236.6c4.5 81.4 22.1 134.2-72.1 150.6-94.1 16.4-173.5-30.5-216.4-111.6q-67.4-125-52.3-176.2 15.1-51.1 268.7-99.4z"/>
					<path id="&lt;Path&gt;" class="s34" d="m1004.9 1626.3c-4.1 0-7.1 3.8-6.2 7.8l15.5 70.5c0.8 3.6-1.5 7.1-5.1 7.7-14.6 2.4-52.4 4.6-103.1-22.4-49-26.2-30.1-45.9-17.4-54.1 3.6-2.3 3.6-7.5 0.3-10.3-69.9-57.2-83-126.8-51.1-153.6 18.4-15.4 32.1-13 40.7-7.7 4.3 2.6 9.8-0.2 9.9-5.3 1.9-80.3 78.7-127.3 194.9-148.7 81.7-15.1 112.3-44.5 123.6-62.6 2.9-4.7 10-3.7 11.5 1.6 1.6 5.6 9.1 6.3 11.8 1.2l3.9-7.4c1.6-3.1 5.4-4.2 8.5-2.8 47.2 21.4 78.5 96.6 43.1 154.8-36.8 60.5-207.5 95.4-250.6 113-33.4 13.7-7.6 72.5 5.7 98.2 3.4 6.6 0.5 14.7-6.3 17.7l-5.4 2.4z"/>
					<path id="&lt;Path&gt;" class="s35" d="m1020.6 1684.6c-35.7-3.7-103.2-86.9-58.7-114.7q44.4-27.8 70.2 71.3z"/>
				</g>
				<path id="&lt;Path&gt;" class="s36" d="m2472 1692.7c-1.9 0-3.8-0.6-5.3-1.9-3.7-2.9-4.2-8.3-1.2-11.9 7.3-9 72.2-88.4 97.2-102.5 9.1-5.1 14.5-10.4 15.7-15.3 0.5-2.4 0.1-5-1.2-8l-76.2 15.3-43.3 37.1c-3.5 3-8.8 2.6-11.9-1-3-3.5-2.6-8.8 0.9-11.9l44.9-38.5c1.1-1 2.4-1.6 3.9-1.9l84.4-16.9c3.4-0.7 6.8 0.7 8.7 3.6 6.2 9.1 8.2 17.7 6.2 26-2.3 9.9-10.1 18.5-23.8 26.2-18.8 10.7-73.1 74.7-92.4 98.5-1.7 2-4.1 3.1-6.6 3.1z"/>
				<path id="&lt;Path&gt;" class="s37" d="m708.2 2994.3c28.5-70.8 61.4-127.6 89.5-169.4q90.2 152.3 276.5 220.4c16.5-20.5 35.5-36 53.1-47.3 29.9-19.5 69.6-15.5 95.5 8.9l104.5 98.4-298.5-3.7c-134.8-22.5-239.7-59.8-320.6-107.3z"/>
				<g id="&lt;Group&gt;">
					<path id="&lt;Path&gt;" class="s38" d="m1028.7 3106.6c0-18.5 15.2-33.6 33.9-33.6l757.8-0.8c18.7-0.4 34 15 34 33.5 0 18.5-15.2 33.6-33.9 33.6l-757.8 0.8q-0.9 0-1.7 0c-18-0.9-32.2-15.5-32.3-33.5z"/>
					<path id="&lt;Path&gt;" class="s39" d="m2548.6 2527.5l-226.2 566.4c-11.1 27.6-38 45.8-68 45.8h-784.3l291.7-612.2c19.9-41.6 62.3-68.2 108.8-68.2h631.2c35.5 0 59.9 35.5 46.8 68.2z"/>
					<path id="&lt;Path&gt;" class="s40" d="m2129.2 2712.1c26.2 8.3 36.3 49.2 22.6 91.2-13.7 42-46 69.4-72.1 61.1-26.1-8.4-36.2-49.2-22.6-91.2 13.7-42.1 46-69.4 72.1-61.1z"/>
				</g>
			</g>
		</g>
	</g>
</svg>