<svg version="1.2" xmlns="http://www.w3.org/2000/svg" viewBox="0 0 3050 2000" width="3050" height="2000">
	<title>5516-ai</title>
	<style>
		.s0 { fill: #515475 } 
		.s1 { fill: #b1aee1 } 
		.s2 { fill: #95a6db } 
		.s3 { fill: #4364cc } 
		.s4 { fill: #768fdb } 
		.s5 { fill: #95adf5 } 
		.s6 { fill: #f37a50 } 
		.s7 { fill: #2c2858 } 
		.s8 { fill: #3f38ad } 
		.s9 { fill: #5048ce } 
		.s10 { fill: #9f9be3 } 
		.s11 { fill: #7a73e4 } 
		.s12 { fill: #000000 } 
		.s13 { fill: #de623c } 
		.s14 { fill: #ffffff } 
		.s15 { fill: #7169ff } 
		.s16 { fill: #201d40 } 
		.s17 { fill: #494c7f } 
		.s18 { fill: #ffd0b7 } 
		.s19 { fill: #5e58c9 } 
		.s20 { fill: #e3eaff } 
	</style>
	<g id="Слой 1">
		<g id="&lt;Group&gt;">
			<path id="&lt;Path&gt;" class="s0" d="m138.5 1863.8c-238.2-356.9-102.2-715.7 172.1-919.4 279-207-35.9-635.3 519.2-809.6 287.2-90.1 539.8 155.8 821.3 166.4 252.2 9.6 513.2-207.2 769.3-106.8 171.3 57.8 342.5 220.1 329.7 414.2-6.6 100.2-65 218.9-4.5 295.1 255.3 321.4 228.9 602.6 128.9 955.6q0 0-2736 4.5z"/>
			<path id="&lt;Path&gt;" class="s1" d="m2894.7 1877h-2771.7c-6.7 0-12.1-5.5-12.1-12.2 0-6.7 5.4-12.1 12.1-12.1h2771.7c6.7 0 12.1 5.4 12.1 12.1 0 6.7-5.4 12.2-12.1 12.2z"/>
			<g id="&lt;Group&gt;">
				<path id="&lt;Path&gt;" class="s2" d="m2891.2 1446.5q22.1 24.1 9.7 79.4-12.7 56.3 0.4 90.4l-18 24.7q-17.3-52.4-4.9-97.2 15.4-56 12.8-97.3z"/>
				<path id="&lt;Path&gt;" class="s2" d="m2962.1 1445.8q9.7 22-10.1 60.7-20.2 39.4-18.5 67.2l-15.2 19.6q-2.6-46.8 15-77.7 21.9-38.7 28.8-69.8z"/>
				<path id="&lt;Path&gt;" class="s2" d="m2855.1 1579.1c2.8 45.2 19.3 55.6 22.4 76.6l-21.6 38.5c-0.2-30.6-17-52.8-17.6-102.6q-0.8-61.2 16.4-80.5-2.2 25.7 0.4 68z"/>
				<path id="&lt;Path&gt;" class="s2" d="m2750.1 1787.1c27.5 35.9 41.2 30.4 58 45.1l-4.7 25.3c-7-9.4-32.1-9.7-60.4-50.8q-34.8-50.2-31.3-75.9 12.6 22.5 38.4 56.3z"/>
				<path id="&lt;Path&gt;" class="s2" d="m2815.3 1558.9q-4.4 44.4-1.4 71.3c4.2 38.2 23.6 54.6 30.8 93.4l-14.6 29.8q-27.7-35.9-31-83.3-5.6-79.6 16.2-111.2z"/>
				<path id="&lt;Path&gt;" class="s2" d="m2748.8 1595c9.8 23.1 16.2 47.4 19 72.2q7.9 75.4 57.3 119.3l-9.4 20.6q-56.5-27.4-61.3-90.9-5-67.1-5.6-121.2z"/>
				<path id="&lt;Path&gt;" class="s2" d="m2877.2 1661.3q15.8-10.3 89.7-18.1c47.4-5 29.8-19.2 76.3-16.3-32.3 10.7-37.8 37.5-81.6 44.7-35.1 5.7-69.6 14.2-103.3 25.3z"/>
				<path id="&lt;Path&gt;" class="s2" d="m3027.4 1675q-19.8 42.2-84.5 52.7c-39.9 6.5-78.3 19.6-113.9 38.6l11.6-36.6q21.9-25.4 90.2-29.8 47-3.1 96.6-24.9z"/>
				<path id="&lt;Path&gt;" class="s2" d="m3003.7 1744.5q-19.8 42.1-84.5 52.6c-39.8 6.6-78.3 19.6-113.9 38.7l11.6-36.6q21.9-25.4 90.3-29.9 46.9-3 96.5-24.8z"/>
				<path id="&lt;Path&gt;" class="s2" d="m3044.8 1547.9q-15.9 23.2-57.1 28.3-41.7 5.1-69.6 20.9l8.6-14.7q13.9-16 57.1-18.8 29.7-2 61-15.7z"/>
				<path id="&lt;Path&gt;" class="s2" d="m2905.5 1620.8q30.6-10.6 77.6-17.4 29.7-4.4 64.2-31-20 48.7-65 52.5-51.5 4.4-99.2 22.8z"/>
				<path id="&lt;Path&gt;" class="s2" d="m2924.8 1588q16.4-47 58.2-65.4c24.7-11.2 47.3-26.3 67-44.9q-14.2 47.8-54.4 60.6-37.1 11.9-57.4 43z"/>
				<path id="&lt;Path&gt;" class="s2" d="m2807.1 1857.4l-7.2-1.2c7.4-44.5 52.5-194 132.8-282.2l5.4 5c-79.2 87-123.7 234.5-131 278.4z"/>
			</g>
			<g id="&lt;Group&gt;">
				<path id="&lt;Path&gt;" class="s2" d="m187.1 1307q11.4 49.8-10.1 106.6l-18.6-28.1q16-36.8 4.8-99.4-11-61.4 14.5-86.8-4.9 45.3 9.4 107.7z"/>
				<path id="&lt;Path&gt;" class="s2" d="m128.1 1273.3q17.9 34.8 12.7 86.2l-15.8-22.4q3.3-30.4-17.1-74.7-19.9-43.5-8.2-67.2 6.1 34.5 28.4 78.1z"/>
				<path id="&lt;Path&gt;" class="s2" d="m214.7 1272.1q18 22.1 14.2 89.3c-3.2 54.8-22.6 78.3-24.3 112l-22-43.4c4.5-22.9 23.1-33.6 28.3-83.1q4.9-46.4 3.8-74.8z"/>
				<path id="&lt;Path&gt;" class="s2" d="m361.3 1520.6q2.6 28.3-38 82c-33.2 43.7-60.7 42.9-68.9 52.8l-3.9-28c19.2-15.4 34-8.6 66-46.8q29.9-35.9 44.8-60z"/>
				<path id="&lt;Path&gt;" class="s2" d="m268.2 1449.6q-6 52-38.1 90.1l-14.6-33.5c9.7-42.3 31.8-59.4 38.3-101.2q4.6-29.5 2-78.5 22.3 35.9 12.4 123.1z"/>
				<path id="&lt;Path&gt;" class="s2" d="m315.1 1502.5q-8.4 69.6-71.8 96.9l-12.1-20.6q59.2-48.3 71.5-130.8c4.3-27.2 12.5-53.7 24.4-78.5q-3.3 59.4-12 133z"/>
				<path id="&lt;Path&gt;" class="s2" d="m201.8 1476.2c-36.5-13.8-74.1-24.8-112.3-32.8-47.8-10-52.7-39.7-87.7-53.1 51.3-0.9 31.3 13.9 83.1 21.7q80.9 12.1 97.8 24.1z"/>
				<path id="&lt;Path&gt;" class="s2" d="m121.9 1476q75 8.2 97.8 37.1l11 40.8c-38.2-22.6-79.9-38.8-123.4-47.9q-70.6-14.7-90.4-61.9 53.5 26.3 105 31.9z"/>
				<path id="&lt;Path&gt;" class="s2" d="m144.6 1553.5q74.9 8.2 97.7 37.2l11.1 40.8c-38.2-22.7-79.9-38.9-123.4-48q-70.7-14.7-90.4-61.9 53.5 26.3 105 31.9z"/>
				<path id="&lt;Path&gt;" class="s2" d="m70.2 1323.6q47.4 5.2 61.8 23.5l8.8 16.5q-29.9-18.7-75.5-26.4-45-7.5-61.5-33.8 33.9 16.6 66.4 20.2z"/>
				<path id="&lt;Path&gt;" class="s2" d="m176.9 1420.9q-51.5-22.5-108-29.8-49.3-6.4-68.9-60.9 36.7 31 69.1 37.2 51.3 9.8 84.4 22.9z"/>
				<path id="&lt;Path&gt;" class="s2" d="m119.5 1345.3q-20.9-35.2-61.1-50-43.5-16-56.9-69.3c20.8 21.4 45 39.1 71.6 52.6q45 22.2 60.8 74.7z"/>
				<path id="&lt;Path&gt;" class="s2" d="m119.7 1342.7l6.2-5.1c84.1 100.8 126.5 267.3 132.4 316.6l-8 0.9c-5.9-48.6-47.7-212.9-130.6-312.4z"/>
			</g>
			<g id="&lt;Group&gt;">
				<g id="&lt;Group&gt;">
					<path id="&lt;Path&gt;" class="s3" d="m1737.5 1655.6l-42.6 198.1c-1.1 5.3-3 8.4-5.1 8.4-3.7 0-6.6-10.5-6-22.2l9.3-184.3z"/>
					<path id="&lt;Path&gt;" class="s3" d="m2868.1 1655.6l9.2 184.3c0.6 11.7-2.2 22.2-6 22.2-2 0-3.9-3.1-5.1-8.4l-42.6-198.1z"/>
					<path id="&lt;Path&gt;" class="s3" d="m2537.4 1655.6l9.3 184.3c0.6 11.7-2.3 22.2-6 22.2-2.1 0-4-3.1-5.1-8.4l-42.7-198.1z"/>
					<path id="&lt;Path&gt;" class="s4" d="m2182.7 1691.3h-455c-26.3 0-47.7-21.4-47.7-47.8v-242.8c0-20.6 16.6-37.2 37.1-37.2h465.6z"/>
					<path id="&lt;Path&gt;" class="s3" d="m2278.1 1691.3h-455c-26.4 0-47.8-21.4-47.8-47.8v-242.8c0-20.6 16.7-37.2 37.2-37.2h465.6z"/>
					<path id="&lt;Path&gt;" class="s4" d="m2814.5 1446.4h-813.4v-170.8c0-19.7 16-35.6 35.7-35.6h777.7z"/>
					<path id="&lt;Path&gt;" class="s5" d="m2869.8 1534.6h-1095.3v-50.3c0-24 19.5-43.5 43.6-43.5h1051.7z"/>
					<path id="&lt;Path&gt;" class="s4" d="m1774.5 1523.7h1095.3v167.8h-1095.3z"/>
					<path id="&lt;Path&gt;" class="s3" d="m2869.7 1446.4h-110.4v-206.4h74.8c19.7 0 35.6 15.9 35.6 35.6z"/>
				</g>
				<g id="&lt;Group&gt;">
					<path id="&lt;Path&gt;" class="s6" d="m1773.1 1810.9l-35.4 11.5-16.9-31.1c1.5-1.2 2.4-22.7 2.8-39l58.7 4.1c-1.8 16.6-5.2 38.3-9.2 54.5z"/>
					<g id="&lt;Group&gt;">
						<g id="&lt;Group&gt;">
							<path id="&lt;Path&gt;" class="s7" d="m1780 1795.8c5.2 17.4 11.2 35.3-3.3 41.1-14.1 5.5-20.5 1.8-58.6 14.4-31.8 10.6-49.5 9.2-62.8 6-9-2.2-12.1-5.6-13.1-8.9-1.7-5.3-3.5-13.6-0.5-17.8q9.6-13.2 39.3-16.9 15.9 0.3 29.8 20.4 59.8-15.9 69.2-38.3z"/>
						</g>
						<g id="&lt;Group&gt;">
							<g id="&lt;Group&gt;">
								<path id="&lt;Path&gt;" class="s3" d="m1749.8 1815.2c26.3-12.4 27.6-24.3 27.6-28.8 5.3 17.4 13.5 37.6-1 43.4-14.1 5.5-20.5 1.8-58.6 14.4-31.8 10.6-49.5 9.2-62.8 6-9-2.2-12.1-5.6-13.1-8.9-6.9-22.2 26.4-31 38.8-34.7q22.3-6.7 38.9-18.4c26.6-5.2 22.4 30.7 30.2 27z"/>
							</g>
						</g>
					</g>
					<path id="&lt;Path&gt;" class="s6" d="m1913.7 1806.8l-34.5 14-19-29.9c1.3-1.3 0.7-22.8 0-39.1h58.8c-0.6 16.6-2.4 38.6-5.3 55z"/>
					<path id="&lt;Path&gt;" class="s8" d="m2055.1 1417.1c16.5 40.5-29.8 64.3-74.5 85q-90.5 42-152.5 41.9c-0.8 47.9-24.1 100.6-42.3 219.6h-64.5c1-150.8 2.8-235.8 24.4-261.9 10.5-12.6 121.4-72.4 200.9-92.5 75.8-19.1 95.4-24.3 108.5 7.9z"/>
					<path id="&lt;Path&gt;" class="s9" d="m2188.6 1421.8c10.9 51.8-34.4 49.8-79.1 70.5q-90.5 42-155.8 51.7c3.9 57.1-26.5 146.6-32.7 225.2h-60.8c0.9-150.9-8.2-234.7 13.4-260.8 10.5-12.6 94.6-95.1 161-106.5 77.1-13.2 146.9-14.2 154 19.9z"/>
					<g id="&lt;Group&gt;">
						<g id="&lt;Group&gt;">
							<g id="&lt;Group&gt;">
								<g id="&lt;Group&gt;">
									<path id="&lt;Path&gt;" class="s6" d="m1837.7 1131.1q16.8-17 5.8-34.3c9.2-2 57.8 71.6 78.8 118.5 36.6-36.9 101-86.7 118.4-89.6q23.5-6.3 32 22.1 7.5 25.4-21.9 43.4-125.8 88.8-144.4 80.9c-28.9-12.3-55.1-118-68.7-141z"/>
								</g>
							</g>
						</g>
						<g id="&lt;Group&gt;">
							<g id="&lt;Group&gt;">
								<g id="&lt;Group&gt;">
									<g id="&lt;Group&gt;">
										<path id="&lt;Path&gt;" class="s6" d="m1735.4 1099.6c-6.9-7.4 12.1-12.3 22.2-8.5 40.3 15.1 53.5-0.8 33.6-3.2-15.8-1.9-13.1-11.6-12.3-13.1 0.9-1.4 5.9-0.3 16.9 0.7 4.2 0.3 46.6 8.2 64 36.1l-1.2 12.3-20.3 9.8c-3.9-9.2-16.6-4.1-26.9-4.7-46.7-2.9-68.5-21.3-76-29.4z"/>
									</g>
								</g>
							</g>
						</g>
					</g>
					<path id="&lt;Path&gt;" class="s7" d="m2034.7 1146.5c-31.3-4.4-81.1-17.8-60.1-66.1 21-48.2 24.1-29.8 2.6-78.4-21.5-48.7 6.2-96.4 42.9-93.6 36.6 2.9 51.4 29 92.2 12.9 40.8-16 84.4 16.2 75.7 53.9-8.7 37.7-12 55.6 6.9 71.5 18.9 15.8 90.4 22.1 72 73.5-18.4 51.5-31.8 51.4-17.1 72.7 14.6 21.2-2.2 52.5-41.9 57.1-39.7 4.6-78-2.6-101.4-43.1q-23.5-40.4-71.8-60.4z"/>
					<path id="&lt;Path&gt;" class="s10" d="m1967.7 1164.7c26.5-16 70.4-61 103.8-47.7 33.4 13.3 22.1 53.7 6.1 70.4q-16 16.7-65.6 54.9z"/>
					<path id="&lt;Path&gt;" class="s11" d="m2057.8 1426q-63.2-12-76.5-25.3l19.2-48.1q-8-84.1 1.1-140.4c4.8-29.6 14.4-73 63.2-97.1l50.9-11.3c114.8 35.4 36.3 106.9 51.5 196.1 6.2 36.1 2.5 35.9 17.4 112.6q-63.6 25.4-126.8 13.5z"/>
					<path id="&lt;Path&gt;" class="s6" d="m2196.3 1184.8c12.2 45.1 13.5 194.5 3.1 207.9l-52.4-29.1q-24.2-155.5-27-181.5c-4.9-45 56.5-71.1 76.3 2.7z"/>
					<path id="&lt;Path&gt;" class="s10" d="m2119.1 1256c-4.9-34.3-11.4-99.9 17.4-121.5 28.8-21.5 56.4 4.7 62.3 27.1q5.9 22.3 12.5 84.6z"/>
					<path id="&lt;Path&gt;" class="s6" d="m2135.9 1027c-1.1 40.6-27.8 72.7-59.7 71.9-31.8-0.9-56.7-34.4-55.6-74.9 1-40.6 27.7-72.8 59.6-71.9 31.8 0.8 56.7 34.4 55.7 74.9z"/>
					<path id="&lt;Path&gt;" class="s6" d="m2125.9 1103.8q-1.2 13.2-14.2 25.7c-12.9 12.4-31.9 9.6-30.5-6.3q0.7-7.7 0.5-30.9l43.8-41.8z"/>
					<path id="&lt;Path&gt;" class="s7" d="m2081.5 943.4c54.6 10.8 65.7 62.1 70.5 90.3-30.9-6.2-70.7-24.9-84.5-50.4-8.5 15.8-39 24.9-53.5 26.7q24.7-75.1 67.5-66.6z"/>
					<path id="&lt;Path&gt;" class="s12" d="m2036.2 1033.2c-0.7 2.9-3.8 4.7-6.7 3.9-3-0.7-4.8-3.7-4-6.7 0.8-3 3.8-4.7 6.7-4 3 0.8 4.8 3.8 4 6.8z"/>
					<path id="&lt;Path&gt;" class="s12" d="m2081.7 1032.6c-0.8 3.2-4.1 5.1-7.3 4.3-3.2-0.8-5.2-4.1-4.3-7.3 0.8-3.2 4.1-5.1 7.3-4.3 3.2 0.8 5.1 4.1 4.3 7.3z"/>
					<g id="&lt;Group&gt;">
						<path id="&lt;Path&gt;" class="s7" d="m2087.1 1026.4c-0.4-0.1-0.8-0.4-1.1-0.8-4.3-5.7-12.5-5.3-12.6-5.3-1.1 0.1-2.1-0.8-2.2-1.9-0.1-1.2 0.8-2.2 2-2.2 0.4-0.1 10.5-0.7 16.1 6.9 0.7 0.9 0.5 2.2-0.4 2.9-0.5 0.4-1.2 0.5-1.8 0.4z"/>
					</g>
					<g id="&lt;Group&gt;">
						<path id="&lt;Path&gt;" class="s7" d="m2023.4 1025.7q-0.3 0-0.6-0.2c-1-0.7-1.2-2-0.6-2.9 4.9-7.5 13.1-6.6 13.5-6.5 1.1 0.1 1.9 1.2 1.8 2.3-0.2 1.1-1.2 2-2.3 1.8-0.3 0-6.1-0.6-9.5 4.7-0.5 0.7-1.4 1.1-2.3 0.8z"/>
					</g>
					<path id="&lt;Path&gt;" class="s13" d="m2044.7 1042.8c-0.6 3.1-1.5 6.9-2 8.7-0.2 0.9-0.1 1.7 0.5 2.4 1 1.3 3.4 3.6 8.3 6.3 0.5 0.4 0.2 1.2-0.4 1.1-4.5-0.9-11.9-2.8-15.1-6.4-0.7-0.8-0.7-2.2 0.1-3 2.5-2.4 4.4-6.1 6.8-9.8 0.5-0.9 2-0.3 1.8 0.7z"/>
					<path id="&lt;Path&gt;" class="s6" d="m2143.3 1026.3c5.9 5 5.8 15-0.4 22.3-6.1 7.3-16 9.1-21.9 4.1-6-5.1-5.8-15 0.3-22.3 6.2-7.3 16-9.1 22-4.1z"/>
					<g id="&lt;Group&gt;">
						<path id="&lt;Path&gt;" class="s13" d="m2129.6 1049q-0.4-0.1-0.8-0.4c-3.6-3.2-4.8-7.4-3.1-11.2 1.7-3.9 5.9-6.4 10-6 1.1 0.2 2 1.2 1.8 2.3-0.1 1.2-1.1 2-2.3 1.9-2.2-0.3-4.7 1.3-5.7 3.5-0.9 2.1-0.2 4.4 2 6.3 0.9 0.8 1 2.1 0.2 3-0.5 0.6-1.3 0.8-2.1 0.6z"/>
					</g>
					<path id="&lt;Path&gt;" class="s6" d="m2151 1359.4c15.1-4.8 50.1 28 48.9 33.4q-45 82.5-160.3 116.4l-20.1-15.2q77.6-65.4 131.5-134.6z"/>
					<path id="&lt;Path&gt;" class="s6" d="m2039.6 1509.2c-2.2 21.6-34.3 49.6-62.3 51.6-28.1 2-19.1-25-8.1-32 11.1-7 26.9-14 23-19.6-3.9-5.5-10.9-4-15.9-10.5-4.5-5.8 17.3-17.2 43.2-4.7q8.7 6.6 20.1 15.2z"/>
					<path id="&lt;Path&gt;" class="s14" d="m2062.5 1073.9c0.8 3.8-1.9 7.7-6.1 8.6-4.2 0.9-8.3-1.5-9.1-5.4-0.8-3.8 1.9-7.7 6.1-8.6 4.2-0.8 8.3 1.6 9.1 5.4z"/>
					<g id="&lt;Group&gt;">
						<g id="&lt;Group&gt;">
							<path id="&lt;Path&gt;" class="s7" d="m1919.5 1791.3c6.4 17 13.7 34.3-0.4 41.1-13.6 6.6-20.3 3.3-57.5 18.6-30.9 12.7-48.7 12.6-62.1 10.4-9.2-1.6-12.5-4.8-13.8-8-2-5.2-4.4-13.4-1.7-17.7q8.7-13.9 38-19.7 15.9-0.8 31.1 18.3 58.6-20.1 66.4-43z"/>
						</g>
						<g id="&lt;Group&gt;">
							<g id="&lt;Group&gt;">
								<path id="&lt;Path&gt;" class="s3" d="m1890.8 1812.7c25.3-14.2 25.7-26.2 25.5-30.7 6.4 17 16.1 36.6 2 43.3-13.6 6.6-20.3 3.3-57.5 18.6-30.9 12.8-48.7 12.7-62.1 10.4-9.2-1.5-12.5-4.8-13.7-8-8.5-21.6 24.1-32.7 36.3-37.3q21.7-8.3 37.5-21.1c26.1-7.1 24.4 29 32 24.8z"/>
							</g>
						</g>
					</g>
				</g>
				<g id="c 1 ">
					<path id="&lt;Path&gt;" class="s15" d="m2376.5 1261.9c-3.8 12.9-6.1 41.9-12.7 56.3q-28.9 63-91.2 120.2-20.3 15.5-44.8 9.9c26.3-54.2 46.7-95.6 74.1-149.4 17-88.3 37-172.8 77.1-184.9q-0.9 107.5-2.5 147.9z"/>
					<path id="&lt;Path&gt;" class="s6" d="m2167.5 1811.1l-35.4 11.5-16.9-31.1c1.5-1.2 2.4-22.7 2.7-39.1l58.8 4.2c-1.8 16.5-5.2 38.3-9.2 54.5z"/>
					<g id="&lt;Group&gt;">
						<g id="&lt;Group&gt;">
							<path id="&lt;Path&gt;" class="s16" d="m2174.4 1796c5.2 17.4 11.2 35.2-3.4 41-14 5.6-20.5 1.9-58.6 14.5-31.7 10.5-49.4 9.2-62.7 6-9-2.2-12.1-5.6-13.1-9-1.7-5.2-3.5-13.6-0.5-17.7q9.6-13.2 39.3-16.9 15.9 0.2 29.8 20.3 59.8-15.8 69.2-38.2z"/>
						</g>
						<g id="&lt;Group&gt;">
							<g id="&lt;Group&gt;">
								<path id="&lt;Path&gt;" class="s7" d="m2144.2 1815.4c26.3-12.4 27.6-24.3 27.6-28.8 5.2 17.4 13.5 37.6-1.1 43.3-14 5.6-20.4 1.9-58.5 14.5-31.8 10.6-49.5 9.2-62.8 6-9-2.2-12.1-5.6-13.1-8.9-7-22.2 26.4-31 38.8-34.7q22.3-6.7 38.9-18.4c26.6-5.3 22.4 30.7 30.2 27z"/>
							</g>
						</g>
						<g id="&lt;Group&gt;">
							<path id="&lt;Path&gt;" class="s17" d="m2120.9 1815.2c-1.3 0-2.5-0.8-3-2.1-3.4-10.9-14.9-10.9-15.3-10.9-1.7 0-3.1-1.3-3.1-3-0.1-1.7 1.3-3.1 3-3.1 5.6-0.1 17.4 2.9 21.3 15.1 0.5 1.6-0.4 3.3-2 3.8q-0.5 0.2-0.9 0.2z"/>
						</g>
						<g id="&lt;Group&gt;">
							<path id="&lt;Path&gt;" class="s17" d="m2107 1821.8c-1.3 0-2.5-0.8-2.9-2.1-3.5-10.8-14.9-10.8-15.4-10.8-1.7 0-3.1-1.4-3.1-3.1 0-1.7 1.3-3 3-3.1 5.7-0.1 17.4 3 21.3 15.1 0.6 1.6-0.3 3.4-1.9 3.9q-0.5 0.1-1 0.1z"/>
						</g>
					</g>
					<path id="&lt;Path&gt;" class="s6" d="m2309.2 1815.3l-34.6 14-19-29.9c1.4-1.3 5-24.2 4.2-40.5l54.7 1.3c-0.6 16.7-2.4 38.6-5.3 55.1z"/>
					<path id="&lt;Path&gt;" class="s16" d="m2449.5 1417.3c16.5 40.4-29.9 64.2-74.5 85q-90.5 42-152.5 41.9c-0.8 47.9-21.9 100.6-40 219.6h-70.8c1-150.8 6.7-235.9 28.4-261.9 10.5-12.6 121.3-72.4 200.9-92.5 75.8-19.1 95.3-24.3 108.5 7.9z"/>
					<path id="&lt;Path&gt;" class="s7" d="m2583.5 1400.8c5.7 5.7 2.8 33.4 0.1 45.4-7.8 35.4-23.2 44.7-75.6 60.2q-95.6 28.3-157.5 46.1c3.9 57.1-23.3 148.4-29.5 226.9l-70.5-1.8c0.9-150.8-1.7-234.7 19.9-260.7 10.5-12.6 94.6-95.1 161.1-106.5 62.8-10.7 126.7-35.1 152-9.6z"/>
					<g id="&lt;Group&gt;">
						<g id="&lt;Group&gt;">
							<path id="&lt;Path&gt;" class="s16" d="m2315 1799.7c6.4 17 13.6 34.4-0.5 41.2-13.6 6.5-20.3 3.3-57.4 18.6-30.9 12.7-48.7 12.6-62.2 10.3-9.1-1.5-12.4-4.7-13.7-8-2-5.1-4.4-13.3-1.7-17.6q8.7-13.9 38-19.7 15.9-0.8 31.1 18.3 58.6-20.1 66.4-43.1z"/>
						</g>
						<g id="&lt;Group&gt;">
							<g id="&lt;Group&gt;">
								<path id="&lt;Path&gt;" class="s7" d="m2286.3 1821.2c25.3-14.2 25.7-26.2 25.5-30.7 6.4 17 16 36.5 2 43.3-13.6 6.6-20.4 3.3-57.5 18.6-30.9 12.7-48.7 12.7-62.2 10.4-9.1-1.6-12.4-4.8-13.7-8-8.4-21.6 24.2-32.7 36.3-37.3q21.8-8.3 37.5-21.1c26.2-7.1 24.5 29 32.1 24.8z"/>
							</g>
						</g>
						<g id="&lt;Group&gt;">
							<path id="&lt;Path&gt;" class="s17" d="m2268.9 1823.4c-1.2 0-2.5-0.8-2.9-2.1-3.4-10.8-14.9-10.9-15.4-10.9-1.6 0.1-3-1.3-3.1-3 0-1.7 1.4-3.1 3.1-3.1 5.6-0.1 17.4 2.9 21.3 15.1 0.5 1.6-0.4 3.4-2 3.9q-0.5 0.1-1 0.1z"/>
						</g>
						<g id="&lt;Group&gt;">
							<path id="&lt;Path&gt;" class="s17" d="m2255.1 1830.1c-1.3 0-2.5-0.9-2.9-2.2-3.5-10.8-14.9-10.8-15.4-10.8-1.7 0-3.1-1.3-3.1-3 0-1.7 1.3-3.1 3-3.1 5.7-0.2 17.4 2.9 21.3 15.1 0.6 1.6-0.3 3.3-1.9 3.8q-0.5 0.2-1 0.2z"/>
						</g>
					</g>
					<g id="&lt;Group&gt;">
						<path id="v-2 2 " class="s6" d="m2505 1046.5l5.4 63.3-33.3 16.3-31.2-16.4 6.1-63.2 26.7-0.1z"/>
						<g id="&lt;Group&gt;">
							<g id="&lt;Group&gt;">
								<path id="&lt;Path&gt;" class="s7" d="m2424.9 1017.3c-7.8-5.1-15.3-10.9-21.8-17.8-4-4.3 0.1-19.2-5.2-21.8q-5-1.8-9.4-6.9c-7-7.9-7-20-2.4-28q7-11.9 21.9-12.4c-3.3-6.8-3.1-22.7 7.5-32q11.4-9.9 28.4-5.3c11.5-26.3 33.6-7.9 46.3-7.3 11.4 0.6 21.7-12.1 44.1 0.7q18.3 10.4 13.4 29.8c32.2 11.7 17.3 34.7 15.3 45.2-2.4 13.2 8.4 15.9 7.6 27.6-0.9 13.8-12.1 18.3-19.5 18.4q-1.8 14.9-16.8 13-21 26-43.5 16.3z"/>
								<path id="&lt;Path&gt;" class="s6" d="m2539.3 1005.8c-7.5 43.6-47 76.8-81.3 70.9-34.3-5.9-50.4-48.6-42.9-92.3 7.5-43.6 41.4-74.2 75.7-68.4 34.3 5.9 56 46.1 48.5 89.8z"/>
								<path id="&lt;Path&gt;" class="s12" d="m2431.7 994.7c-1.3 3.1-4.9 4.5-7.9 3.2-3.1-1.2-4.6-4.8-3.3-7.9 1.3-3.1 4.9-4.5 7.9-3.2 3.1 1.3 4.6 4.8 3.3 7.9z"/>
								<path id="&lt;Path&gt;" class="s12" d="m2479.9 1003.3c-1.4 3.4-5.3 4.9-8.6 3.5-3.3-1.4-4.9-5.2-3.5-8.5 1.4-3.4 5.2-4.9 8.6-3.6 3.3 1.4 4.9 5.3 3.5 8.6z"/>
								<path id="&lt;Path&gt;" class="s13" d="m2435.3 1017.9c-3 6.5 1.6 10.7 6.5 13.5q-12.2-1.7-14.1-11.4 8.3-9.8 15-17.8-4.4 9.1-7.4 15.7z"/>
								<g id="&lt;Group&gt;">
									<path id="&lt;Path&gt;" class="s7" d="m2487.4 995.3c-0.1-0.1-3.7-7.6-10.4-6.2-1.6 0.4-3.2-0.7-3.6-2.3-0.3-1.6 0.7-3.2 2.4-3.6 9-1.9 15.1 5.4 17 9.5 0.7 1.5 0.1 3.3-1.4 4q-0.3 0.2-0.7 0.3c-1.3 0.3-2.7-0.4-3.3-1.7z"/>
								</g>
								<g id="&lt;Group&gt;">
									<path id="&lt;Path&gt;" class="s7" d="m2432.8 980.1c0 0-2.1-2.2-4.9-2.2-1.9 0.1-3.9 1.3-5.8 3.6-0.8 1.1-2.4 1.3-3.5 0.4-1.1-0.9-1.2-2.5-0.4-3.5 2.9-3.6 6.1-5.4 9.6-5.5 5.1-0.1 8.6 3.6 8.7 3.8 1 1 0.9 2.6-0.1 3.6q-0.5 0.4-1.2 0.6c-0.8 0.1-1.8-0.1-2.4-0.8z"/>
								</g>
								<path id="&lt;Path&gt;" class="s7" d="m2412.1 931.6l80.3-38.3 68.9 65-27.1 55.5c5.8-27.6-13.3-23.7-19.5-34.1-6.3-10.5-6.4-24.1-30-19.1q-13.2-16.2-26.4-2.6c-10.2 10.5-18.4 5.5-27.5 3.5-10.7-2.3-11.2 8.6-17.5 6.4z"/>
								<g id="&lt;Group&gt;">
									<path id="&lt;Path&gt;" class="s6" d="m2554.4 1000.1c5.7 6.4 3.9 17.2-3.9 24.1-7.8 6.8-18.7 7.2-24.4 0.9-5.6-6.4-3.8-17.2 4-24.1 7.8-6.9 18.7-7.3 24.3-0.9z"/>
									<g id="&lt;Group&gt;">
										<path id="&lt;Path&gt;" class="s13" d="m2536.1 1022.5q-0.5-0.2-0.9-0.6c-3.4-4-3.9-8.7-1.5-12.6 2.5-3.9 7.4-6 11.7-4.8 1.2 0.3 2 1.5 1.7 2.7-0.4 1.3-1.6 2-2.8 1.7-2.4-0.7-5.4 0.6-6.8 2.8-1.3 2.2-0.9 4.7 1.2 7.2 0.8 1 0.7 2.4-0.2 3.2-0.7 0.6-1.6 0.7-2.4 0.4z"/>
									</g>
								</g>
								<path id="&lt;Path&gt;" class="s14" d="m2455.6 1049.7c-0.9 4.9-6 8.1-11.3 7.1-5.3-1-8.9-5.7-8.1-10.6 0.9-4.9 6-8 11.3-7.1 5.3 1 8.9 5.7 8.1 10.6z"/>
							</g>
						</g>
					</g>
					<g id="v 62 ">
						<path id="v-25 3 " class="s18" d="m2505.8 1279.8l-31.3 9.2-28.5-14-51.5-141.4c0 0.4 10.7-17.2 80-17.2 20.5-0.6 41 2.5 60.4 9q11.3 4.2-29.1 154.4z"/>
						<path id="&lt;Path&gt;" class="s19" d="m2586.8 1406.6q-56.5 14.5-109 14.8-52.4-0.3-107.9-19.2 7.1-96.3 6.4-133.3c-1.1-42.5 2.7-98.8 2.7-154.9q37.2-6 58.2-8.6c3.4-0.4 6.4-0.8 8.7-1q12 25.1 64 0c2.8-0.2 6.2-0.2 10 0q21.9 1.3 57.1 9.6c0 55.9 2.3 110.8 1.5 153.3q2.3 37.9 8.3 139.3z"/>
					</g>
					<g id="c 2 ">
						<path id="&lt;Path&gt;" class="s6" d="m2445.2 1267.1l-17-5.9q-3.6 6.2-33.7 1.7c-23.2-3.4-42.9-25.8-31.5-27.6 7.7-1.2-2.2-18.1 21-12.9q23.8 13.3 33.9 5.5-3.4-10.8-5.7-18.4 20.4 0.4 23.9 18.4l12.7 7.4z"/>
						<path id="c 3 " class="s15" d="m2574.6 1114.2l2.4-0.2c69.8 38.7 89.4 207.8 61.6 220.5-30.4 13.9-129.6-4.7-195.5-62.5q-3.2-23.6 8.3-41.4 72.4 21 114.9 23.9-15.6-99.9 8.3-140.3z"/>
					</g>
					<path id="c 4748 " class="s6" d="m2220.9 1454.9c-4.5-2.8-6.1-8.2-3.8-11.9 2-3.1 6.2-4.1 10-2.7 0.1-1.4 0.4-2.7 1.2-3.9 2-3.1 6.2-4.2 10.8-3.2q0.2-1.2 0.9-2.3c2.5-4 8.7-4.7 14.4-1.9 0.1-1.3 0.5-2.5 1.3-3.6 2.8-4.4 9.3-5.3 14.6-1.9 5.2 3.3 7.2 9.6 4.4 14-2.3 3.6-6.9 4.8-11.4 3.4 0.1 1.5-0.3 3-1.1 4.2-2 3.2-6.2 4.3-10.8 3.2q-0.2 1.2-0.9 2.3c-2.8 4.4-10.1 4.8-16.2 0.9q-0.2-0.1-0.3-0.2c-0.2 0.7-0.4 1.3-0.8 2-2.4 3.7-7.9 4.4-12.3 1.6z"/>
					<path id="&lt;Path&gt;" class="s15" d="m2519.9 1104.4c-3.7 6-8.8 10.6-16 14.3-11.5 5.7-27 8.2-36.6 7.4-7.6-0.6-16-3.7-21.4-7.9-5.7-4.6-8.2-10.4-8.7-12.8 3.4-0.4 6.9-1 9.2-1.2q11.5 25.3 63.5 0.2c2.8-0.2 6.2-0.2 10 0z"/>
				</g>
				<path id="&lt;Path&gt;" class="s4" d="m2811.8 1687.6h-334.3c-22.5 0-40.7-18.3-40.7-40.7v-255.4c0-17.5 14.1-31.7 31.6-31.7h352.5c17.4 0 31.6 14.2 31.6 31.7v255.4c0 22.4-18.2 40.7-40.7 40.7z"/>
				<path id="&lt;Path&gt;" class="s3" d="m2869.8 1691.5h-297.2c-20.3 0-36.7-16.4-36.7-36.7v-266.5c0-15.7 12.7-28.5 28.5-28.5h305.4z"/>
			</g>
			<g id="&lt;Group&gt;">
				<g id="с">
					<path id="с 8 " class="s3" d="m1336.7 1853.3v-247.3h27.9v247.3c0 7.7-6.3 14-14 14-7.7 0-13.9-6.3-13.9-14z"/>
					<path id="с 7 " class="s3" d="m1238.7 1853.3v-247.3h27.9v247.3c0 7.7-6.2 14-13.9 14-7.8 0-14-6.3-14-14z"/>
					<path id="с 6 " class="s3" d="m1110.2 1853.3v-247.3h27.9v247.3c0 7.7-6.3 14-14 14-7.7 0-13.9-6.3-13.9-14z"/>
					<path id="с 5 " class="s3" d="m1012.2 1853.3v-247.3h27.9v247.3c0 7.7-6.2 14-13.9 14-7.7 0-14-6.3-14-14z"/>
					<path id="с 3 " class="s4" d="m1003 1198.7h144.3v346h-144.3z"/>
					<path id="&lt;Path&gt;" class="s5" d="m1454.9 1577.5h-418.6v-100.4h360.2c32.3 0 58.4 26.1 58.4 58.4z"/>
					<path id="с 2 " class="s3" d="m1036.3 1232v301.2c0 3.4 2.8 6.1 6.1 6.1h379.6c18.4 0 33.3 14.9 33.3 33.3 0 18.4-14.9 33.4-33.3 33.4h-385.7-33.3c-18.4 0-33.3-15-33.3-33.4v-33.3-307.3c0-18.4 14.9-33.3 33.3-33.3 18.4 0 33.3 14.9 33.3 33.3z"/>
				</g>
				<g id="c 4 ">
					<path id="&lt;Path&gt;" class="s6" d="m1170.6 1093.1h59.9v38.6h-59.9z"/>
					<g id="&lt;Group&gt;">
						<g id="&lt;Group&gt;">
							<g id="&lt;Group&gt;">
								<g id="&lt;Group&gt;">
									<path id="&lt;Path&gt;" class="s6" d="m912 1095.9q10-7.1 23.2-12.4c13.7 21.3 21.6 98.5 34.3 123.3 56.9-75.4 106.8-96.3 126.5-99.6q34.2-8.9 43.8 23.3 8.5 28.7-24.8 49.1-142.4 100.5-163.4 91.6c-32.8-13.9-64-89.1-39.6-175.3z"/>
								</g>
							</g>
						</g>
						<g id="&lt;Group&gt;">
							<g id="&lt;Group&gt;">
								<g id="&lt;Group&gt;">
									<g id="&lt;Group&gt;">
										<path id="&lt;Path&gt;" class="s6" d="m794.8 1072.2c-7.7-8.4 13.8-14 25.2-9.7 45.6 17.1 60.6-0.8 38.1-3.5-18-2.2-14.9-13.2-14-14.8 1-1.7 6.7-0.4 19.1 0.7 4.8 0.4 53.6 9 73.3 40.6l-2.2 14.1-22.9 11.2c-4.5-10.4-18.9-4.7-30.5-5.4-52.9-3.2-77.5-24-86.1-33.2z"/>
									</g>
								</g>
							</g>
						</g>
						<g id="&lt;Group&gt;">
							<g id="&lt;Group&gt;">
								<g id="&lt;Group&gt;">
									<path id="&lt;Path&gt;" class="s8" d="m905.4 1105.3q10-7.1 29.8-21.8c21 28.9 28.9 87.8 34.3 123.3 56.9-75.4 106.8-96.3 126.5-99.6q34.2-8.9 43.8 23.3 8.5 28.7-24.6 62-143.5 104.2-164.5 95.3c-32.8-13.9-69.7-96.3-45.3-182.5z"/>
								</g>
							</g>
						</g>
					</g>
					<g id="&lt;Group&gt;">
						<g id="&lt;Group&gt;">
							<g id="&lt;Group&gt;">
								<g id="&lt;Group&gt;">
									<path id="&lt;Path&gt;" class="s6" d="m1439.2 1271.2q-21.1 8.9-163.4-91.6-33.3-20.4-24.8-49.1 9.6-32.2 43.7-23.3c19.8 3.3 69.6 24.2 126.6 99.6 12.7-24.8 20.6-102 34.3-123.3q13.1 5.3 23.2 12.4c24.4 86.2-6.8 161.4-39.6 175.3z"/>
								</g>
							</g>
						</g>
						<g id="&lt;Group&gt;">
							<g id="&lt;Group&gt;">
								<g id="&lt;Group&gt;">
									<g id="&lt;Group&gt;">
										<path id="&lt;Path&gt;" class="s6" d="m1509.9 1105.4c-11.7 0.7-26-5-30.5 5.4l-22.9-11.2-2.2-14.1c19.7-31.6 68.5-40.2 73.3-40.6 12.3-1.1 18.1-2.4 19-0.7 1 1.6 4 12.6-13.9 14.8-22.5 2.7-7.6 20.6 38.1 3.5 11.4-4.3 32.9 1.3 25.1 9.7-8.5 9.2-33.2 30-86 33.2z"/>
									</g>
								</g>
							</g>
						</g>
						<g id="&lt;Group&gt;">
							<g id="&lt;Group&gt;">
								<g id="&lt;Group&gt;">
									<path id="&lt;Path&gt;" class="s8" d="m1434.8 1299.6q-30.3 11.9-161-107.1-31.3-33.3-22.8-62 9.6-32.2 43.7-23.3c19.8 3.3 64.4 17.4 121.4 92.9 12.7-24.9 25.8-95.3 39.5-116.6q22.8 14 32.8 21.2c24.5 86.1-9.7 177.6-53.6 194.9z"/>
								</g>
							</g>
						</g>
					</g>
					<g id="&lt;Group&gt;">
						<path id="&lt;Path&gt;" class="s6" d="m1488.8 1751.4l53.1 1.9c0.3 16.3-4.2 44.9-2.7 46.1l-40.3 31.3-14.1-42.9q1.4-19.7 4-36.4z"/>
						<g id="&lt;Group&gt;">
							<g id="&lt;Group&gt;">
								<path id="&lt;Path&gt;" class="s16" d="m1551.8 1834.2q13.9-20.1 29.8-20.4 29.7 3.8 39.2 17c3.1 4.2 1.2 12.5-0.4 17.8-1.1 3.3-4.2 6.7-13.2 8.9-13.2 3.2-31 4.5-62.7-6.1-38.1-12.7-44.5-9-58.6-14.5-14.5-5.8-8.5-23.7-3.2-41.1q9.3 22.4 69.1 38.4z"/>
							</g>
							<g id="&lt;Group&gt;">
								<g id="&lt;Group&gt;">
									<path id="&lt;Path&gt;" class="s7" d="m1543 1788.3q16.6 11.7 38.9 18.4c12.4 3.8 45.7 12.7 38.8 34.8-1.1 3.3-4.2 6.7-13.2 8.9-13.2 3.2-31 4.5-62.7-6.1-38.1-12.7-44.5-8.9-58.6-14.5-14.5-5.8-6.2-26-1-43.4 0.1 4.5 1.4 16.5 27.6 28.8 7.8 3.7 3.7-32.2 30.2-26.9z"/>
								</g>
							</g>
							<g id="&lt;Group&gt;">
								<path id="&lt;Path&gt;" class="s17" d="m1535.2 1815c-1.6-0.6-2.5-2.3-2-3.9 4-12.2 15.7-15.2 21.4-15.1 1.7 0.1 3 1.4 3 3.1-0.1 1.7-1.5 3.1-3.1 3.1-0.5 0-11.9 0-15.4 10.8-0.5 1.3-1.7 2.1-3 2.1q-0.4 0-0.9-0.1z"/>
							</g>
							<g id="&lt;Group&gt;">
								<path id="&lt;Path&gt;" class="s17" d="m1549 1821.6c-1.6-0.5-2.5-2.2-2-3.8 4-12.2 15.7-15.2 21.4-15.1 1.7 0 3 1.4 3 3.1 0 1.7-1.4 3-3.1 3-0.5 0-11.9 0-15.4 10.8-0.4 1.3-1.6 2.2-2.9 2.2q-0.5 0-1-0.2z"/>
							</g>
						</g>
						<path id="&lt;Path&gt;" class="s16" d="m1320.5 1416.4c79 22 195.3 85.4 205.5 98.2 21 26.6 11.5 100.5 19.3 265.5l-64.7-1.7c-14.6-127.1-45.3-176.5-45-224.4q-62-1.4-151.4-45.6c-44.1-21.8-89.8-46.7-72.4-86.8 14-31.9 33.4-26.2 108.7-5.2z"/>
						<path id="&lt;Path&gt;" class="s6" d="m1344.5 1763.4l51-4.1c0 16.4 3.7 46.5 5.1 47.8l-18.4 30.3-38-21.5c-3.8-16.3 1.8-35.9 0.3-52.5z"/>
						<path id="&lt;Path&gt;" class="s7" d="m1236.2 1419c92.2 12.4 159.4 104.1 166.7 118.8 15 29.8-7.2 90.1 1.9 240.6l-68.1-4.5c-10.4-78-27.2-139-26.4-196.2q-48.4-35.6-145.4-58.7c-53.1-12.7-69-21.1-78.7-56-3.3-11.9-7.7-39.4-2.3-45.4 23.9-26.8 89.1-7 152.3 1.4z"/>
						<g id="&lt;Group&gt;">
							<g id="&lt;Group&gt;">
								<path id="&lt;Path&gt;" class="s16" d="m1398.9 1850.9q17.8-16.7 33.4-13.6 28.2 10 34.8 24.9c2.1 4.7-1.5 12.5-4.2 17.3-1.7 3-5.5 5.7-14.7 5.9-13.7 0.3-31.3-2.1-60.1-19.2-34.5-20.4-41.6-18.1-54.1-26.6-13-8.7-3.4-24.9 5.4-40.8q4.4 23.9 59.5 52.1z"/>
							</g>
							<g id="&lt;Group&gt;">
								<path id="&lt;Path&gt;" class="s17" d="m1380.7 1828.6c-1.6-0.7-2.2-2.6-1.4-4.1 5.6-11.5 17.6-12.8 23.2-11.9 1.7 0.3 2.8 1.9 2.5 3.5-0.2 1.7-1.8 2.8-3.5 2.6-0.4-0.1-11.7-1.7-16.7 8.5-0.6 1.2-1.9 1.9-3.2 1.7q-0.5-0.1-0.9-0.3z"/>
							</g>
							<g id="&lt;Group&gt;">
								<path id="&lt;Path&gt;" class="s17" d="m1393.4 1837.2c-1.5-0.8-2.2-2.6-1.4-4.1 5.6-11.5 17.7-12.9 23.3-11.9 1.6 0.2 2.7 1.8 2.5 3.5-0.3 1.6-1.9 2.8-3.5 2.5-0.5 0-11.8-1.7-16.8 8.5-0.6 1.3-1.9 1.9-3.2 1.7q-0.5 0-0.9-0.2z"/>
							</g>
						</g>
					</g>
					<g id="v 1 ">
						<path id="h-5 2 " class="s9" d="m1096 1107.2q48.2-7.4 68.6-4.2 37.6 31.5 71.6 0 22.9-0.8 58.5 4.2 0 62.8 32 314.7-29.4 35.5-126.2 35.5-58.6-0.3-120.5-14.6 16-273 16-335.6z"/>
					</g>
					<g id="&lt;Group&gt;">
						<path id="&lt;Path&gt;" class="s7" d="m1148.6 1078q-32.5 3.9-49.5-37.6-19.9-3.3-16.6-23.1c-9.4-2.9-22-13.1-17.9-31.1 3.4-15.3 18.4-14.6 20.3-32.4 1.5-14.4-8.8-49.5 37-52.2q1.1-26.7 28.6-33.1c33.8-7.8 42.1 12.5 56.9 16.1 16.5 4.1 52-11.1 56.6 27.1q23.5 0.6 34.4 17.7c10.1 16 4.1 36.4-2.6 43.9q18.8 6.5 23.2 24.4c2.9 12-1.8 27.5-13.7 35q-7.6 4.8-14.9 5.2c-7.7 1.3-8.2 22-15 26-10.9 6.4-22.7 10.9-34.8 14.5z"/>
						<path id="&lt;Path&gt;" class="s6" d="m1273.5 998.7c3.8 56-27 103.7-68.7 106.5-41.7 2.8-78.5-40.4-82.3-96.4-3.7-56.1 29.6-92.3 71.3-95.1 41.7-2.8 76 28.9 79.7 85z"/>
						<path id="&lt;Path&gt;" class="s12" d="m1167.7 1027.5c-4.4 0.3-8.3-3.1-8.5-7.5-0.3-4.4 3-8.3 7.4-8.6 4.5-0.3 8.3 3.1 8.6 7.5 0.3 4.5-3.1 8.3-7.5 8.6z"/>
						<path id="&lt;Path&gt;" class="s12" d="m1231.7 1023.2c-4.5 0.3-8.3-3-8.6-7.5-0.3-4.4 3.1-8.2 7.5-8.5 4.4-0.3 8.3 3 8.5 7.4 0.3 4.5-3 8.3-7.4 8.6z"/>
						<path id="&lt;Path&gt;" class="s13" d="m1207.6 1027.3c10.9 6.8 14.3 9.7 18.5 11.9-2.2 9.5-16.4 15-20.6 14.2q9.8-5.6 10.8-12.5z"/>
						<path id="&lt;Path&gt;" class="s6" d="m1136 1018c7.8 11.6 7.1 25.7-1.5 31.5-8.6 5.7-21.9 1-29.7-10.6-7.8-11.6-7.1-25.8 1.5-31.5 8.6-5.8 21.9-1.1 29.7 10.6z"/>
						<g id="&lt;Group&gt;">
							<path id="&lt;Path&gt;" class="s13" d="m1128.3 1040q-0.5 0-1-0.1c-1.3-0.5-2.1-2-1.6-3.3 1.6-4.5 1.4-8-0.6-10.4-2.9-3.7-9.4-4.5-14-4.1-1.4 0.2-2.7-0.9-2.8-2.3-0.2-1.4 0.8-2.7 2.3-2.8 6.2-0.6 14.3 0.6 18.6 6 2.1 2.7 4.1 7.5 1.4 15.3-0.4 1-1.3 1.6-2.3 1.7z"/>
						</g>
						<path id="&lt;Path&gt;" class="s7" d="m1096 968.8l89.3-74.8 101 49.1-11 72.3c-3.2-33.2-23.4-22.1-34.1-31.6-10.9-9.7-15.9-25-40.7-10.9q-20.7-13.6-30.8 6.4c-7.8 15.4-18.9 12.7-29.8 13.7-12.9 1.2-9.6 13.7-17.5 13.5z"/>
						<g id="&lt;Group&gt;">
							<path id="&lt;Path&gt;" class="s7" d="m1241.7 1003.9c-11.7 0-18-7.1-18.3-7.4-1.3-1.5-1.1-3.8 0.3-5.1 1.5-1.2 3.8-1.1 5.1 0.4 0.3 0.3 6.1 6.5 17 4.6 2-0.3 3.8 1 4.2 2.9 0.3 2-1 3.8-2.9 4.2q-2.9 0.5-5.4 0.4z"/>
						</g>
						<g id="&lt;Group&gt;">
							<path id="&lt;Path&gt;" class="s7" d="m1151 1003.5c-1.9-0.4-3.2-2.2-2.9-4.2 0.4-1.9 2.2-3.2 4.2-2.9 10.9 1.9 16.7-4.3 17-4.6 1.3-1.5 3.6-1.6 5.1-0.4 1.5 1.3 1.6 3.6 0.3 5.1-0.3 0.3-6.6 7.4-18.3 7.4q-2.5 0.1-5.4-0.4z"/>
						</g>
						<ellipse id="&lt;Path&gt;" class="s14" cx="1208.5" cy="1074.1" rx="14.6" ry="11"/>
					</g>
				</g>
			</g>
			<g id="&lt;Group&gt;">
				<g id="&lt;Group&gt;">
					<path id="&lt;Path&gt;" class="s3" d="m890.9 1715.4l9.2 126.5c0.6 8-2.2 15.3-6 15.3-2 0-3.9-2.2-5.1-5.8l-42.6-136z"/>
					<path id="&lt;Path&gt;" class="s3" d="m453 1715.4l-42.6 136c-1.2 3.6-3 5.8-5.1 5.8-3.7 0-6.6-7.3-6-15.3l9.3-126.5z"/>
					<path id="&lt;Path&gt;" class="s3" d="m250.2 1715.4l-42.7 136c-1.1 3.6-3 5.8-5 5.8-3.8 0-6.7-7.3-6.1-15.3l9.3-126.5z"/>
					<path id="&lt;Path&gt;" class="s4" d="m494.6 1392.6h393.5c20.5 0 37.2 16.6 37.2 37.2v242.8c0 26.4-21.4 47.8-47.8 47.8h-382.9z"/>
					<path id="&lt;Path&gt;" class="s3" d="m399.2 1392.6h393.5c20.5 0 37.2 16.6 37.2 37.2v242.8c0 26.4-21.4 47.8-47.8 47.8h-382.9z"/>
					<path id="&lt;Path&gt;" class="s4" d="m315.9 1269.1h323.5c20.3 0 36.8 16.4 36.8 36.7v169.7h-360.3z"/>
					<path id="&lt;Path&gt;" class="s5" d="m281.7 1469.9h505.5c24 0 43.5 19.5 43.5 43.6v50.2h-549z"/>
					<path id="&lt;Path&gt;" class="s4" d="m281.7 1552.8h549v167.8h-549z"/>
					<path id="&lt;Path&gt;" class="s3" d="m205.4 1304.7c0-19.7 16-35.6 35.7-35.6h74.8v206.4h-110.5z"/>
				</g>
				<g id="&lt;Group&gt;">
					<path id="&lt;Path&gt;" class="s6" d="m975.3 1635.6l25.7 33.7q9.9 35.9-12.5 47.1-22.3 11.2-41-12.7l-21-29.3z"/>
					<g id="&lt;Group&gt;">
						<g id="&lt;Group&gt;">
							<g id="&lt;Group&gt;">
								<path id="&lt;Path&gt;" class="s7" d="m1000.1 1665.4q22.5-0.2 47-8.5c13.7-4.7 49.5-18.3 57.6 6.2 1.1 3.7 0.6 8.8-6.1 16.6-10 11.5-25.1 24.2-60.6 35.2-42.7 13.2-46.1 20.7-62.4 24.7-16.8 4.2-22.4-19.3-29-38.4 3 4 11.9 13.9 43.6 8.1 9.5-1.7-17.6-31.4 9.9-43.9z"/>
							</g>
						</g>
					</g>
					<path id="&lt;Path&gt;" class="s6" d="m811.6 1766.9l0.9 31.3q-12.8 34.9-37.5 31-24.6-3.8-26-34.1v-19.9z"/>
					<g id="&lt;Group&gt;">
						<path id="&lt;Path&gt;" class="s16" d="m780.8 1396.4l-16.4 10.7q-100.9-23.7-131.9-66c-1.3-4 32.4-41.7 44.1-39q44.9 49.2 104.2 94.3z"/>
						<path id="&lt;Path&gt;" class="s16" d="m641.6 1160.8q5 19 35 141.3l-44.1 39c-10.9-6.6-40.2-123.1-43.7-158-5.9-57 44.1-55.1 52.8-22.3z"/>
					</g>
					<path id="&lt;Path&gt;" class="s7" d="m741.9 1042.5c7.3 66.9-65.1 47.9-68.6 57.8-11.3 31.6-91.8 44.2-128.1 9.5-11.1-10.5-36.4 0-63.6-1.8-15.5-1-33.7-11.2-36.9-26.4-10.8-52.7 31.1-56 39.3-72.2 13.9-27.3-11.8-60.3 22.2-97.7 34-37.5 71.5-24.1 71.5-24.1q44.4-19.6 79.8 0.4c34.9 19.6 47.5 58.3 44.3 102.1-2.9 39.1 36.5 18.5 40.1 52.4z"/>
					<path id="&lt;Path&gt;" class="s6" d="m615.7 1077.1q-4.7 43-6.2 58.9l-58 1.7q17.7-27.4 9.7-105.6z"/>
					<g id="&lt;Group&gt;">
						<path id="&lt;Path&gt;" class="s6" d="m580.8 913.7c39.5-9.4 81.3 23.7 93.4 74 12 50.4-10.2 98.8-49.8 108.3-39.5 9.5-81.3-23.7-93.4-74-12-50.3 10.3-98.8 49.8-108.3z"/>
						<path id="&lt;Path&gt;" class="s12" d="m658.8 991.5c3.5-1.8 7.8-0.3 9.5 3.2 1.8 3.4 0.3 7.7-3.2 9.4-3.4 1.8-7.7 0.4-9.4-3.1-1.8-3.5-0.4-7.8 3.1-9.5z"/>
						<path id="&lt;Path&gt;" class="s12" d="m603.6 1004.4c3.8-1.9 8.4-0.4 10.2 3.4 1.9 3.8 0.4 8.4-3.4 10.3-3.8 1.9-8.4 0.3-10.3-3.4-1.8-3.8-0.3-8.4 3.5-10.3z"/>
						<g id="&lt;Group&gt;">
							<path id="&lt;Path&gt;" class="s7" d="m589.4 1008.3c-1.4-0.6-1.9-2.1-1.3-3.5 5-10.9 17.8-12.8 18.4-12.9 1.4-0.2 2.7 0.8 3 2.2 0.2 1.5-0.8 2.8-2.3 3.1-0.1 0-10.5 1.6-14.3 9.9-0.3 0.5-0.7 1-1.2 1.2-0.7 0.4-1.6 0.4-2.3 0z"/>
						</g>
						<g id="&lt;Group&gt;">
							<path id="&lt;Path&gt;" class="s7" d="m668 990.2c-5.7-5.6-12.7-3.4-13.1-3.3-1.3 0.5-2.8-0.2-3.3-1.6-0.5-1.4 0.2-2.9 1.6-3.4 0.4-0.2 10.5-3.5 18.6 4.5 1 1.1 1 2.8 0 3.8q-0.3 0.3-0.7 0.5c-1 0.5-2.2 0.3-3.1-0.5z"/>
						</g>
						<path id="&lt;Path&gt;" class="s13" d="m651.1 1016.3c3.9 4 7.3 8.1 11 10.5 1.3 0.8 1.7 2.4 0.9 3.7-3 5.3-11.7 9.7-17.1 11.9-0.7 0.4-1.4-0.6-0.7-1.2 5.4-4.7 7.7-8.2 8.7-10.2 0.5-0.9 0.4-2 0-3-1.2-2.2-3.4-6.6-4.9-10.3-0.5-1.3 1.2-2.4 2.1-1.4z"/>
						<path id="&lt;Path&gt;" class="s6" d="m550.1 1022.3c9.6 7.5 12.4 19.9 6.3 27.8-6.1 7.9-18.9 8.2-28.5 0.7-9.6-7.5-12.4-19.9-6.3-27.8 6.1-7.8 18.8-8.1 28.5-0.7z"/>
						<g id="&lt;Group&gt;">
							<path id="&lt;Path&gt;" class="s13" d="m541.8 1047.6c-1.2-0.9-1.4-2.6-0.5-3.8 2.3-3 2.6-6 0.8-8.4-1.8-2.5-5.3-3.8-8-2.9-1.4 0.5-2.9-0.3-3.4-1.7-0.5-1.4 0.3-2.9 1.7-3.3 5-1.7 10.9 0.4 14.1 4.8 3.1 4.3 2.7 9.8-1 14.7q-0.4 0.5-0.9 0.8c-0.9 0.5-2 0.4-2.8-0.2z"/>
						</g>
						<g id="&lt;Group&gt;">
							<path id="&lt;Path&gt;" class="s13" d="m632.2 1070.3c-19.2 0-27.3-11.9-27.7-12.6-0.9-1.3-0.5-3.1 0.9-4 1.3-0.9 3.2-0.5 4 0.8 0.5 0.7 11 15.8 38.4 7.4 1.6-0.5 3.2 0.4 3.7 1.9 0.5 1.6-0.4 3.2-2 3.7-6.5 2-12.3 2.8-17.3 2.8z"/>
						</g>
					</g>
					<path id="&lt;Path&gt;" class="s7" d="m563.5 907.7c27.4-13.7 76.1 1.2 85.2 30.8-5.4 24.7-71.5 72.7-118.6 79.1-20-37.3 5.9-96.2 33.4-109.9z"/>
					<path id="&lt;Path&gt;" class="s8" d="m584.2 1376.5q220-4.9 228.9 18.8 8.9 23.7-2.9 83.5l-239.4 10.2z"/>
					<path id="&lt;Path&gt;" class="s8" d="m610.3 1354.9q18.2 97.8-65.8 145.6c-44.6 0.7-71-31.8-73.5-69.1-2.4-36.2 22.9-80.8 29.3-95.8q66 2.1 110 19.3z"/>
					<path id="&lt;Path&gt;" class="s9" d="m607.7 1375.6q212.5 70.9 212.9 96.9 0.5 25.9-71.9 56.4l-210.9-19.9c-96.2-15.1-54.7-169.8 69.9-133.4z"/>
					<path id="&lt;Path&gt;" class="s9" d="m820.6 1472.5l-4.2 297.4q-52.6 22.2-71.1 0.2c-8.7-101-50.1-190.4-3.9-251.9q62-82.5 79.2-45.7z"/>
					<path id="&lt;Path&gt;" class="s8" d="m812.6 1394.6l175.5 241q-39.2 52.4-66.5 46.3c-47.2-59.7-142.7-129.8-143.3-204.9q-0.8-100.6 34.3-82.4z"/>
					<path id="&lt;Path&gt;" class="s6" d="m638.7 1487.1c-30.3 8.3-74.3-11.5-85.5-33.3l-2.9-2.2 16.5-23.1 2.2 2.6c22.8-22.5 50-18.5 47.5-10.8-3 8.8-11 9.9-13.1 17.3-2.1 7.4 17.4 8.9 31.8 12.2 14.4 3.4 34.2 28.9 3.5 37.3z"/>
					<path id="&lt;Path&gt;" class="s7" d="m559.1 1117.5l51.3 9.3c19.6 36.7 41.2 73.3 41.2 95.4q0.1 29-39.8 149.4c-52.5 6.9-95.2 0.3-127.6-20.8 25.3-71.5-17.9-159.9 29-208.2 11.7-12 30.4-17.4 45.9-25.1z"/>
					<path id="&lt;Path&gt;" class="s6" d="m791 1397.7c-0.6-0.7-1.1-1.1-1.2-1.9q-0.4 0.1-0.3 0.5c-5.7 5.7-13.8 6.9-17.6 2.6q-0.9-1.1-1.7-2.2c-4.6 2.2-9.7 1.9-12.4-1-1-1-1.8-2.6-2.1-4.2-4.5 2.6-9.6 2.3-13.2-1.2-4.2-4.2-3.5-11.5 1.4-16.2 5-4.8 12-5.3 16.1-1.5 1.1 1.1 1.7 2.2 2 3.8 5.5-4.4 12.5-4.9 16.2-1.4q0.8 1.1 1.6 2.2c4.7-2.2 9.8-1.9 12.4 0.9 1.1 1.1 1.8 2.6 2 3.8 3.8-2.4 8.9-2.1 11.5 0.7 3.6 3.5 2.7 9.6-1.1 13.7-3.8 4.1-10.1 4.5-13.6 1.4z"/>
					<path id="&lt;Path&gt;" class="s16" d="m566.5 1182q-10 22.4-91.3 136.8l92.9 107.7-21.1 31.4q-143.8-82.5-149.1-120.3c-7.6-54.1 75.1-137.7 99.8-176.3 38.9-60.6 86.2-18.6 68.8 20.7z"/>
					<g id="&lt;Group&gt;">
						<g id="&lt;Group&gt;">
							<g id="&lt;Group&gt;">
								<path id="&lt;Path&gt;" class="s7" d="m814.1 1794.5q18.4 13 43.2 20.4c13.8 4.2 50.9 14 43.2 38.6-1.2 3.6-4.6 7.5-14.6 9.9-14.8 3.6-34.5 5.1-69.8-6.6-42.3-14.1-49.5-9.9-65.1-16.1-16.1-6.5-7-28.9-1.2-48.2 0.1 5 1.5 18.3 30.7 32 8.7 4.1 4-35.8 33.6-30z"/>
							</g>
						</g>
					</g>
				</g>
				<path id="&lt;Path&gt;" class="s4" d="m300.8 1392.6h239.2c20.5 0 37.1 16.6 37.1 37.2v242.8c0 26.4-21.3 47.8-47.7 47.8h-228.6z"/>
				<path id="&lt;Path&gt;" class="s3" d="m205.4 1392.6h239.2c20.5 0 37.2 16.6 37.2 37.2v242.8c0 26.4-21.4 47.8-47.8 47.8h-228.6z"/>
			</g>
			<g id="&lt;Group&gt;">
				<path id="&lt;Path&gt;" class="s15" d="m1533.1 631.5h312.3c38.7 0 70.1 31.4 70.1 70v145.7c0 38.6-31.4 70-70.1 70h-2.3l25.1 84c1.1 3.6-3.2 6.6-6.2 4.3l-115.8-88.3h-213.1c-38.7 0-70-31.4-70-70v-145.7c0-38.6 31.3-70 70-70z"/>
				<path id="&lt;Path&gt;" class="s14" d="m1845.3 753.8h-299.9c-19.2 0-34.7-15.5-34.7-34.7 0-19.1 15.5-34.6 34.7-34.6h299.9c19.1 0 34.7 15.5 34.7 34.6 0 19.2-15.6 34.7-34.7 34.7z"/>
				<path id="&lt;Path&gt;" class="s14" d="m1845.3 859.6h-299.9c-19.2 0-34.7-15.5-34.7-34.6 0-19.2 15.5-34.7 34.7-34.7h299.9c19.1 0 34.7 15.5 34.7 34.7 0 19.1-15.6 34.6-34.7 34.6z"/>
			</g>
			<g id="&lt;Group&gt;">
				<path id="&lt;Path&gt;" class="s5" d="m2977.5 716.5v134.6c0 35.7-29 64.7-64.8 64.7h-197l-107 81.6c-2.8 2.2-6.8-0.5-5.8-4l23.2-77.6h-2.1c-35.8 0-64.7-29-64.7-64.7v-134.6c0-35.8 28.9-64.7 64.7-64.7h288.7c35.8 0 64.8 28.9 64.8 64.7z"/>
				<rect id="&lt;Path&gt;" class="s14" x="2593.4" y="706.8" width="343" height="58.7" rx="25.8"></rect>
				<path id="&lt;Path&gt;" class="s14" d="m2768.4 854.3h-136.2c-16.2 0-29.3-13.1-29.3-29.3 0-16.2 13.1-29.4 29.3-29.4h136.2c16.2 0 29.4 13.2 29.4 29.4 0 16.2-13.2 29.3-29.4 29.3z"/>
			</g>
			<g id="&lt;Group&gt;">
				<path id="&lt;Path&gt;" class="s5" d="m2167.7 290.4v134.7c0 35.7-29 64.7-64.7 64.7h-197.1l-107 81.6c-2.8 2.2-6.8-0.6-5.7-4l23.1-77.6h-2.1c-35.7 0-64.7-29-64.7-64.7v-134.7c0-35.7 29-64.7 64.7-64.7h288.8c35.7 0 64.7 29 64.7 64.7z"/>
				<path id="&lt;Path&gt;" class="s14" d="m2010.2 339.5h-197.2c-16.2 0-29.3-13.2-29.3-29.4 0-16.2 13.1-29.4 29.3-29.4h197.2c16.2 0 29.4 13.2 29.4 29.4 0 16.2-13.2 29.4-29.4 29.4z"/>
				<path id="&lt;Path&gt;" class="s14" d="m2108.9 428.3h-286.4c-16.3 0-29.4-13.1-29.4-29.4 0-16.2 13.1-29.3 29.4-29.3h286.4c16.2 0 29.3 13.1 29.3 29.3 0 16.3-13.1 29.4-29.3 29.4z"/>
			</g>
			<g id="&lt;Group&gt;">
				<path id="&lt;Path&gt;" class="s5" d="m641.3 434.3h378.9c46.8 0 84.9 38 84.9 84.9v176.7c0 46.8-38.1 84.9-84.9 84.9h-2.9l30.4 101.8c1.4 4.5-3.8 8.1-7.5 5.3l-140.4-107.1h-258.5c-46.9 0-84.9-38.1-84.9-84.9v-176.7c0-46.9 38-84.9 84.9-84.9z"/>
				<rect id="&lt;Path&gt;" class="s14" x="610.2" y="506.5" width="450" height="77.1" rx="33.9"></rect>
				<path id="&lt;Path&gt;" class="s14" d="m792.1 661.6c0-21.3 17.3-38.5 38.6-38.5h178.6c21.3 0 38.6 17.2 38.6 38.5 0 21.3-17.3 38.5-38.6 38.5h-178.6c-21.3 0-38.6-17.2-38.6-38.5z"/>
			</g>
			<g id="&lt;Group&gt;">
				<path id="&lt;Compound Path&gt;" class="s14" d="m1303.4 748.1q14-10.5 33.5-10.5c28.1 0 43 15.2 43 36.7 0 12.4-6 25-18.2 37.6-15.5 16.3-26.7 24.4-33.7 24.4-6.8 0-11.8-5.4-11.8-11.8 0-5.8 5.4-11.6 14.7-20 0.6-0.6 1.2-1.3 1.7-1.5 10.5-9.7 13.8-15 13.8-21.7 0-8.2-5.6-12.8-13.6-12.8-3.8 0-8.1 0.9-13.3 2.5q-7.7 2.5-11.1 2.5c-5.8 0-12.4-5-12.4-13.2 0-4.4 2.5-8.5 7.4-12.2zm28.3 137.8c-12.6 0-21-9.5-21-21.1 0-9.9 8.4-19.4 21-19.4 11 0 19.4 9.5 19.4 19.4 0 11.4-8 21.1-19.4 21.1z"/>
			</g>
			<g id="&lt;Group&gt;">
				<path id="&lt;Compound Path&gt;" fill-rule="evenodd" class="s14" d="m2465.8 585.1c-37.7 0-68.1-30.4-68.1-68.1 0-37.7 30.4-68.1 68.1-68.1 37.6 0 68.1 30.4 68.1 68.1 0 37.7-30.5 68.1-68.1 68.1zm49.3-68.1c0-27.3-22.1-49.3-49.3-49.3-27.3 0-49.4 22-49.4 49.3 0 27.3 22.1 49.3 49.4 49.3 27.2 0 49.3-22 49.3-49.3z"/>
			</g>
			<g id="&lt;Group&gt;">
				<path id="&lt;Compound Path&gt;" fill-rule="evenodd" class="s14" d="m1090.1 505.5c-24.8 0-44.8-20-44.8-44.7 0-24.8 20-44.8 44.8-44.8 24.8 0 44.8 20 44.8 44.8 0 24.7-20 44.7-44.8 44.7zm32.5-44.7c0-18-14.5-32.5-32.5-32.5-17.9 0-32.4 14.5-32.4 32.5 0 17.9 14.5 32.4 32.4 32.4 18 0 32.5-14.5 32.5-32.4z"/>
			</g>
			<g id="&lt;Group&gt;">
				<path id="&lt;Compound Path&gt;" fill-rule="evenodd" class="s14" d="m907.4 223.3c-19.3 0-35-15.6-35-35 0-19.4 15.7-35 35-35 19.4 0 35.1 15.6 35.1 35 0 19.4-15.7 35-35.1 35zm25.4-35c0-14-11.3-25.4-25.4-25.4-14 0-25.4 11.4-25.4 25.4 0 14 11.4 25.4 25.4 25.4 14.1 0 25.4-11.4 25.4-25.4z"/>
			</g>
			<circle id="&lt;Path&gt;" class="s20" cx="1553.4" cy="178.6" r="47.9"/>
			<circle id="&lt;Path&gt;" class="s14" cx="2533.9" cy="364.7" r="47.9"/>
			<circle id="&lt;Path&gt;" class="s14" cx="816.4" cy="262.2" r="47.9"/>
			<path id="&lt;Path&gt;" class="s14" d="m584.9 725.1c-15.8 15.8-41.5 15.8-57.4 0-15.8-15.8-15.8-41.5 0-57.4 15.9-15.8 41.6-15.8 57.4 0 15.8 15.9 15.8 41.6 0 57.4z"/>
			<circle id="&lt;Path&gt;" class="s20" cx="223.3" cy="918.7" r="38.9"/>
		</g>
	</g>
</svg>