<svg version="1.2" xmlns="http://www.w3.org/2000/svg" viewBox="0 0 2000 2000" width="2000" height="2000">
	<title>groupavatar</title>
	<defs>
		<clipPath clipPathUnits="userSpaceOnUse" id="cp1">
			<path d="m1195.85 171.14c184.89 0 364.39 118.53 507.48 318.17 130.29 181.76 216.7 474.59 216.7 653.06 0 147.67-211.5 315.55-422.35 376.81-122.1 158.14-306.91 258.1-522.61 258.1-210.39 0-397.87-98.9-518.42-252.72-129.19-63.62-375.68-327.02-375.68-479.98 0-131.53 15.29-380.56 158.18-519.38 251.85-244.7 724.87-354.06 956.7-354.06z"/>
		</clipPath>
		<clipPath clipPathUnits="userSpaceOnUse" id="cp2">
			<path d="m1090.72 96.97c363.36 0 367.95 527.67 367.95 891.02 0 164.65 31.12 346.83 14.14 561.68-120.76 139.39-299.02 227.61-497.74 227.61-78.31-152.16-93.43-336.85-203.29-419.02-160.55-120.11-373.66-739.03-373.66-954.78 0-363.35 329.24-306.51 692.6-306.51z"/>
		</clipPath>
		<clipPath clipPathUnits="userSpaceOnUse" id="cp3">
			<path d="m1465.61 796.95c68.88-40.89 162.83-9.86 209.84 69.32 47 79.17 29.26 176.51-39.63 217.41-68.89 40.89-162.84 9.86-209.84-69.32-47-79.17-29.26-176.51 39.63-217.41z"/>
		</clipPath>
		<clipPath clipPathUnits="userSpaceOnUse" id="cp4">
			<path d="m1072.88 838.5c254.86-187.1 470.69-127.39 470.69 235.97 0 90.87 71.41 221.93 38.05 300.7-90.9 214.69-292.5 371.28-533.06 398.05-13.18 1.47 0.52-254.55 1.68-493.18 0.8-163.75-83.35-363.73 22.64-441.54z"/>
		</clipPath>
		<clipPath clipPathUnits="userSpaceOnUse" id="cp5">
			<path d="m570.83 1382.84c-2.16-1.59-3.55-4.03-3.8-6.71-0.26-2.68 0.64-5.33 2.47-7.31 14.36-22.07 39.45-84.02 37.46-119.42-0.4-2.81 0.66-5.64 2.82-7.5 2.15-1.86 5.1-2.49 7.82-1.69 21.22 6.16 61.76 18.12 77.9 21.69 22.29 4.93 77.96 24.54 78.16 66.82 0.19 39.09-13.56 70.51-83.36 77.47-50.74 5.07-96.89-9.52-119.47-23.35z"/>
		</clipPath>
		<clipPath clipPathUnits="userSpaceOnUse" id="cp6">
			<path d="m832.31 826.1c186.69-9.14 266.53 24.8 292.18 194.79 11.79 78.16 4.35 79.89-1.37 162.06-21.98 315.72-58.49 395.6-148.05 594.33-190.66 0-362.51-81.23-482.79-210.94-108.93-117.48 106.07-229.61 106.07-402.3 0-173.84 36.65-219.93 75.12-276.62 48.7-71.77 117.37-59.29 158.84-61.32z"/>
		</clipPath>
		<clipPath clipPathUnits="userSpaceOnUse" id="cp7">
			<path d="m426.02 591.05c117.98 0 213.62 95.64 213.62 213.62 0 117.98-95.64 213.62-213.62 213.62-117.98 0-213.62-95.64-213.62-213.62 0-117.98 95.64-213.62 213.62-213.62z"/>
		</clipPath>
		<clipPath clipPathUnits="userSpaceOnUse" id="cp8">
			<path d="m750.02 1438.28c-2.17-1.59-3.55-4.03-3.81-6.71-0.25-2.68 0.65-5.33 2.48-7.3 14.36-22.08 39.44-84.03 37.46-119.42-0.4-2.82 0.66-5.64 2.81-7.5 2.15-1.86 5.1-2.5 7.83-1.7 21.21 6.16 61.76 18.12 77.9 21.69 22.28 4.93 77.96 24.54 78.16 66.82 0.18 39.09-13.57 70.51-83.36 77.47-50.74 5.07-96.9-9.52-119.47-23.35z"/>
		</clipPath>
	</defs>
	<style>
		.s0 { fill: #b1aee1 } 
		.s1 { fill: #5e5aad } 
		.s2 { fill: #8a84ff } 
		.s3 { fill: #6b67b6 } 
		.s4 { fill: #7f7cbc } 
		.s5 { fill: #8784b7 } 
		.s6 { fill: #efb38f } 
		.s7 { fill: #5952e6 } 
		.s8 { fill: #483fe5 } 
		.s9 { fill: #e3e2f0 } 
		.s10 { fill: #9591eb } 
		.s11 { fill: #f2c0a2 } 
		.s12 { fill: #733426 } 
		.s13 { fill: #4037ec } 
		.s14 { fill: #322e7f } 
		.s15 { fill: #342f93 } 
		.s16 { fill: #d58757 } 
		.s17 { fill: #eb9a67 } 
		.s18 { fill: #bcb8ff } 
		.s19 { fill: #d99b8c } 
		.s20 { fill: #f0cd8f } 
		.s21 { fill: #f6e1bc } 
		.s22 { fill: #dfab9f } 
		.s23 { fill: #dfaa9e } 
		.s24 { fill: #241f87 } 
		.s25 { fill: #322e8c } 
		.s26 { fill: #bf755a } 
		.s27 { fill: #d2d1ef } 
		.s28 { fill: #94553d } 
		.s29 { fill: #2a268b } 
	</style>
	<g id="BG">
	</g>
	<g id="Circle">
		<g id="Circle">
			<circle id="&lt;Path&gt;" class="s0" cx="975.1" cy="1118.9" r="658.4"/>
		</g>
	</g>
	<g id="Leaves">
		<g id="Leaves">
			<g id="&lt;Clip Group&gt;" clip-path="url(#cp1)">
				<g id="&lt;Group&gt;">
					<g id="&lt;Group&gt;">
						<g id="&lt;Group&gt;">
							<path id="&lt;Path&gt;" class="s1" d="m729.4 1460.3c-55.1-42.1-100-122.7-102.2-178.6-3.9-97.2-60.7-153.4-105.3-206.6-44.7-53.2-53.7-174.4-49.1-223.1 38.8 11.4 115.9 9.6 121.4-1.1-17.1-4.8-93.9-28.7-139.3-57.9-14.2-24.1-33.3-51.8-44.1-96-21.4-86.7 10.9-203.2 36.7-213 27-10.2 143.1 56.2 186.6 138.5 24.7 46.9 35.4 112.5 51.5 140.5 33 57.6 99.7 87.2 149.5 188.6 23 46.8 29.8 75 68.8 114.8-11 28.9-60.9 87.5-92.5 115.9 39.9-10.5 104.5-63.4 122.3-88.6 32.9 27.5 64.5 45.3 109.5 116.4 32.8 51.6 77 194.3-72.4 287.2-61.9 38.5-170.1 17.6-241.4-37z"/>
							<path id="&lt;Path&gt;" class="s0" d="m470.8 556.8c1-0.4 2.1 0.1 2.5 1.1q34.6 85.6 72.5 162c20.5 41.2 41.9 79.8 59.6 100.1 26.5 30.8 60.4 85.6 91 144.4 28.2 54.2 53.5 111.7 68.2 156.1 14.7 44.5 40.7 99.8 69.9 152.3 30.3 54.6 64 106.3 92.2 139.6 3.6 4.2 3 10.5-1.2 14.1-4.2 3.5-10.5 3-14.1-1.2-28.7-34.2-63.1-87.1-93.9-143.2-29.5-53.7-55.6-110.3-70.4-155.8-14.2-43.8-38.9-100.4-66-154.1-29.2-57.9-61.2-112.4-86.6-142.9-17.6-21.5-38.8-61.7-58.4-104.8q-35.4-77.9-66.4-165.2c-0.4-1 0.1-2.1 1.1-2.5z"/>
						</g>
						<g id="&lt;Group&gt;">
							<path id="&lt;Path&gt;" class="s2" d="m832.6 1505.9c-19.4-89.3 4.1-208.5 49.6-266.6 55.8 34.6 140.8 78.5 194.9 88.3-38.3-51.4-110-130.6-139.6-197.1 2.5-67.7 14.5-129.6 14.8-188.4 0.5-91.4 94.7-220.9 140.9-265.9 31.1 29.7 81.9 65.2 132.9 89.7-48.8-56.6-83.6-106.3-100.5-165.6 6.9-35.9 10.8-79.7 37.2-132.7 52.5-105.2 184.1-194.8 218.4-182.7 35.8 12.7 95.9 178.3 69.5 298-15.1 68.3-60.3 143.2-68 185.1-15.8 86 26 172.5-10.4 316.8-20.4 80.8-41.4 113.9-22 226.9 9.5 55.6 26.2 100.4 10.9 210.1-11.2 79.8-88.2 260.9-317.5 226.9-95-14-185.9-127.2-211.1-242.8z"/>
							<path id="&lt;Path&gt;" class="s0" d="m1342.6 377.9c1.3 0.5 2 2 1.5 3.3q-38.1 115.4-65 224.4c-14.6 58.9-26 115.9-25.5 151.4 0.4 53.5-12.2 137.5-31.6 222.5-17.9 78.5-41.5 157.8-64.5 215-23.1 57.2-44 134.9-59.5 212.5-16.1 80.7-26.2 161.4-26.2 218.8 0 7.3-6 13.2-13.2 13.2-7.3-0.1-13.2-6-13.2-13.2 0.3-58.8 10.8-141.3 27.6-223.8 16.2-79.2 38.1-158.3 62-216.6 23.1-56.1 46.5-134 65-211 19.9-83.1 34.2-165 34.7-217.4 0.6-36.6 13.6-94.9 30.6-155q30.8-108.4 74-222.5c0.5-1.4 1.9-2.1 3.3-1.6z"/>
						</g>
						<g id="&lt;Group&gt;">
							<path id="&lt;Path&gt;" class="s3" d="m1089.2 1175.9c41.1-106.8 159.3-273.7 194.7-317.9 38.4-48.2 133-174.9 194.6-202.8 10.2 20.7 21.9 64.9 44.5 98.4-11.3-45.5 0.7-130.7 8.4-135.3 80.3-47.9 131.1-39.7 145.4-27.5 17.9 15.2 12.3 112.9-39 209.9-13.2 25.1-34.4 91.4-71 161.6-18.5 8.2-58.1 5.9-110.3 0.7 27.5 14.8 60.4 30 91.3 34.3-5.5 11.3-21.3 52.2-28.4 65.9-23.7 45.8-94.7 178.8-127.9 238.9-24.1 43.7-108.8 131.5-233.9 61.1-51.9-29.2-111.3-75.7-68.4-187.3z"/>
							<path id="&lt;Path&gt;" class="s0" d="m1633.9 636c0.6 0.6 0.7 1.6 0.1 2.3q-47.6 58.3-87.3 115.5c-21.4 30.8-40.6 61.3-48.2 81.9-11.6 31.1-37.5 76.9-67.5 121.8-27.7 41.5-59 82.1-84.9 110.1-26.1 28-55.4 68.4-81.5 109.8-27.1 43.2-50.9 87.6-63.6 120.9-1.6 4.2-6.3 6.3-10.5 4.6-4.2-1.6-6.3-6.3-4.7-10.5 13.1-34 37.5-79.4 65.5-123.4 26.8-42.2 57.1-83.2 83.8-111.6 25.7-27.4 56.5-67.3 84.3-107.8 29.9-43.6 56.3-87.9 68.2-118.1 8.4-21 28.8-51.9 52-82.9q41.7-55.9 92-112.4c0.6-0.7 1.6-0.7 2.3-0.2z"/>
						</g>
						<g id="&lt;Group&gt;">
							<path id="&lt;Path&gt;" class="s4" d="m1081.9 1518.4c14.5-57.6 85.8-198.3 192.6-275.1 93.4-67.2 242.7-191.7 299.2-234.6 60.9-46.2 163.4-60.4 179.9-43.4 17.2 17.7 16.5 110-31.3 205.9-20.3 40.6-94.7 176.5-210 280.5-40.2 36.2-86.5 168.9-127.1 228.4-29.5 43.3-126.6 126.5-250.4 40.7-51.2-35.6-71.6-127.8-52.9-202.4z"/>
							<path id="&lt;Path&gt;" class="s0" d="m1704.3 1008.3c0.6 0.7 0.6 1.7 0 2.4q-55.6 56.2-102.7 112c-25.4 30.1-48.5 60-58.5 80.8-15.2 31.3-46.8 76.6-82.6 120.5-33 40.6-69.6 80-99.5 106.7-30 26.7-64.6 65.9-96 106.6-32.6 42.4-61.8 86.5-78.4 119.9-2.1 4.3-7.2 6-11.5 3.9-4.2-2.1-5.9-7.3-3.8-11.5 17.1-34.2 47-79.2 80.6-122.4 32.3-41.5 67.9-81.3 98.6-108.3 29.6-26 65.7-64.7 98.7-104.2 35.6-42.6 67.5-86.3 82.9-116.6 10.9-21.2 35.3-51.4 62.6-81.5q49.1-54.3 107.2-108.3c0.7-0.7 1.7-0.6 2.4 0z"/>
						</g>
						<g id="&lt;Group&gt;">
							<path id="&lt;Path&gt;" class="s5" d="m808.5 1804.5c-70.5-24.5-143.5-91.7-164.7-148.1-36.7-98-113.6-136.3-177.2-175.6-63.5-39.3-113.6-160.1-125.3-211.5-11.7-51.3-68.3-61.9-115.7-137.5-51-81.4-57.3-211.3-34.2-230 24.1-19.6 165.1 9.2 237.3 78.6 41.1 39.6 74.1 103 100 126.3 53.2 47.6 131.3 55.4 216.4 142.3 47.6 48.6 61.7 77.3 148.7 112 42.8 17 81.2 24.5 151.1 82 50.9 41.8 144.2 172.7 22.8 318-50.3 60.1-167.9 75.3-259.2 43.5z"/>
							<path id="&lt;Path&gt;" class="s0" d="m239.7 968.3c0.9-0.7 2.3-0.6 3 0.3q64.2 75.8 128.7 141.1c34.8 35.2 69.7 67.4 94.6 82.2 37.5 22.5 90.6 67.2 141.6 116.9 47.1 45.9 92.3 96.2 122.4 136.6 30 40.5 75.2 88.2 122.7 132 49.4 45.7 101.3 87.1 141.3 111.6 5.1 3.1 6.7 9.7 3.5 14.8-3.1 5.1-9.7 6.6-14.8 3.5-40.8-25.2-93.8-67.7-144.2-114.6-48.2-45-94-94-124.5-135.5-29.2-40-73.6-89.5-119.3-135.3-49.4-49.3-100.4-94.1-136.7-116.8-25.3-16-60.4-49.9-95-87.4q-62.5-67.6-123.6-146.4c-0.7-0.9-0.6-2.2 0.3-3z"/>
						</g>
					</g>
				</g>
			</g>
		</g>
	</g>
	<g id="Runner">
		<g id="Runner">
			<g id="&lt;Group&gt;">
				<g id="&lt;Clip Group&gt;" clip-path="url(#cp2)">
					<g id="&lt;Group&gt;">
						<g id="&lt;Group&gt;">
							<g id="&lt;Group&gt;">
								<path id="&lt;Path&gt;" class="s6" d="m996.6 738.9c-13 29.5-122.6 13.9-149.7 11.9-49.4-3.6-104.2-42.8-142.5-79.6-39.2-37.5-107.5-160.5-120.3-194.7-12.7-34.2-40.7-159.2-53.8-187.1-13.2-27.9-15.2-32.7-18-43.1-1.8-6.8 10.8-13.5 15.2-9.6q7.6 6.9 19.9 23.6-8.8-18.3-11.6-27.3c-3-10.1 12.6-18.6 17.6-12.1q7.3 9.5 19.2 28.6-9-18.9-10.4-32c-1.2-11.3 15.8-14.7 19.6-9.9 9.9 12.4 15.1 28.7 18.1 34.1q-3.3-17.2-5.8-28.9c-3-14.1 19.7-13.9 23.1-5.3 4.6 11.4 38.4 124.5 54.4 167.8 16 43.4 37.6 117.8 104 195.2q44.8 52.2 153.1 50.5 83.7 82.2 67.9 117.9z"/>
								<g id="&lt;Group&gt;">
									<path id="&lt;Path&gt;" class="s6" d="m899.9 619.6q98.1-3.1 136.4-55.2c54.1-73.6 58.2-146 66.4-188.7 8.2-42.6 22.2-152.8 24.7-164.1 1.9-8.4 22.9-12.1 22.3 1.5q-0.5 11.2-0.9 27.7c1.9-5.5 4.3-21.4 11.5-34.5 2.8-5.1 19.1-4.5 19.7 6.2q0.8 12.4-4.7 31.3 8.1-19.5 13.4-29.5c3.7-6.8 19.5-1.3 18.2 8.5q-1.2 8.8-6.6 27.1 8.9-17.3 14.9-24.9c3.4-4.3 16.2 0 15.5 6.5-1 10.1-2.1 15-10 42.8-8 27.9-14.1 132.2-21.3 181.9-8.1 55.4-44.8 165.2-75.3 206.1-29.9 40-93.8 76-139.1 86.9q-54.9 13.3-85.1-129.6z"/>
								</g>
								<path id="&lt;Path&gt;" class="s6" d="m599.5 301.1c-2.6-18.1-0.4-27 14.5-35.8q12.7-7.5 24.5-5.6 3.7-22.3 12.1-28.8c5.4-4.2 16.4-3.7 20.8 5.1 2.4 4.8 0.8 21.6-1.3 34.2-2.5 14.5-2.5 44.8-22.1 51.3-15.9 5.3-45.1 2.8-48.5-20.4z"/>
								<g id="&lt;Group&gt;">
									<path id="&lt;Path&gt;" class="s6" d="m1116.4 322.2c-19.2-3-23.9-31.2-28.4-44.3-3.9-11.3-7.9-26.7-6.5-31.5 2.7-8.8 12.9-11 18.6-7.9q8.7 4.7 15.6 24.8 10.6-3.5 23.6 1.5c15.2 5.9 18.6 13.8 18.9 31 0.4 22-26.3 28.8-41.8 26.4z"/>
								</g>
								<path id="&lt;Path&gt;" class="s7" d="m555.1 371.8q91.9-32 103.3-34.9c11.5-2.9 21.1 24.6 10.7 31.7-10.4 7.1-98.2 29.7-106.2 33.2-8 3.5-18.9-26.8-7.8-30z"/>
								<g id="&lt;Group&gt;">
									<path id="&lt;Path&gt;" class="s7" d="m1207.6 383.7c-8-2.1-92.9-9.6-103.7-14.6-10.7-5-6-32 5.1-31.1q11.1 1 101.3 16.6c10.7 1.3 5.3 31.1-2.7 29.1z"/>
								</g>
							</g>
							<path id="&lt;Path&gt;" class="s6" d="m835.9 1062.9q-47.4-310.1-50.1-353.1c-2.7-43 69.9-82 136.9-92.4 67-10.3 156.9-0.8 180.6 53.8q23.7 54.7 97.9 342.4z"/>
							<g id="&lt;Group&gt;">
								<path id="&lt;Path&gt;" class="s6" d="m1166.7 1459.5c0.3-18.2 26.7-194.7 49.4-246.1 14.7-33.2 105.8-12.3 112.9 14.6 4 14.8-10.2 167.2-36.5 240.4-9.5 26.3-40 29.8-48.9 31.5-48.8 9.7-77.3-5.1-76.9-40.4z"/>
								<path id="&lt;Path&gt;" class="s8" d="m1333.4 1070.7c38.2 7.8 71.4 28.7 78.8 50.2 7.5 21.4-9.6 78.2-44.4 84.2-23.3 4-94.2-5.6-98.5-53.5-5-56.1 16-90.8 64.1-80.9z"/>
								<path id="&lt;Path&gt;" class="s9" d="m1206.8 1229.5c3.4-13.3 20.9-78.5 23.4-81 2.5-2.6 100.4 3.9 106 20.9 4.9 14.9-3.5 70.5-4.4 79.8-0.8 9.3-128.5-6.5-125-19.7z"/>
								<path id="&lt;Path&gt;" class="s8" d="m1225.9 1160.7c-2-24-2.3-64.6 10.1-84.4 16.5-26.2 111.3-11.3 120.5 9 10.5 23.1-10.7 93.3-17.8 95.6-9.4 3-111.7-5.4-112.8-20.2z"/>
								<path id="&lt;Path&gt;" class="s10" d="m1233.8 1080.5c4.3-9.7 10.2-19.3 40.4-19.2 30.1 0.1 115.1 12 135.4 48q11.5 20.6 2.6 39.6-7.5-26.8-42.5-44.7c-28.5-14.6-110.8-24.2-135.9-23.7z"/>
								<g id="&lt;Group&gt;">
									<path id="&lt;Path&gt;" class="s11" d="m1240.7 1143.6c5.4 35.7 30.6 166.4 52.5 301.4 9.5 58.1-116.8 85.1-135.3 23.6q-25-82.8-77.9-300.4z"/>
								</g>
							</g>
							<g id="&lt;Group&gt;">
								<path id="&lt;Path&gt;" class="s11" d="m1017.3 1178.8q4.4 74.6 67.6 597.2l-106.4 14.9q-33-190.9-54.5-274.6-21.4-83.8-59.1-329.6z"/>
								<path id="&lt;Path&gt;" class="s9" d="m979.5 1805.8q-18.8-82.1-18.8-96.6c0-14.6 115.1-31 118-11.3q2.6 17.9 10.9 88.8z"/>
								<path id="&lt;Path&gt;" class="s8" d="m957.7 1862.5c-3.6-18.2-16.3-87.6 59.4-101.5 75.6-13.9 92.2 29 100.1 65.9 5.3 24.7-52.8 40.5-78.1 43.8-21.4 2.8-77.7 10.1-81.4-8.2z"/>
								<path id="&lt;Path&gt;" class="s12" d="m1114.4 1815.2c1 3.9 2 7.8 2.8 11.7 5.3 24.7-52.8 40.5-78.1 43.8-21.4 2.8-77.7 10.1-81.4-8.2-0.6-2.9-1.4-7.2-2-12.4 21.4 4.9 58.6 0.1 75.7-2.2 22.4-2.9 67.4-14.5 83-32.7z"/>
							</g>
							<path id="&lt;Path&gt;" class="s13" d="m823.1 978q221.9 29.5 359-37.4 78.2 201.2 88.8 267c6.8 41.7-140.2 78-177.5 69.9-22.7-4.9-33.6-107.4-40.3-143.3-2-11.1-15.3-11.4-15.3-1.2 0.1 26.9 26.5 148.1 0.5 153.5-31.9 6.7-162.6 11.3-176.8-1.7q-21.6-19.7-38.4-306.8z"/>
							<path id="&lt;Path&gt;" class="s7" d="m863.2 614.2c0.2 25.5 16.7 90 85.6 76.4q92.8-18.3 47.7-105.6l36.2-16.1q20 114.3 92.8 132.4 77.7 229.1 104.8 335.8c-39.6 58.8-400.7 95.5-411.1 74.6q-10.5-20.9-36.3-365.5 58.6-29.1 34-146.4z"/>
							<path id="&lt;Path&gt;" class="s2" d="m818.3 764.1q171.7-57.2 275-36.7l38.6 153.2q-202.1 70.6-292 45.3z"/>
							<g id="&lt;Group&gt;">
								<path id="&lt;Path&gt;" class="s11" d="m938 630.9c-55.1 9.2-149.3-3.3-193.7-96.9-41-86.4 0.7-204.4 110.7-229.7 110.1-25.3 202.4 56.4 211.4 154.5 7.6 82.8-39.1 157.1-128.4 172.1z"/>
								<g id="&lt;Group&gt;">
									<path id="&lt;Path&gt;" class="s14" d="m892.8 292.6c-2.5-16.9-4.9-75.8 61.9-95.8 66.7-20 101.1 25.9 120.5-39.7 40.5 16.4 41.5 105.6 12.8 135.6-33.1 34.5-56.5 36.3-88.4 35.6q-31.8-0.7-54.6 7.2-49.7-26-52.2-42.9z"/>
									<path id="&lt;Path&gt;" class="s7" d="m851.5 314.4q9.7-40.7 53.7-43.7c44-3 66.7 35.8 64.8 52.5q-1.9 16.7-118.5-8.8z"/>
									<path id="&lt;Path&gt;" class="s15" d="m759.8 345.5q49.2-58 118.5-49.9c153.5-39.3 190.4 96.6 195.8 116.3q5.4 19.8 17.6 22-30.5 46.8-114.2 22.3-83.7-24.5-101.4-114.5c3.4 27.7-19.2 100.3-54.7 125.2q-35.5 24.8-99.9 20.6c4.5-22.4-10.8-84 38.3-142z"/>
								</g>
								<g id="&lt;Group&gt;">
									<path id="&lt;Path&gt;" class="s11" d="m1050.7 460.9q9.5-31.4 32.1-27.6c22.5 3.8 23.6 82.5-26.1 81.2z"/>
									<g id="&lt;Group&gt;">
										<path id="&lt;Path&gt;" class="s11" d="m750.2 539.5c-43.9 24-77.8-44-54.9-60.6q18.5-13.5 38.5 8.1z"/>
									</g>
								</g>
								<path id="&lt;Path&gt;" class="s16" d="m833.8 533.4q101.3-20.6 145.2-19.9 21.7 84.7-51 95.6c-71.7 10.8-94.6-47.4-94.2-75.7z"/>
								<g id="&lt;Group&gt;">
									<g id="&lt;Group&gt;">
										<g id="&lt;Group&gt;">
											<path id="&lt;Path&gt;" class="s17" d="m765.2 537.2c-0.9 0-1.8-0.2-2.6-0.7-2.4-1.4-3.2-4.5-1.8-7l9.5-16c1.4-2.5 4.6-3.3 7-1.8 2.4 1.4 3.2 4.5 1.8 6.9l-9.5 16.1c-1 1.6-2.7 2.5-4.4 2.5z"/>
										</g>
										<g id="&lt;Group&gt;">
											<path id="&lt;Path&gt;" class="s17" d="m784.1 535.1c-0.9 0-1.8-0.2-2.6-0.7-2.4-1.4-3.2-4.5-1.8-6.9l9.5-16.1c1.4-2.4 4.5-3.2 7-1.8 2.4 1.4 3.2 4.6 1.7 7l-9.5 16.1c-0.9 1.6-2.6 2.4-4.3 2.4z"/>
										</g>
										<g id="&lt;Group&gt;">
											<path id="&lt;Path&gt;" class="s17" d="m802.9 533.1c-0.8 0-1.7-0.2-2.5-0.7-2.5-1.4-3.3-4.6-1.8-7l9.5-16.1c1.4-2.4 4.5-3.2 6.9-1.7 2.5 1.4 3.3 4.5 1.8 6.9l-9.5 16.1c-0.9 1.6-2.6 2.5-4.4 2.5z"/>
										</g>
									</g>
									<g id="&lt;Group&gt;">
										<g id="&lt;Group&gt;">
											<path id="&lt;Path&gt;" class="s17" d="m990.9 509.5c-0.8 0-1.7-0.2-2.6-0.7-2.4-1.4-3.2-4.6-1.7-7l9.5-16c1.4-2.5 4.5-3.3 6.9-1.8 2.4 1.4 3.2 4.5 1.8 6.9l-9.5 16.1c-0.9 1.6-2.6 2.5-4.4 2.5z"/>
										</g>
										<g id="&lt;Group&gt;">
											<path id="&lt;Path&gt;" class="s17" d="m1009.8 507.4c-0.9 0-1.8-0.2-2.6-0.7-2.4-1.4-3.2-4.5-1.8-6.9l9.5-16.1c1.5-2.4 4.6-3.2 7-1.8 2.4 1.4 3.2 4.6 1.8 7l-9.5 16.1c-1 1.6-2.7 2.4-4.4 2.4z"/>
										</g>
										<g id="&lt;Group&gt;">
											<path id="&lt;Path&gt;" class="s17" d="m1028.7 505.4c-0.9 0-1.8-0.2-2.6-0.7-2.4-1.4-3.2-4.6-1.8-7l9.5-16.1c1.5-2.4 4.6-3.2 7-1.7 2.4 1.4 3.2 4.5 1.8 6.9l-9.5 16.1c-1 1.6-2.7 2.5-4.4 2.5z"/>
										</g>
									</g>
								</g>
							</g>
						</g>
					</g>
				</g>
			</g>
			<g id="&lt;Group&gt;">
				<path id="&lt;Path&gt;" class="s18" d="m270.8 725.2q73.3-31.1 146.4-22.4c107.6 12.9 187.2 40.4 253.5 69.6 112.1 49.4 257.5 137.5 386.6 109.2 129.2-28.2 289.7-107.2 403.2-161.9 113.6-54.8 182 32.3 212.3 69.8l-44.1-10 13.8 57.3q-57-69.5-128.1-71.7c-71-2.2-309.5 202.5-457.1 208.3-147.6 5.8-293.4-20.8-386.7-91.8-93.4-71-317.3-122.4-400.9-68.3l33.8-53.9z"/>
			</g>
		</g>
	</g>
	<g id="Tennis">
		<g id="Tennis">
			<g id="&lt;Group&gt;">
				<g id="&lt;Group&gt;">
					<g id="&lt;Group&gt;">
						<path id="&lt;Path&gt;" class="s19" d="m1377.3 1200.1c33.6-13.3 67.5 10 93.6 61.4 26.2 51.4 96.6 173.2 117.5 205.8 20.9 32.7 48.3 98.2 7.1 128.2-41.2 29.9-79.3 11.7-114.5-32.4-35.6-44.7-116.6-191.2-134.7-230.1-20.1-43.2-28-109.6 31-132.9z"/>
					</g>
					<g id="&lt;Group&gt;">
						<path id="&lt;Path&gt;" class="s19" d="m1494.2 1579.4c-20.3-19.9-9.4-68.3 33.9-105.8 43.3-37.4 131.4-88 166.8-111 45.1-29.3 91.5-90.3 108.8-102.5 15.3-10.8 29.9 8 23.7 19.2q-3 5.4-8.1 11.1 11-8.4 21-4.2c8.1 3.4 11.1 11.2 9.3 18.2-1.2 4.7-7.9 11.8-11.6 14.4q6.4-4.1 12.8-4.9c10.5-1.3 18.3 12.8 13.6 18.9q-4.9 6.2-8.4 8.7 10.8-2.9 17.2 6.7c5.1 7.6 4.1 16.1-1.8 22.6-2.4 2.6-25.2 23.7-49.5 40.3-21 14.3-43.4 24.3-53.1 27.8-20.8 7.6-147.3 132.1-173.2 152.4-25.9 20.3-58.9 29.6-101.4-11.9z"/>
					</g>
					<g id="&lt;Group&gt;">
						<path id="&lt;Path&gt;" class="s20" d="m1336 1329.5c-15-35-25.1-101.3 28-130.4 53.1-29.1 94.6 24.6 109.4 50.4 17.6 30.8 67 110.6 63.6 117.2-15 28.8-112.2 89.5-130.8 85.3-10.7-2.4-55.2-87.5-70.2-122.5z"/>
					</g>
				</g>
				<g id="&lt;Group&gt;">
					<g id="&lt;Group&gt;">
						<path id="&lt;Compound Path&gt;" fill-rule="evenodd" class="s0" d="m1447.8 767c83.2-49.4 196.9-11.9 253.7 83.8 56.8 95.7 35.3 213.4-47.9 262.8-83.2 49.5-196.9 11.9-253.7-83.8-56.8-95.6-35.3-213.4 47.9-262.8zm-21.8 247.4c47 79.1 141 110.2 209.8 69.3 68.9-40.9 86.6-138.3 39.6-217.4-46.9-79.2-141-110.2-209.8-69.3-68.8 40.8-86.6 138.2-39.6 217.4z"/>
					</g>
					<g id="&lt;Group&gt;">
						<g id="&lt;Clip Group&gt;" clip-path="url(#cp3)">
							<g id="&lt;Group&gt;">
								<g id="&lt;Group&gt;">
									<g id="&lt;Group&gt;">
										<g id="&lt;Group&gt;">
											<path id="&lt;Path&gt;" class="s21" d="m1505.9 1179c-0.8 0-1.5-0.4-1.9-1.1l-185-311.6c-0.6-1-0.3-2.4 0.8-3 1-0.6 2.3-0.3 2.9 0.8l185 311.6c0.6 1 0.3 2.3-0.7 3q-0.6 0.3-1.1 0.3z"/>
										</g>
										<g id="&lt;Group&gt;">
											<path id="&lt;Path&gt;" class="s21" d="m1533.5 1162.6c-0.8 0-1.5-0.4-1.9-1.1l-185-311.6c-0.6-1-0.2-2.4 0.8-3 1-0.6 2.4-0.3 3 0.8l184.9 311.6c0.7 1 0.3 2.3-0.7 2.9q-0.5 0.4-1.1 0.4z"/>
										</g>
										<g id="&lt;Group&gt;">
											<path id="&lt;Path&gt;" class="s21" d="m1561.1 1146.1c-0.7 0-1.4-0.3-1.9-1l-184.9-311.6c-0.6-1-0.3-2.4 0.7-3 1.1-0.6 2.4-0.3 3 0.8l185 311.6c0.6 1 0.3 2.3-0.8 2.9q-0.5 0.4-1.1 0.3z"/>
										</g>
										<g id="&lt;Group&gt;">
											<path id="&lt;Path&gt;" class="s21" d="m1588.7 1129.7c-0.7 0-1.4-0.3-1.8-1l-185-311.6c-0.6-1-0.3-2.4 0.8-3 1-0.6 2.3-0.3 2.9 0.8l185 311.6c0.6 1 0.3 2.3-0.7 2.9q-0.6 0.3-1.2 0.3z"/>
										</g>
										<g id="&lt;Group&gt;">
											<path id="&lt;Path&gt;" class="s21" d="m1616.4 1113.3c-0.8 0-1.5-0.3-1.9-1l-185-311.6c-0.6-1-0.2-2.4 0.8-3 1-0.6 2.4-0.3 3 0.8l184.9 311.6c0.7 1 0.3 2.3-0.7 2.9q-0.5 0.3-1.1 0.3z"/>
										</g>
										<g id="&lt;Group&gt;">
											<path id="&lt;Path&gt;" class="s21" d="m1644 1096.9c-0.7 0-1.5-0.3-1.9-1l-184.9-311.6c-0.6-1.1-0.3-2.4 0.7-3 1-0.6 2.4-0.3 3 0.8l185 311.6c0.6 1 0.2 2.3-0.8 2.9q-0.5 0.3-1.1 0.3z"/>
										</g>
										<g id="&lt;Group&gt;">
											<path id="&lt;Path&gt;" class="s21" d="m1671.6 1080.5c-0.7 0-1.4-0.3-1.8-1l-185-311.6c-0.6-1.1-0.3-2.4 0.8-3 1-0.6 2.3-0.3 2.9 0.8l185 311.6c0.6 1 0.3 2.3-0.8 2.9q-0.5 0.3-1.1 0.3z"/>
										</g>
										<g id="&lt;Group&gt;">
											<path id="&lt;Path&gt;" class="s21" d="m1699.3 1064.1c-0.8 0-1.5-0.3-1.9-1l-185-311.6c-0.6-1.1-0.2-2.4 0.8-3 1-0.6 2.3-0.3 3 0.8l184.9 311.6c0.6 1 0.3 2.3-0.7 2.9q-0.6 0.3-1.1 0.3z"/>
										</g>
										<g id="&lt;Group&gt;">
											<path id="&lt;Path&gt;" class="s21" d="m1726.9 1047.7c-0.7 0-1.5-0.4-1.9-1l-184.9-311.6c-0.7-1.1-0.3-2.4 0.7-3 1-0.6 2.4-0.3 3 0.8l185 311.6c0.6 1 0.2 2.3-0.8 2.9q-0.5 0.3-1.1 0.3z"/>
										</g>
										<g id="&lt;Group&gt;">
											<path id="&lt;Path&gt;" class="s21" d="m1754.5 1031.3c-0.7 0-1.4-0.4-1.8-1l-185-311.6c-0.6-1.1-0.3-2.4 0.7-3 1.1-0.6 2.4-0.3 3 0.7l185 311.6c0.6 1.1 0.3 2.4-0.8 3q-0.5 0.3-1.1 0.3z"/>
										</g>
										<g id="&lt;Group&gt;">
											<path id="&lt;Path&gt;" class="s21" d="m1782.2 1014.9c-0.8 0-1.5-0.4-1.9-1l-185-311.6c-0.6-1.1-0.3-2.4 0.8-3 1-0.6 2.3-0.3 3 0.7l184.9 311.6c0.6 1.1 0.3 2.4-0.7 3q-0.6 0.3-1.1 0.3z"/>
										</g>
									</g>
									<g id="&lt;Group&gt;">
										<g id="&lt;Group&gt;">
											<path id="&lt;Path&gt;" class="s21" d="m1472.1 1193.8c-0.7 0-1.4-0.4-1.8-1.1-0.7-1-0.3-2.3 0.7-2.9l311.6-185c1-0.6 2.4-0.3 3 0.7 0.6 1.1 0.3 2.4-0.8 3l-311.6 185q-0.5 0.3-1.1 0.3z"/>
										</g>
										<g id="&lt;Group&gt;">
											<path id="&lt;Path&gt;" class="s21" d="m1455.7 1166.2c-0.7 0-1.4-0.4-1.8-1.1-0.7-1-0.3-2.4 0.7-3l311.6-184.9c1-0.7 2.4-0.3 3 0.7 0.6 1 0.3 2.4-0.8 3l-311.6 185q-0.5 0.3-1.1 0.3z"/>
										</g>
										<g id="&lt;Group&gt;">
											<path id="&lt;Path&gt;" class="s21" d="m1439.3 1138.5c-0.7 0-1.4-0.3-1.9-1-0.6-1.1-0.2-2.4 0.8-3l311.6-185c1-0.6 2.4-0.3 3 0.8 0.6 1 0.3 2.3-0.8 3l-311.6 184.9q-0.5 0.3-1.1 0.3z"/>
										</g>
										<g id="&lt;Group&gt;">
											<path id="&lt;Path&gt;" class="s21" d="m1422.9 1110.9c-0.7 0-1.4-0.4-1.9-1.1-0.6-1-0.2-2.3 0.8-2.9l311.6-185c1-0.6 2.4-0.3 3 0.7 0.6 1.1 0.2 2.4-0.8 3l-311.6 185q-0.5 0.3-1.1 0.3z"/>
										</g>
										<g id="&lt;Group&gt;">
											<path id="&lt;Path&gt;" class="s21" d="m1406.5 1083.3c-0.7 0-1.5-0.4-1.9-1.1-0.6-1-0.2-2.3 0.8-3l311.6-184.9c1-0.7 2.4-0.3 3 0.7 0.6 1 0.2 2.4-0.8 3l-311.6 185q-0.5 0.3-1.1 0.3z"/>
										</g>
										<g id="&lt;Group&gt;">
											<path id="&lt;Path&gt;" class="s21" d="m1390.1 1055.6c-0.7 0-1.5-0.3-1.9-1-0.6-1-0.2-2.4 0.8-3l311.6-185c1-0.6 2.4-0.2 3 0.8 0.6 1 0.2 2.3-0.8 3l-311.6 184.9q-0.5 0.3-1.1 0.3z"/>
										</g>
										<g id="&lt;Group&gt;">
											<path id="&lt;Path&gt;" class="s21" d="m1373.7 1028c-0.7 0-1.5-0.4-1.9-1.1-0.6-1-0.2-2.3 0.8-2.9l311.6-185c1-0.6 2.4-0.3 3 0.8 0.6 1 0.2 2.3-0.8 2.9l-311.6 185q-0.5 0.3-1.1 0.3z"/>
										</g>
										<g id="&lt;Group&gt;">
											<path id="&lt;Path&gt;" class="s21" d="m1357.3 1000.4c-0.7 0-1.5-0.4-1.9-1.1-0.6-1-0.2-2.3 0.8-3l311.6-184.9c1-0.6 2.3-0.3 3 0.7 0.6 1.1 0.2 2.4-0.8 3l-311.6 185q-0.5 0.3-1.1 0.3z"/>
										</g>
										<g id="&lt;Group&gt;">
											<path id="&lt;Path&gt;" class="s21" d="m1340.9 972.7c-0.7 0-1.5-0.3-1.9-1-0.6-1-0.2-2.4 0.8-3l311.6-185c1-0.6 2.3-0.2 3 0.8 0.6 1 0.2 2.4-0.8 3l-311.6 184.9q-0.5 0.4-1.1 0.3z"/>
										</g>
										<g id="&lt;Group&gt;">
											<path id="&lt;Path&gt;" class="s21" d="m1324.5 945.1c-0.7 0-1.5-0.4-1.9-1-0.6-1.1-0.2-2.4 0.8-3l311.6-185c1-0.6 2.3-0.3 3 0.8 0.6 1 0.2 2.3-0.8 2.9l-311.6 185q-0.5 0.3-1.1 0.3z"/>
										</g>
										<g id="&lt;Group&gt;">
											<path id="&lt;Path&gt;" class="s21" d="m1308.1 917.5c-0.8 0-1.5-0.4-1.9-1.1-0.6-1-0.3-2.3 0.8-2.9l311.6-185c1-0.6 2.3-0.3 3 0.7 0.6 1.1 0.2 2.4-0.8 3l-311.6 185q-0.5 0.3-1.1 0.3z"/>
										</g>
										<g id="&lt;Group&gt;">
											<path id="&lt;Path&gt;" class="s21" d="m1291.7 889.9c-0.8 0-1.5-0.4-1.9-1.1-0.6-1-0.3-2.4 0.8-3l311.6-185c1-0.6 2.3-0.2 2.9 0.8 0.7 1 0.3 2.4-0.7 3l-311.6 185q-0.5 0.3-1.1 0.3z"/>
										</g>
									</g>
								</g>
							</g>
						</g>
					</g>
					<g id="&lt;Group&gt;">
						<path id="&lt;Path&gt;" class="s0" d="m1711.5 1227.6c-5.7 0-11.2-2.9-14.3-8.1l-62.4-105.2c-4.7-7.9-2.1-18 5.7-22.7 7.9-4.7 18-2.1 22.7 5.8l62.5 105.2c4.6 7.9 2 18-5.8 22.7-2.7 1.6-5.6 2.3-8.4 2.3z"/>
					</g>
					<g id="&lt;Group&gt;">
						<path id="&lt;Path&gt;" class="s7" d="m1702.9 1196.6c11.8-7 22.9-10 29.9 1.8l115.3 194.2c7 11.8-1.6 19.1-13.4 26.1-11.8 7-22.3 11-29.3-0.8l-115.3-194.2c-7-11.7 1-20.1 12.8-27.1z"/>
					</g>
				</g>
				<g id="&lt;Group&gt;">
					<path id="&lt;Path&gt;" class="s19" d="m1793.8 1314.9c-8.3 7.1-26.5-6.6-21-18.9 6.4-14.3 19.9-26.9 29.4-34.8 14-11.6 19.3-2.3 23 2.1 4.3 5 9.8 11.1-4 25.8-9.2 9.9-18 17.9-27.4 25.8z"/>
					<g id="&lt;Group&gt;">
						<path id="&lt;Path&gt;" class="s19" d="m1812.2 1339.8c-8.9 6.4-26-8.5-19.6-20.5 7.5-13.7 21.8-25.3 31.9-32.4 14.9-10.6 19.4-0.9 22.8 3.8 3.9 5.2 8.9 11.8-5.9 25.4-9.9 9.2-19.3 16.5-29.2 23.7z"/>
					</g>
					<g id="&lt;Group&gt;">
						<path id="&lt;Path&gt;" class="s19" d="m1825 1366.7c-9.4 5.7-25.3-10.5-18-21.9 8.5-13.2 23.7-23.6 34.3-29.9 15.7-9.5 19.4 0.6 22.5 5.5 3.5 5.5 7.9 12.5-7.9 24.9-10.5 8.4-20.5 15-30.9 21.4z"/>
					</g>
					<g id="&lt;Group&gt;">
						<path id="&lt;Path&gt;" class="s19" d="m1841.9 1395.6c-8.4 5.1-25.5-13.6-18.9-23.9 7.6-11.8 21.7-20.4 30.8-26.9 11.7-8.3 20-0.6 22.7 3.8 3.1 5 7.5 16.6-6.7 27.8-9.6 7.5-18.5 13.4-27.9 19.2z"/>
					</g>
				</g>
				<path id="&lt;Path&gt;" class="s22" d="m1706.9 1351.4c-1.9-12.5 8.6-33.3 30.5-48 14.5-9.6 45-7.4 67.8-5.2 18.7 1.9 22.3 18 16.3 27.8-6 9.9-38.9 7.8-52.6 8.4q8.9 26.6-13 42.5c-15.3 11.2-45.5-2.1-49-25.5z"/>
			</g>
			<g id="&lt;Group&gt;">
				<g id="&lt;Clip Group&gt;" clip-path="url(#cp4)">
					<g id="&lt;Group&gt;">
						<g id="&lt;Group&gt;">
							<g id="&lt;Group&gt;">
								<path id="&lt;Path&gt;" class="s7" d="m1522.2 1305.4q13.4 76.7 25.5 423.9-115 91.5-454.6 87.2 26.2-348.1 66.2-471.6c40-123.5 125.4-156.1 175.2-163 110.6-15.4 174.3 46.8 187.7 123.5z"/>
								<path id="&lt;Path&gt;" class="s13" d="m1328.9 1179.5c52.9-6.2 91.2-0.1 99.1 10 8 10.2 3.6 39.5-51.3 50.8-47.9 9.9-85.2-0.8-102.3-15.9-16.5-14.4-5.5-37.8 54.5-44.9z"/>
							</g>
							<g id="&lt;Group&gt;">
								<g id="&lt;Group&gt;">
									<path id="&lt;Path&gt;" class="s23" d="m1366.3 1202.3c-54.2 13.7-149.1 8.7-200.8-81-47.8-82.9-15.8-203.8 91.9-237.8 107.7-34.1 206.2 40 223.1 137 14.2 82-26.4 159.7-114.2 181.8z"/>
								</g>
								<path id="&lt;Path&gt;" class="s24" d="m1225.4 1124.6q26.1 36.6 47 60.6c7 8.1 24.9 17.8 21.9 21.4-10.5 12-121.6 9.2-173.2-63.4-44.1-61.9-49.4-149.8-19-206.7 30.5-56.9 107.5-91.7 163-96.9 41.6-3.9 17.7-25.8 40.4-28.7 22.7-3 33.4 17.3 32.3 25.4q10.5-18.7 25.1-13.4 14.5 5.4 12.5 25.1 11.6-16.5 22.1-4.3c10.6 12.2 12.5 34.3-3.6 53.5q-19.7 23.6-208.9 111.7 1.3 62.6 40.4 115.7z"/>
								<g id="&lt;Group&gt;">
									<path id="&lt;Path&gt;" class="s22" d="m1231.7 1128.3c-41.9 27.4-81.2-37.7-59.6-56.1q17.4-14.9 39 5.1z"/>
								</g>
								<g id="&lt;Group&gt;">
									<path id="&lt;Path&gt;" class="s16" d="m1313.6 1101.4q93.6-43.7 136.4-53.3 40.9 77.4-27.2 104.9c-67.1 27.2-103-24-109.2-51.6z"/>
								</g>
								<g id="&lt;Group&gt;">
									<g id="&lt;Group&gt;">
										<g id="&lt;Group&gt;">
											<path id="&lt;Path&gt;" class="s17" d="m1249.7 1122.7q-1 0-1.9-0.4c-2.6-1-3.9-4-2.8-6.6l6.9-17.3c1.1-2.6 4-3.9 6.6-2.8 2.6 1 3.9 4 2.9 6.6l-7 17.3c-0.8 2-2.7 3.2-4.7 3.2z"/>
										</g>
										<g id="&lt;Group&gt;">
											<path id="&lt;Path&gt;" class="s17" d="m1268 1117.8q-0.9 0-1.9-0.4c-2.6-1-3.8-4-2.8-6.6l7-17.3c1-2.6 4-3.9 6.6-2.8 2.6 1 3.9 4 2.8 6.6l-7 17.3c-0.8 2-2.7 3.2-4.7 3.2z"/>
										</g>
										<g id="&lt;Group&gt;">
											<path id="&lt;Path&gt;" class="s17" d="m1286.4 1112.9q-1 0-1.9-0.3c-2.6-1.1-3.9-4-2.8-6.6l6.9-17.4c1.1-2.6 4-3.8 6.6-2.8 2.6 1.1 3.9 4 2.9 6.6l-7 17.4c-0.8 1.9-2.7 3.1-4.7 3.1z"/>
										</g>
									</g>
									<g id="&lt;Group&gt;">
										<g id="&lt;Group&gt;">
											<path id="&lt;Path&gt;" class="s17" d="m1455.5 1053.2q-0.7 0-1.3-0.2c-2.7-0.7-4.3-3.5-3.6-6.2l4.7-18c0.7-2.8 3.5-4.4 6.2-3.7 2.7 0.7 4.3 3.5 3.6 6.2l-4.7 18.1c-0.6 2.3-2.7 3.8-4.9 3.8z"/>
										</g>
										<g id="&lt;Group&gt;">
											<path id="&lt;Path&gt;" class="s17" d="m1473.1 1046q-0.7 0-1.3-0.1c-2.7-0.7-4.4-3.5-3.6-6.2l4.7-18.1c0.7-2.7 3.5-4.3 6.2-3.6 2.7 0.7 4.3 3.5 3.6 6.2l-4.7 18.1c-0.6 2.2-2.7 3.7-4.9 3.7z"/>
										</g>
										<g id="&lt;Group&gt;">
											<path id="&lt;Path&gt;" class="s17" d="m1490.7 1038.9q-0.7 0-1.3-0.2c-2.7-0.7-4.4-3.5-3.6-6.2l4.7-18c0.7-2.8 3.5-4.4 6.2-3.7 2.7 0.7 4.3 3.5 3.6 6.2l-4.7 18.1c-0.6 2.3-2.7 3.8-4.9 3.8z"/>
										</g>
									</g>
								</g>
								<path id="&lt;Path&gt;" class="s13" d="m1080.4 1055.9c-0.7-5.4 2-10.8 6.7-13.6 38.4-22.4 211.8-122 309.7-150.5 2.6-0.7 5.5-0.1 7.5 1.7 7.2 6.2 24.5 21.6 37 37.3 0.7 1 0.9 2.2 0.7 3.3-0.3 1.2-1.1 2.1-2.2 2.6-23.2 10.3-130.4 58.2-186.5 89.1-54.3 30-130.8 74.2-151 85.9-1.3 0.7-2.8 0.9-4.2 0.4-1.4-0.5-2.5-1.5-3.1-2.9-3.9-9.8-11.7-31.4-14.6-53.3z"/>
							</g>
						</g>
					</g>
				</g>
			</g>
			<g id="&lt;Group&gt;">
				<g id="&lt;Group&gt;">
					<path id="&lt;Path&gt;" class="s22" d="m1219.3 1265.9c26.1-25.1 66.3-16.3 110 21.3 43.6 37.6 155 123.6 186.7 145.9 31.7 22.3 81.9 72.5 55.2 115.8-26.8 43.4-68.8 41-118.2 13.5-49.9-27.8-180.4-132.6-211.9-161.7-35-32.4-67.5-90.8-21.8-134.8z"/>
				</g>
				<g id="&lt;Group&gt;">
					<path id="&lt;Path&gt;" class="s22" d="m1471.7 1571.6c-24.9-13.8-27.2-63.4 4.5-110.9 31.8-47.6 103.3-119.8 131.4-151.5 35.6-40.1 74.9-122.7 88.4-139.1 11.9-14.4 31-0.2 27.9 12.3q-1.4 6-4.8 12.8 8.3-11 19.1-9.6c8.7 1.1 13.7 7.8 13.8 15.1 0.1 4.8-4.5 13.4-7.4 17q5.1-5.7 11.1-8.2c9.7-4 21 7.5 18.1 14.6q-3 7.3-5.8 10.6 9.7-5.6 18.4 2c6.9 5.9 8.3 14.4 4.2 22.2-1.6 3.2-28.7 40.9-47.8 63.4-16.4 19.4-35.4 35-43.7 40.9-18 12.9-107 166.5-126.5 192.9-19.6 26.5-48.9 44.2-100.9 15.5z"/>
				</g>
				<path id="&lt;Path&gt;" class="s2" d="m1230.2 1401.3c-27.2-26.7-61.6-84.2-23.5-131.3 38.1-47 96.8-13.1 120.3 5.2 27.9 21.8 104 76.9 103.3 84.3-3 32.4-69.8 125.4-88.7 128.6-10.7 1.8-84.3-60.1-111.4-86.8z"/>
				<g id="&lt;Group&gt;">
					<path id="&lt;Path&gt;" class="s7" d="m1616.6 1298.3c8.9 7.5 69.8 59.3 78.3 68.9 5.7 6.5-13.6 44.3-26.7 37.8-13-6.5-74.4-59.5-81.9-74.2-4.8-9.5 22.6-38.9 30.3-32.5z"/>
				</g>
			</g>
		</g>
	</g>
	<g id="Layer 3">
		<g id="Volleyball">
			<path id="&lt;Path&gt;" class="s25" d="m846.2 878.1c41 6.4 174.8 26.4 210.1 133.2 35.3 106.7-13.4 343.9-23.1 401.2q-9.7 57.2-14.7 191.5-161 17.1-277.6-7.8-116.6-25-259.3-131.9 85.6-138.5 109.8-232.9c24.2-94.4 56.4-228.8 92.6-287.6 40.8-66.2 126-71.3 162.2-65.7z"/>
			<g id="&lt;Group&gt;">
				<g id="&lt;Group&gt;">
					<path id="&lt;Path&gt;" class="s26" d="m759.4 1340.7c-8.5 49.6-64.3 65.1-129.3 51.1-65-14.1-152-62.2-231.5-156.8-79.4-94.7-100.7-236.4-105.9-269.3-3.8-23.4-9.2-60.7-10.6-79.2-1-14.7 20.7-19.5 24.3-10.2q5.2 13.1 10.1 39.9-2.4-21.7-3.4-39.6c-0.7-10.7 21.8-16 24.2-5.9q4.2 18 8.6 38.9-5.2-30.3-0.2-42.2c2.1-5.1 15-5.9 18.8-2.3q7.1 6.7 9.2 41.7c0-9-1.8-30.3 1.6-40.2 2.1-6.1 17-5.3 19.6 1.7 6.9 18.8 4.1 48.1 9.3 98.5 5.8 57.4 43.7 128.3 84.4 184.9 24 33.5 68.7 67.7 106.8 87.6 26.2 13.8 72.5 23.3 83.8 25 42 6.1 88.7 26.9 80.2 76.4z"/>
					<path id="&lt;Path&gt;" class="s26" d="m385.2 972.1c-9.7-7.7-9.6-28.2-2.4-37.8 7.2-9.7 22.7-16.4 28.8-21 4.4-3.4 5.6-29 19.4-27.8 16.3 1.5 14.6 13.1 10.8 31.5-2.9 14.3-11.9 47.1-26.8 56.7-8 5.3-15.3 9.9-29.8-1.6z"/>
				</g>
				<path id="&lt;Path&gt;" class="s7" d="m570.8 1382.8c-2.1-1.6-3.5-4-3.8-6.7-0.2-2.6 0.7-5.3 2.5-7.3 14.4-22 39.4-84 37.5-119.4-0.4-2.8 0.6-5.6 2.8-7.5 2.1-1.9 5.1-2.5 7.8-1.7 21.2 6.2 61.8 18.1 77.9 21.7 22.3 4.9 78 24.5 78.2 66.8 0.1 39.1-13.6 70.5-83.4 77.5-50.7 5.1-96.9-9.5-119.5-23.4z"/>
				<g id="&lt;Clip Group&gt;" clip-path="url(#cp5)">
					<g id="&lt;Group&gt;">
						<path id="&lt;Path&gt;" class="s21" d="m588.8 1410.2c-0.9 0-1.7-0.3-2.5-0.9-1.7-1.4-2-3.9-0.6-5.6 0.2-0.2 14.5-18.2 27.8-47.8 12.3-27.2 26.1-70 22.5-119.6-0.2-2.2 1.5-4.1 3.7-4.3 2.2-0.1 4.1 1.5 4.3 3.7 3.7 51.4-10.6 95.7-23.3 123.8-13.7 30.4-28.2 48.4-28.8 49.2-0.8 1-1.9 1.5-3.1 1.5z"/>
						<g id="&lt;Group&gt;">
							<path id="&lt;Path&gt;" class="s21" d="m608 1415.6c-0.9 0-1.8-0.3-2.5-0.9-1.7-1.4-2-3.9-0.6-5.6 0.1-0.2 14.5-18.2 27.8-47.8 12.3-27.1 26.1-70 22.5-119.6-0.2-2.2 1.5-4.1 3.7-4.2 2.2-0.2 4.1 1.5 4.2 3.7 3.8 51.3-10.5 95.6-23.2 123.7-13.7 30.4-28.2 48.5-28.8 49.2-0.8 1-1.9 1.5-3.1 1.5z"/>
						</g>
					</g>
				</g>
			</g>
			<g id="&lt;Group&gt;">
				<g id="&lt;Clip Group&gt;" clip-path="url(#cp6)">
					<g id="&lt;Group&gt;">
						<g id="&lt;Group&gt;">
							<path id="&lt;Path&gt;" class="s2" d="m853.5 1238.3c38.8 9.3 122.6 56.6 121.6 158.2-0.7 64.9-47.7 326.1-70.2 387.9q-156.9 6.5-259.8-33.3c-102.9-39.9-132.8-108.1-136.4-139.9 18.4-51.2 79.2-259.1 122.4-319.1 53-73.5 132.7-75.3 222.4-53.8z"/>
							<g id="&lt;Group&gt;">
								<path id="&lt;Compound Path&gt;" fill-rule="evenodd" class="s27" d="m700.8 1383.8c1.7 0 3.4 0.2 5 0.4l1.8 0.2c2.2 0.3 4.4 0.5 6.7 0.3 2.4 0 4.8 1.2 7.3 2l6.5 2c10 3.2 20.5 6.6 28.7 14.3 2 2.3 4.7 3.9 7.2 5.9 9.9 7.5 14.7 18.5 19.6 29.2 1.4 3.2 1.2 7.5 2.2 10.6 1.8 5.3 2.5 10.7 1.5 16.3-0.3 2.3 0.5 4.5 0.6 6.9 0.5 5.8 0 11.1-1.5 17-1.1 4.8-1.3 10.3-2.5 15.4-2 7.3-4.4 14.9-6.8 22.4-1.1 3.6-1.9 7.3-3.3 10.4-2.3 6-4.8 11.6-7 17.2l-5.6 13.7c-2.2 4.4-4.8 8.7-7 13.2-3.1 4.9-6 10.3-8.8 15.4l-2.3 3.2c-5.6 7.7-11.7 14.5-18.9 19.7-6.6 4.6-12.6 11-21.1 12.7-3.3 0.5-6.1 3.2-9.2 4.2-3.5 0.9-7.2 1.3-10.5 1.8-15.4 2.2-30.4 2.2-45.3-3.3-4.9-2-10.6-2.6-15.4-5-7-3-14.3-6.1-20.4-10.4-6.2-4.4-10.1-10.8-8.2-19.3 1.2-3.6 3-6.9 6.4-8.6 1-0.9 2.3-1.3 3-2.2 1.8-1.8 4.3-2.2 6.8-1.4 1.9 0.2 3.6 1.1 5.4 1.7l10.4 3.3c1.1 0.4 2.2 0.7 3.2 1.4 4.3 3.8 9.7 4.3 14.6 6.3 3.9 1.2 8.5 0.7 12.5 1.6 10.9 1.9 21.2-0.4 31-5.2 5.7-2.9 10.6-6.1 14.9-10.7 2.3-2.4 4.8-5.2 6.6-8.2 3.5-4.8 7-9.6 9.2-15.3 1.4-4.3 0.4-7.4-4.2-8-2.6-0.5-5.5-0.2-8.5-0.7-6.1-0.8-12.7 0.2-18.8-1.7-4.2-1.7-8.8-2.4-13.3-3.1-6.8-0.9-13.1-3.7-18.9-7.9-5.4-4.1-11.2-8.4-16.5-12.8-2.7-2.5-4.5-5.8-6.6-8.9-0.5-0.9-1.1-1.5-2-2.6-0.2-0.5-1.3-0.8-1.6-1.3-2.4-7.1-7.3-13-8.5-20.5-0.5-5.7-2.2-11.8-2.2-17.7-0.6-5.8-0.8-11.4 1.1-17.1 1.2-4 1-8.4 1.5-12.2l3.9-12.2c1.1-1.2 2.3-2.5 3.1-3.8l8.3-14.8c0.2-0.7 0.8-1.3 0.9-1.6 5.9-6.1 11.7-13 18.7-17.5 6.5-4.2 13-8.5 20.6-10 3-0.7 5.9-2.5 8.9-3.1 5.1-1.2 9.9-1.2 15.1-1.5q0.8-0.1 1.5-0.1zm4.2 138.1c7.5 0.1 14.9-0.8 21.8-3.7 2.6-0.8 4.5-2.9 6.8-4.2 5-3.1 9.1-7.3 10.2-13.3 0.4-2.3 0.7-4.6 1.4-6.7 3.5-11.2 5-22.2 3.6-33.7-1-8.2-2-16.1-8-22.3-4.1-4.5-6.6-10.1-12.6-12.4-3.9-1.6-7.5-2.8-11.1-3.9-7.6-2.1-15.5-1-23.1-0.7q-0.1 0.4-0.5 0.3c-4.9 2.8-10 3.9-14.4 8-5.6 5-10.4 10.2-14.4 16.5-2.9 5.4-5.5 10.9-6.6 16.9-1 5.6-1.7 11.7-1.9 17.2 0 2.4 1.7 4.5 1.5 6.4-0.1 7.9 3.9 13.9 8.8 18.6 6.1 6.7 13.9 12 23.2 14.1l-0.4 1.1c5.4 0.5 10.5 1.8 15.7 1.8z"/>
							</g>
							<g id="&lt;Group&gt;">
								<path id="&lt;Path&gt;" class="s13" d="m704.9 1236.1c17.7-16.7 64.9-6.9 95.6-5.1 30.7 1.7 120.1 16.5 115 37.4-2.4 9.5-20.5 20.2-48.3 23.1-33 3.4-80.6-1-107.8-9.8-21.6-7.1-67.9-32.9-54.5-45.6z"/>
							</g>
						</g>
						<g id="&lt;Group&gt;">
							<path id="&lt;Path&gt;" class="s26" d="m766.5 1266.3c-64.1-13-118.6-86.1-114.6-153.9 3.9-67.9 22.3-230.4 206.8-196.9 184.6 33.5 162.5 194.7 145.6 248.5-15.1 48-74.4 135.4-237.8 102.3z"/>
							<g id="&lt;Group&gt;">
								<path id="&lt;Path&gt;" class="s28" d="m777.6 1235.9q-70.9-19.2-38.8-100.5 43.5 6.4 139.2 39.8c-4.1 28-26.3 80.7-100.4 60.7z"/>
							</g>
							<g id="&lt;Group&gt;">
								<g id="&lt;Group&gt;">
									<g id="&lt;Group&gt;">
										<path id="&lt;Path&gt;" class="s23" d="m684 1120.9c-1.5 0-3-0.7-4-2-1.7-2.3-1.3-5.4 0.9-7.2l14.8-11.3c2.3-1.7 5.5-1.3 7.2 0.9 1.7 2.3 1.2 5.5-1 7.2l-14.8 11.3c-0.9 0.7-2 1.1-3.1 1.1z"/>
									</g>
									<g id="&lt;Group&gt;">
										<path id="&lt;Path&gt;" class="s23" d="m702.3 1126c-1.5 0-3.1-0.7-4.1-2-1.7-2.2-1.2-5.4 1-7.1l14.8-11.4c2.2-1.7 5.4-1.2 7.1 1 1.7 2.2 1.3 5.4-0.9 7.1l-14.8 11.4c-1 0.7-2 1-3.1 1z"/>
									</g>
									<g id="&lt;Group&gt;">
										<path id="&lt;Path&gt;" class="s23" d="m720.6 1131.2c-1.6 0-3.1-0.7-4.1-2-1.7-2.3-1.3-5.4 1-7.1l14.8-11.4c2.2-1.7 5.4-1.3 7.1 0.9 1.7 2.3 1.3 5.5-0.9 7.2l-14.9 11.3c-0.9 0.7-2 1.1-3 1.1z"/>
									</g>
								</g>
								<g id="&lt;Group&gt;">
									<g id="&lt;Group&gt;">
										<path id="&lt;Path&gt;" class="s23" d="m896.5 1165.9c-1.3 0-2.6-0.5-3.6-1.5-2-2-2-5.2 0-7.2l13.3-13.1c2-2 5.2-2 7.2 0 2 2 2 5.2 0 7.2l-13.3 13.2c-1 0.9-2.3 1.4-3.6 1.4z"/>
									</g>
									<g id="&lt;Group&gt;">
										<path id="&lt;Path&gt;" class="s23" d="m915.3 1168.7c-1.3 0-2.6-0.5-3.6-1.5-2-2-2-5.2 0-7.2l13.3-13.1c2-2 5.2-1.9 7.2 0 2 2 1.9 5.3-0.1 7.2l-13.2 13.2c-1 0.9-2.3 1.4-3.6 1.4z"/>
									</g>
									<g id="&lt;Group&gt;">
										<path id="&lt;Path&gt;" class="s23" d="m934.1 1171.5c-1.3 0-2.6-0.5-3.6-1.5-2-2-2-5.2 0-7.2l13.3-13.1c2-2 5.2-1.9 7.2 0.1 1.9 2 1.9 5.2-0.1 7.1l-13.3 13.2c-0.9 1-2.2 1.4-3.5 1.4z"/>
									</g>
								</g>
							</g>
							<path id="&lt;Path&gt;" class="s29" d="m760.2 896.2c69.7-20.6 179.7-6.2 231.2 56.5q51.5 62.8 38 158.2c-25.2 6.5-86.4 5.8-134.5-30.1q-48.1-35.8-56.9-131.9-5.8 22.8-56.3 71.5-50.5 48.7-136.6 27c9.3-57.2 45.3-130.7 115.1-151.2z"/>
							<g id="&lt;Group&gt;">
								<path id="&lt;Path&gt;" class="s26" d="m998.9 1121.2c13.4-19.2 46.2-34.7 60.5 0 14.5 35.2-36.1 95.7-72.7 84.6-27.6-8.4 1.1-68.7 12.2-84.6z"/>
							</g>
						</g>
					</g>
				</g>
			</g>
			<g id="&lt;Clip Group&gt;" clip-path="url(#cp7)">
				<g id="&lt;Group&gt;">
				</g>
			</g>
			<g id="&lt;Group&gt;">
				<g id="&lt;Group&gt;">
					<path id="&lt;Path&gt;" class="s26" d="m938.6 1396.2c-8.5 49.5-64.3 65-129.3 51-65-14-152.1-62.1-231.5-156.8-79.4-94.6-120.2-269.5-125.5-302.4-3.7-23.4-9.2-60.8-10.5-79.2-1-14.8 20.7-19.5 24.3-10.3q5.1 13.1 10.1 40-2.4-21.7-3.5-39.6c-0.6-10.8 21.9-16.1 24.3-5.9q4.2 17.9 8.6 38.9-5.2-30.4-0.3-42.2c2.2-5.1 15-5.9 18.9-2.3q7 6.7 9.1 41.7c0.1-9-1.7-30.3 1.7-40.2 2.1-6.1 16.9-5.3 19.5 1.7 7 18.8 4.2 48 9.3 98.5 5.9 57.4 63.3 161.5 104 218.1 24 33.5 68.7 67.7 106.7 87.6 26.3 13.7 72.6 23.2 83.8 24.9 42.1 6.2 88.8 26.9 80.3 76.5z"/>
					<path id="&lt;Path&gt;" class="s26" d="m544.9 994.3c-9.7-7.6-9.6-28.1-2.4-37.8 7.2-9.7 22.6-16.4 28.7-20.9 4.5-3.4 5.7-29 19.4-27.8 16.4 1.5 14.7 13 10.9 31.5-3 14.3-12 47-26.8 56.7-8 5.2-15.3 9.9-29.8-1.7z"/>
				</g>
				<path id="&lt;Path&gt;" class="s7" d="m750 1438.3c-2.1-1.6-3.5-4.1-3.8-6.7-0.2-2.7 0.7-5.4 2.5-7.3 14.4-22.1 39.4-84.1 37.4-119.5-0.4-2.8 0.7-5.6 2.9-7.5 2.1-1.8 5.1-2.5 7.8-1.6 21.2 6.1 61.7 18.1 77.9 21.6 22.3 5 77.9 24.6 78.1 66.9 0.2 39-13.5 70.5-83.3 77.4-50.8 5.1-96.9-9.5-119.5-23.3z"/>
				<g id="&lt;Clip Group&gt;" clip-path="url(#cp8)">
					<g id="&lt;Group&gt;">
						<path id="&lt;Path&gt;" class="s27" d="m768 1465.6c-0.9 0-1.8-0.3-2.5-0.9-1.7-1.3-2-3.9-0.6-5.6 0.1-0.2 14.5-18.2 27.8-47.7 12.3-27.2 26.1-70 22.5-119.6-0.2-2.2 1.5-4.1 3.7-4.3 2.2-0.2 4.1 1.5 4.2 3.7 3.8 51.4-10.5 95.6-23.2 123.7-13.7 30.4-28.2 48.5-28.8 49.2-0.8 1-1.9 1.5-3.1 1.5z"/>
						<g id="&lt;Group&gt;">
							<path id="&lt;Path&gt;" class="s27" d="m787.2 1471.1c-0.9 0-1.8-0.3-2.5-0.9-1.7-1.4-2-3.9-0.6-5.7 0.1-0.1 14.5-18.2 27.8-47.7 12.2-27.2 26.1-70 22.5-119.6-0.2-2.2 1.4-4.1 3.6-4.3 2.3-0.2 4.2 1.5 4.3 3.7 3.8 51.4-10.5 95.6-23.2 123.7-13.7 30.4-28.2 48.5-28.8 49.3-0.8 0.9-1.9 1.5-3.1 1.5z"/>
						</g>
					</g>
				</g>
			</g>
		</g>
	</g>
</svg>